<mxfile host="app.diagrams.net" modified="2022-03-14T03:13:37.131Z" agent="5.0 (Macintosh; Intel Mac OS X 10_15_7) AppleWebKit/537.36 (KHTML, like Gecko) Chrome/98.0.4758.80 Safari/537.36 Edg/98.0.1108.43" etag="3ZtINxsoooAE9Hhw3AQK" version="16.6.5" type="github" pages="3">
  <diagram id="prtHgNgQTEPvFCAcTncT" name="Page-1">
    <mxGraphModel dx="1569" dy="779" grid="1" gridSize="10" guides="1" tooltips="1" connect="1" arrows="1" fold="1" page="1" pageScale="1" pageWidth="827" pageHeight="1169" math="0" shadow="0">
      <root>
        <mxCell id="0" />
        <mxCell id="1" parent="0" />
        <mxCell id="BbNZ7dPYBINPjBmZWg25-3" value="" style="rounded=0;whiteSpace=wrap;html=1;" parent="1" vertex="1">
          <mxGeometry x="60" y="60" width="190" height="540" as="geometry" />
        </mxCell>
        <mxCell id="BbNZ7dPYBINPjBmZWg25-4" value="" style="rounded=0;whiteSpace=wrap;html=1;" parent="1" vertex="1">
          <mxGeometry x="319" y="60" width="190" height="540" as="geometry" />
        </mxCell>
        <mxCell id="BbNZ7dPYBINPjBmZWg25-5" value="" style="rounded=0;whiteSpace=wrap;html=1;" parent="1" vertex="1">
          <mxGeometry x="580" y="60" width="190" height="540" as="geometry" />
        </mxCell>
        <mxCell id="BbNZ7dPYBINPjBmZWg25-6" value="" style="rounded=0;whiteSpace=wrap;html=1;" parent="1" vertex="1">
          <mxGeometry x="850" y="60" width="190" height="540" as="geometry" />
        </mxCell>
        <mxCell id="hoVeukWaJJrLD9m1lSQo-1" value="JD System&lt;br&gt;" style="text;html=1;align=center;verticalAlign=middle;resizable=0;points=[];autosize=1;strokeColor=none;fillColor=none;" vertex="1" parent="1">
          <mxGeometry x="105" y="10" width="70" height="20" as="geometry" />
        </mxCell>
        <mxCell id="hoVeukWaJJrLD9m1lSQo-2" value="JD-Conn" style="text;html=1;align=center;verticalAlign=middle;resizable=0;points=[];autosize=1;strokeColor=none;fillColor=none;" vertex="1" parent="1">
          <mxGeometry x="380" y="10" width="60" height="20" as="geometry" />
        </mxCell>
        <mxCell id="hoVeukWaJJrLD9m1lSQo-3" value="LOGFLOWS TMS" style="text;html=1;align=center;verticalAlign=middle;resizable=0;points=[];autosize=1;strokeColor=none;fillColor=none;" vertex="1" parent="1">
          <mxGeometry x="620" y="10" width="110" height="20" as="geometry" />
        </mxCell>
        <mxCell id="hoVeukWaJJrLD9m1lSQo-6" style="edgeStyle=orthogonalEdgeStyle;rounded=0;orthogonalLoop=1;jettySize=auto;html=1;exitX=1;exitY=0.5;exitDx=0;exitDy=0;" edge="1" parent="1" source="hoVeukWaJJrLD9m1lSQo-4" target="hoVeukWaJJrLD9m1lSQo-5">
          <mxGeometry relative="1" as="geometry" />
        </mxCell>
        <mxCell id="hoVeukWaJJrLD9m1lSQo-4" value="Order:#12345" style="rounded=1;whiteSpace=wrap;html=1;" vertex="1" parent="1">
          <mxGeometry x="95" y="80" width="115" height="30" as="geometry" />
        </mxCell>
        <mxCell id="zGWnhSRecWsRxe6Gcth6-2" style="edgeStyle=orthogonalEdgeStyle;rounded=0;orthogonalLoop=1;jettySize=auto;html=1;exitX=1;exitY=0.5;exitDx=0;exitDy=0;fontSize=16;fontColor=#A31515;" edge="1" parent="1" source="hoVeukWaJJrLD9m1lSQo-5" target="zGWnhSRecWsRxe6Gcth6-1">
          <mxGeometry relative="1" as="geometry" />
        </mxCell>
        <mxCell id="hoVeukWaJJrLD9m1lSQo-5" value="Order:#12345" style="rounded=1;whiteSpace=wrap;html=1;" vertex="1" parent="1">
          <mxGeometry x="356" y="80" width="115" height="30" as="geometry" />
        </mxCell>
        <mxCell id="hoVeukWaJJrLD9m1lSQo-7" value="1" style="text;html=1;align=center;verticalAlign=middle;resizable=0;points=[];autosize=1;strokeColor=none;fillColor=none;fontColor=#A31515;fontStyle=1;fontSize=16;" vertex="1" parent="1">
          <mxGeometry x="280" y="70" width="20" height="20" as="geometry" />
        </mxCell>
        <mxCell id="zGWnhSRecWsRxe6Gcth6-1" value="Order:#12345" style="rounded=1;whiteSpace=wrap;html=1;" vertex="1" parent="1">
          <mxGeometry x="620" y="80" width="115" height="30" as="geometry" />
        </mxCell>
        <mxCell id="zGWnhSRecWsRxe6Gcth6-3" value="2" style="text;html=1;align=center;verticalAlign=middle;resizable=0;points=[];autosize=1;strokeColor=none;fillColor=none;fontColor=#A31515;fontStyle=1;fontSize=16;" vertex="1" parent="1">
          <mxGeometry x="530" y="70" width="20" height="20" as="geometry" />
        </mxCell>
      </root>
    </mxGraphModel>
  </diagram>
  <diagram id="2kHdhKjoaV7GqlTIEwSy" name="DB schema">
    <mxGraphModel dx="2318" dy="1909" grid="1" gridSize="10" guides="1" tooltips="1" connect="1" arrows="1" fold="1" page="1" pageScale="1" pageWidth="827" pageHeight="1169" math="0" shadow="0">
      <root>
        <mxCell id="LrmgL-af4YmyxPPww3Iy-0" />
        <mxCell id="LrmgL-af4YmyxPPww3Iy-1" parent="LrmgL-af4YmyxPPww3Iy-0" />
        <mxCell id="WI2oVzrPPP1DQgDVgx_B-0" value="TMS payload" style="text;html=1;align=center;verticalAlign=middle;resizable=0;points=[];autosize=1;strokeColor=none;fillColor=none;fontSize=16;fontColor=#A31515;" vertex="1" parent="LrmgL-af4YmyxPPww3Iy-1">
          <mxGeometry x="320" y="-360" width="110" height="20" as="geometry" />
        </mxCell>
        <mxCell id="WI2oVzrPPP1DQgDVgx_B-1" value="" style="shape=image;verticalLabelPosition=bottom;labelBackgroundColor=default;verticalAlign=top;aspect=fixed;imageAspect=0;image=data:image/png,iVBORw0KGgoAAAANSUhEUgAAAjwAAAJ4CAYAAABhxjngAAAMXWlDQ1BJQ0MgUHJvZmlsZQAASImVVwdYU8kWnltSIbQAAlJCb6JIDSAlhBapUgVRCUkgoYSYEFTs6KKCaxcRsKGrIoquBZC1InYXxd4XCyqKLhZsqLwJCejqK987fHPnz5kz/ynM3DsDgGY7VyLJQbUAyBXnS2NDAxljk1MYpMcAgX9qwA4QuTyZhBUTEwGgDPT/lHfXoC2Uy04Krp/H/6vo8AUyHgBIKsTpfBkvF+KjAOBFPIk0HwBiENRbTs6XKLAQYl0pDBDi6QqcqcRLFThdiTf328THsiFuBICszuVKMwHQaIF6RgEvE/JoPILYWcwXiQHQ1IXYjyfk8iGOh3hYbm6eAs+G2A7aSyDeBjEz/TvOzH/wpw/yc7mZg1iZV7+Qg0QySQ536v9Zmv8tuTnyAR82sKkLpWGxivxhDW9k54UrsDrEXeL0qGhFrSH+IOIr6w4AShXKwxKU9qgxT8aG9QP6EDvzuUHhEBtDHCLOiYpQ6dMzRCEciOFqQaeI8jnxqrkLBLLgOBVnlTQvNnoAZ0jZLNXcOq6036/CvkWencBS8d8QCjgD/G8LhfFJEFMBwKgFosQoiDUg1pVlx4UrbTCLQiE7asBGKo9VxG8FMVMgDg1U8mOpGdKQWJW9JFc2kC9WLBRxolS4PF8YH6asD7adx+2P3wDieoGYlTDAI5CNjRjIhS8IClbmjrUKxAmqfLF7kvzAWNXcbklOjMoeJwtyQhV6C4iNZAVxqrn4qHy4OJX8eIQkPyZeGSeelsUdHaOMBy8AEYANggADyGFLB3kgC4hauxq64C/lSAjgAinIBALgpNIMzEjqHxHDZxwoBC8gEgDZ4LzA/lEBKID6L4Na5dMJZPSPFvTPyAaPIc4F4SAH/pb3zxIPeksEj6BG9JN3How1BzbF2M86FtREqDTyAV6G5oAlMZgYRAwjhhDtcSPcD/fBI+AzADYXnIl7DUT7zZ7wmNBGeEC4Smgn3JwoKpL+EEskaIf8IaqM07/PGLeBnO54IO4L2SEzro8bASfcDfph4f7QszvUslVxK3Jn/Js8BzP4ruYqO4ozBaUMoQRQ7H6cqeGg4T7Ioqjo9/VRxpo+WFX24MiP/tnf1ZkP+/AfLbEF2F7sFHYMO4MdxBoAAzuCNWLnsUMKPLiGHvWvoQFvsf3xZEMe0U/+uCqfikrKnGudO50/q8ZAvmBKvmKDsfMkU6WiTGE+gwW/AgIGR8wbPozh4uziAoDim6J8TXVf6P9WIIba33Rz8gAYVdXX13fgmy7yLgD7XsBtfuubzrYEvg4KADhdwZNLC5Q6XPEgwLeBJtxRhsAUWMJvlhNwAR7ABwSAYDAaRIN4kAwmwDoL4XqWgslgOpgDikEpWApWgQqwHmwC28BOsAc0gIPgGDgJzoGL4Cq4DddPB3gOusE70IsgCAmhIXTEEDFDrBFHxAVhIn5IMBKBxCLJSBqSiYgROTIdmYuUIsuRCmQjUoP8jhxAjiFnkDbkJnIf6UReI59QDFVHdVET1AYdgTJRFhqOxqPj0Ux0ElqIzkMXo+VoNboDrUePoefQq2g7+hztwQCmhulj5pgTxsTYWDSWgmVgUmwmVoKVYdVYHdYE/9OXsXasC/uIE3E6zsCd4BoOwxNwHj4Jn4kvwivwbXg93oJfxu/j3fhXAo1gTHAkeBM4hLGETMJkQjGhjLCFsJ9wAu6mDsI7IpGoT7QlesLdmEzMIk4jLiKuJe4iHiW2ER8Se0gkkiHJkeRLiiZxSfmkYtIa0g7SEdIlUgfpA1mNbEZ2IYeQU8hichG5jLydfJh8ifyE3EvRolhTvCnRFD5lKmUJZTOliXKB0kHppWpTbam+1HhqFnUOtZxaRz1BvUN9o6amZqHmpTZGTaQ2W61cbbfaabX7ah/VddQd1Nnqqepy9cXqW9WPqt9Uf0Oj0WxoAbQUWj5tMa2Gdpx2j/ZBg64xXIOjwdeYpVGpUa9xSeOlJkXTWpOlOUGzULNMc6/mBc0uLYqWjRZbi6s1U6tS64DWda0ebbr2SO1o7VztRdrbtc9oP9Uh6djoBOvwdebpbNI5rvOQjtEt6Ww6jz6Xvpl+gt6hS9S11eXoZumW6u7UbdXt1tPRc9NL1JuiV6l3SK9dH9O30efo5+gv0d+jf03/0xCTIawhgiELh9QNuTTkvcFQgwADgUGJwS6DqwafDBmGwYbZhssMGwzvGuFGDkZjjCYbrTM6YdQ1VHeoz1De0JKhe4beMkaNHYxjjacZbzI+b9xjYmoSaiIxWWNy3KTLVN80wDTLdKXpYdNOM7qZn5nIbKXZEbNnDD0Gi5HDKGe0MLrNjc3DzOXmG81bzXstbC0SLIosdlnctaRaMi0zLFdaNlt2W5lZRVpNt6q1umVNsWZaC61XW5+yfm9ja5NkM9+mweaprYEtx7bQttb2jh3Nzt9ukl213RV7oj3TPtt+rf1FB9TB3UHoUOlwwRF19HAUOa51bBtGGOY1TDyseth1J3UnllOBU63T/eH6wyOGFw1vGP5yhNWIlBHLRpwa8dXZ3TnHebPz7ZE6I0ePLBrZNPK1i4MLz6XS5YorzTXEdZZro+srN0c3gds6txvudPdI9/nuze5fPDw9pB51Hp2eVp5pnlWe15m6zBjmIuZpL4JXoNcsr4NeH709vPO993j/7ePkk+2z3efpKNtRglGbRz30tfDl+m70bfdj+KX5bfBr9zf35/pX+z8IsAzgB2wJeMKyZ2WxdrBeBjoHSgP3B75ne7NnsI8GYUGhQSVBrcE6wQnBFcH3QixCMkNqQ7pD3UOnhR4NI4SFhy0Lu84x4fA4NZzu0Z6jZ4xuCVcPjwuvCH8Q4RAhjWiKRCNHR66IvBNlHSWOaogG0ZzoFdF3Y2xjJsX8MYY4JmZM5ZjHsSNjp8eeiqPHTYzbHvcuPjB+SfztBLsEeUJzomZiamJN4vukoKTlSe1jR4ydMfZcslGyKLkxhZSSmLIlpWdc8LhV4zpS3VOLU6+Ntx0/ZfyZCUYTciYcmqg5kTtxbxohLSlte9pnbjS3mtuTzkmvSu/msXmrec/5AfyV/E6Br2C54EmGb8byjKeZvpkrMjuF/sIyYZeILaoQvcoKy1qf9T47Ontrdl9OUs6uXHJuWu4BsY44W9ySZ5o3Ja9N4igplrRP8p60alK3NFy6RYbIxssa83Xh4f283E7+i/x+gV9BZcGHyYmT907RniKecn6qw9SFU58UhhT+Ng2fxpvWPN18+pzp92ewZmycicxMn9k8y3LWvFkds0Nnb5tDnZM9588i56LlRW/nJs1tmmcyb/a8h7+E/lJbrFEsLb4+32f++gX4AtGC1oWuC9cs/FrCLzlb6lxaVvp5EW/R2V9H/lr+a9/ijMWtSzyWrFtKXCpeem2Z/7Jty7WXFy5/uCJyRf1KxsqSlW9XTVx1psytbP1q6mr56vbyiPLGNVZrlq75XCGsuFoZWLmryrhqYdX7tfy1l9YFrKtbb7K+dP2nDaINNzaGbqyvtqku20TcVLDp8ebEzad+Y/5Ws8VoS+mWL1vFW9u3xW5rqfGsqdluvH1JLVorr+3ckbrj4s6gnY11TnUbd+nvKt0Ndst3P/s97fdre8L3NO9l7q3bZ72vaj99f0k9Uj+1vrtB2NDemNzYdmD0geYmn6b9fwz/Y+tB84OVh/QOLTlMPTzvcN+RwiM9RyVHu45lHnvYPLH59vGxx6+0jGlpPRF+4vTJkJPHT7FOHTnte/rgGe8zB84yzzac8zhXf979/P4/3f/c3+rRWn/B80LjRa+LTW2j2g5f8r907HLQ5ZNXOFfOXY262nYt4dqN66nX22/wbzy9mXPz1a2CW723Z98h3Cm5q3W37J7xveq/7P/a1e7Rfuh+0P3zD+Ie3H7Ie/j8kezR5455j2mPy56YPal56vL0YGdI58Vn4551PJc87+0qfqH9ouql3ct9fwf8fb57bHfHK+mrvteL3hi+2frW7W1zT0zPvXe573rfl3ww/LDtI/PjqU9Jn570Tv5M+lz+xf5L09fwr3f6cvv6JFwpt/8ogMGGZmQA8HorALRkAOgX4flhnPLO1y+I8p7aj8B/wsp7Yb94AFAHO8VxnX0UgN2w2QRA7tkARMM+PgCgrq6DTSWyDFcXJZdGLQAk876+1/B8Q4Htc2hfX29MX9+XKhjsFQAOP1XeNRVChHeDDc4KdMlsL/hRlPfQ73L8sQeKCNzAj/2/AHu+iQ3TKrvRAAAAimVYSWZNTQAqAAAACAAEARoABQAAAAEAAAA+ARsABQAAAAEAAABGASgAAwAAAAEAAgAAh2kABAAAAAEAAABOAAAAAAAAAJAAAAABAAAAkAAAAAEAA5KGAAcAAAASAAAAeKACAAQAAAABAAACPKADAAQAAAABAAACeAAAAABBU0NJSQAAAFNjcmVlbnNob3Rh8FVuAAAACXBIWXMAABYlAAAWJQFJUiTwAAAB1mlUWHRYTUw6Y29tLmFkb2JlLnhtcAAAAAAAPHg6eG1wbWV0YSB4bWxuczp4PSJhZG9iZTpuczptZXRhLyIgeDp4bXB0az0iWE1QIENvcmUgNS40LjAiPgogICA8cmRmOlJERiB4bWxuczpyZGY9Imh0dHA6Ly93d3cudzMub3JnLzE5OTkvMDIvMjItcmRmLXN5bnRheC1ucyMiPgogICAgICA8cmRmOkRlc2NyaXB0aW9uIHJkZjphYm91dD0iIgogICAgICAgICAgICB4bWxuczpleGlmPSJodHRwOi8vbnMuYWRvYmUuY29tL2V4aWYvMS4wLyI+CiAgICAgICAgIDxleGlmOlBpeGVsWERpbWVuc2lvbj41NzI8L2V4aWY6UGl4ZWxYRGltZW5zaW9uPgogICAgICAgICA8ZXhpZjpVc2VyQ29tbWVudD5TY3JlZW5zaG90PC9leGlmOlVzZXJDb21tZW50PgogICAgICAgICA8ZXhpZjpQaXhlbFlEaW1lbnNpb24+NjMyPC9leGlmOlBpeGVsWURpbWVuc2lvbj4KICAgICAgPC9yZGY6RGVzY3JpcHRpb24+CiAgIDwvcmRmOlJERj4KPC94OnhtcG1ldGE+CgDNNNEAAAAcaURPVAAAAAIAAAAAAAABPAAAACgAAAE8AAABPAAAXau+7kWBAABAAElEQVR4AeydB4AUNRuGPzh67733DgoIitgQxd4RLNh+FRWxgyIdkSoCCio2RLFgFzuKIogCIgLSpPfeezv+vDkyZHO7ezt3e7C3vFFuJplMZvJkdufdL1+STLv2HTgmDCRAAiRAAiRAAiQQxwQyUfDEceuyaiRAAiRAAiRAApoABQ8fBBIgARIgARIggbgnQMET903MCpIACZAACZAACVDw8BkgARIgARIgARKIewIUPHHfxKwgCZAACZAACZAABQ+fARIgARIgARIggbgnQMET903MCpIACZAACZAACVDw8BkgARIgARIgARKIewIUPHHfxKwgCZAACZAACZAABQ+fARIgARIgARIggbgnQMET903MCpIACZAACZAACVDw8BkgARIgARIgARKIewIUPHHfxKwgCZAACZAACZAABQ+fARIgARIgARIggbgnQMET903MCpIACZAACZAACVDw8BkgARIgARIgARKIewIUPHHfxKwgCZAACZAACZAABQ+fARIgARIgARIggbgnQMET903MCpIACZAACZAACVDw8BkgARIgARIgARKIewIUPHHfxKwgCZAACZAACZAABQ+fARIgARIgARIggbgnQMET903MCpIACZAACZAACVDw8BkgARIgARIgARKIewIUPHHfxKwgCZAACZAACZAABQ+fARIgARIgARIggbgnQMET903MCpIACZAACZAACVDw8BkgARIgARIgARKIewIUPHHfxKwgCZAACZAACZAABQ+fARIgARIgARIggbgnQMET903MCpIACZAACZAACVDw8BkgARIgARIgARKIewIUPHHfxKwgCZAACZAACZAABQ+fARIgARIgARIggbgnQMET903MCpIACZAACZAACVDw8BkgARIgARIgARKIewIUPHHfxKwgCZAACZAACZAABQ+fARIgARIgARIggbgnQMET903MCpIACZAACZAACVDw8BkgARIgARIgARKIewIUPHHfxKwgCZAACZAACZAABQ+fARIgARIgARIggbgnQMET903MCpIACZAACZAACVDw8BkgARIgARIgARKIewIUPHHfxKwgCZAACZAACZAABQ+fARIgARIgARIggbgnQMET903MCpIACZAACZAACVDw8BkgARIgARIgARKIewIUPHHfxKwgCZAACZAACZAABQ+fARIgARIgARIggbgnQMET903MCpIACZAACZAACVDw8BkgARIgARIgARKIewIUPHHfxKwgCZAACZAACZAABQ+fARIgARIgARIggbgnQMET903MCpIACZAACZAACVDw8BkgARIgARIgARKIewIUPHHfxKwgCZAACZAACZAABQ+fARIgARIgARIggbgnQMET903MCpIACZAACZAACVDw8BkgARIgARIgARKIewIUPHHfxKwgCZAACZAACZAABQ+fARIgARIgARIggbgnQMET903MCpIACZAACZAACVDw8BkgARIgARIgARKIewIUPHHfxKwgCZAACZAACZAABQ+fARIgARIgARIggbgnQMET903MCpIACZAACZAACVDw8BkgARIgARIgARKIewIUPHHfxKwgCZAACZAACZAABQ+fARIgARIgARIggbgnQMET903MCpIACZAACZAACVDw8BkgARIgARIgARKIewIUPHHfxKwgCZAACZAACZAABQ+fARIgARIgARIggbgnQMET903MCpIACZAACZAACVDw8BkgARIgARIgARKIewIUPHHfxKwgCZAACZAACZAABQ+fARIgARIgARIggbgnQMET903MCpIACZAACZAACVDw8BkgARIgARIgARKIewIUPHHfxKwgCZAACZAACZAABQ+fARIgARIgARIggbgnQMET903MCpIACZAACZAACVDw8BkgARIgARIgARKIewIUPHHfxKwgCZAACZAACZAABQ+fARIgARIgARIggbgnQMET903MCpIACZAACZAACVDwROkZOJaYKMeiVBaLIQESIAESOL0JZFLVz5Q58+kNIcq1p+BJA1AjcnZtPiJrFh6QTSsPye4tR+XQfoqfNGDlqSRAAiRwWhKAyMmWM5PkLZJFipXLJmVq5pB8RbMIxU90HgcKntRwVKacxGOJsn39YZn1425ZMXt/akrhOSRAAiRAAiQQlkCF+jnljJZ5pWCprJI5k7L4QP0wpIoABY8fbMeFDk6ZP3mP/Pn5Tj9nMy8JkAAJkAAJpIpAk2vzS+3z8uhzKXxShVAoeCLlZomdmd/ulNk/7Yn0TOYjARIgARIggTQTqH9xHml4eX5dDkWPf5wUPJEws8TO/Mm7lWVnVyRnMQ8JkAAJkAAJRJVAk2vzKUtPXl0mRY8/tBQ8KfFSYucY/jt2TLatOyRfDN6c0hk8TgIkQAIkQALpRuCaJ4pK4dLZJFOmTMqlRzn10K8nItYUPOEwWWInUQ07//W97bLinwPhzuAxEiABEiABEkhXAhXq55ALbi8omdWwdYqeyFFT8IRhBauO+bdry2H5tB+tO2Fw8RAJkAAJkMBJInD900Ulf9GsSYIHlh71jyE8AQqeUHyOW3dg2YHoWfTHHvnj092hckuOPAmSLUcmyZIls2ROCJmNB0iABEiABEggJIHEoyJHjhyTwwcSZf8eFQkRml6XT2o0y62Fjrb0sGsrBKkTyRQ8J1gE7EHkIEDw4N+0T3bJwmn7JH+xrFLljFxSvGI2yVsoQbIroZMlO5V1ADxGSIAESIAEokLgyMFjcnDvUdm97ahsXHZIlszaJzs3HZZqTXLJ2Tfm091aEDwItPKER07BE4yPY905evSoLJpySKo0zC058lLcBEPGNBIgARIggZND4ODuY7J4xh6pfl52SUhIoJUnQuwUPEFAudadRCV4Eo8lSP68OYPkZhIJkAAJkAAJnFwCO3fvVzMvH1UuFAm08kSInoInCChb8MC6k9StlVkK5MsVJDeTSIAESIAESODkEtixa58SOola7MDKw26tlPlT8LiMnKHoEDsQPceUhYeCx4XFOAmQAAmQwKkgAMGTSVl4jNjhEPWUW4GCx2FkrDvYGrFz9MgR5Q2WlYLHYcUoCZAACZDAqSEAwSPHDktCliye6DFOy2Z7au4sdq9KweO0TTDBc0QJnkwUPA4pRkmABEiABE4VAQieY0rwZKHgibgJKHgcVMEFz2EleLLRwuOwYpQESIAESODUEEgSPIeU4MlKC0+ETUDB44CyBY92WFb+O4eVhSdzZgoeBxWjJEACJEACp4gABE9i4iHJmjWLej8leMPTcTvs0greKBQ8DhdX8ED0oEuLgscBxSgJkAAJkMApI2AEj+nSMvPx4IYoeII3CwWPw4WCxwHCKAmQAAmQQMwRoODx3yQUPA4zLXiOD02HdYcWHgcQoyRAAiRAAqecQFDBc3w9LVp4gjcPBY/DhYLHAcIoCZAACZBAzBGg4PHfJBQ8DjMKHgcIoyRAAiRAAjFHgILHf5NQ8DjMKHgcIIySAAmQAAnEHAEKHv9NQsHjMKPgcYAwSgIkQAIkEHMEKHj8NwkFj8OMgscBwigJkAAJkEDMEaDg8d8kFDwOMwoeBwijJEACJEACMUeAgsd/k1DwOMwoeBwgjJIACZAACcQcAQoe/01CweMwo+BxgDBKAiRAAiQQcwQoePw3CQWPw4yCxwHCKAmQAAmQQMwRoODx3yQUPA4zCh4HCKMkQAIkQAIxR4CCx3+TUPA4zOJB8Ozdu08mTvpDJk+dIZs3b5UDBw9J2TIlpU7NalKrZlWpX7eGWmE3q1PztEffGfuprFu/KdUFZc+eTR5/+B7v/EmTp8nUaX978VIli8kdt97gxSPZwdIgL778lhw+fMTLftXlLaROrWpe3N5B+/87/z/5b/Fy+W/JMlmydKUcPHRIKpYvK9WqVpRqVSoqfjUlR47s9mncJ4GTTuDXyX/KH9Nm6evmyZ1LHn7gjpN+D7zgqSNAweOfPQWPwyyjC55NSuB07tpfdu/Z69TsRLR0qRLyXI8nJG+e3CcSo7DX7t4nZN++/akuKSEhs3w05mXv/JdfHSP4UrfDy0N6SYniRe2ksPsQfcNGvB2Q5/6720rLFs0D0hDZv/+A9HvhFZm/YHGyY3ZC4UIFpEeXRwUCjCFtBNau2+AVUCB/PsmtXtwMkRF4Y/RH8v2ESTozfsB8MHpYZCcyV1wQoODx34wUPA6zjCx4Vq1eJ116DpIDBw46tUoezZ8vr/Tv01mKFimU/GAqU06G4GnV8nz53503R3yHTz3bT5avWB2QP5jgWbVmnfTqO0x27todkDdUBOKs02P3S8Mz6obKwvQUCOCzdtNtD3m5brn5Grn+6ku9OHfCE6DgCc8n3o9S8PhvYQoeh1lGFTxHjybKXe2fCrCwoOvlwvPOllKlisvy5avk8/E/yoaNm70aVyhXRgb36+LF07rz3Y+/yt69yS08K1etkT+mJ5necY2mZ50huLYbsmRJkGuvusRLDmbhwS/ZMa+/oLrksnj5Qu2sWbtBHu3UO9lhV/AkJibKPQ90DrCK5cqVU1pdfJ5UrFhOcuXMIShr/Lc/y5at27zyIHpGvdxPIB4Z/BOg4PHPzD6DgsemcfrtU/D4b3MKHodZRhU8fyhflxeGv+HVpvk5jaXjg3dKpkyZvLSDypenx3MvypJlK720oQO7S5nSJbx4euzAJ6Zn36Fe0U89ep80adzAi4faCSZ4kPfB+26Ti84/J9RpXvqrb4yVn3753YubHVfwTP1zpgx56U1zWKpUKi/dnn44aPfKsJGjZfLv0728N11/udx8w5VenDuRE6DgiZxVsJwUPMGonD5pFDz+25qCx2GWUQUPHIZhgTDhzVcGBLU8zJw1V/oNfsVk007C5zRt6MXTYyfaggc+SMMGdQ97q3A0bve/xwWWLze4gufdDz6XL7+e4GV7vueTykG5khe3d44cOSK33v2oV+4Z9WvLs51OdMvYeVO7j2vMnrtAO4Bv375TSitBWl05TKPetoC1y0e33foNSQ7jJUoUk0oVygqeZThfz5g5Wzuut2p5nhK3Je3T9D78aBYtXiYbN22RzJkza+tbRXV+saKFk+UNloAu1OUrV2srGO4B1rGihQsJ2OTLlyfZKVu2blf3tUzfHxzKTYBj/U3XXa6juHaVyhXMoYAt+PwzR/HZsFHAp0SxolKhfBmpUKGMZM+WLSBvtCPwjZuj2gas9uzZJ0WLFlK+XMWlXp0aIdsG94D2xGAChOrVKgv8wPCMzpm7UObOW6jTb297fTLLJSyy89QPBnBNUBbQ2mrgQfVqlXQ9/Qqe1LRzWp4rXakU/qSWC4pduGiprFDWY/gt5lNW1orqGcBznzdv8mcu2G2Y53bpslWybdsO3ZYlihfTbQnrbawHCh7/LUTB4zDLqILn/XFfeQ6MRdTLZkj/Z52aJUW3qg/2/Q+f6MZ6ouP/5OwmZwbNG63EaAse3Nfg57vol1yoe5zw82R57a0Pgh52Bc/IUe/qUW0m8xsj+kuBAvlMNNl24X9LZffuJKfwIoULCsRBNAKevU+/+F4+/fJ7NarscLIi8SWMl+KVl12U7JhtDYNwePKRe+XJLv0CynHbes3a9TJC1X3xkhXJykNCwzPqSPv/3SoFC+QPehxdgd/9OEne+/CLgOvYmeHj1FGNHrKdkeGIjvsNF6pWqSD9enUKyKL5KDZgFIwPujsfuPdWOa/ZWQHnRSMCh/ZX33xffv/jr6DFQeTd0vpqgY9ZsHDvQ8/I9h079aErL2uhX84vvfpOQNZ3Rg32OO1RwmrYyLdl1uz5AXkQwbV6PvuoTPx1qveZD+e0nJZ2Ts1zleyGwyT45YKiZsycI2+M/lDwXRYsXHtlS7n5xquSiUeTF5bulxV7u5vdHMMWfO+67Ua58Pyz7eSY26fg8d8kFDwOs4wqeJxqhIz+/c88eX7QCO94/96dQv6S9jKlcScaggd+MvvUS8e86M4/t0nYYbgdHu/h+StBAKxes96rhSt4vv5uoox+7xPvuF/HaO/ENOzAagHLG37xphTQXdmhfTtJSEjwstovJgjeY8cSk70QbMEzd94ieW7AS56lyivI2YHI6tvjyWTPCD4nnbsNkGXKNyylAP5wkDfWl9QIHkwv0P+FV5UAmJfS5bQj+TNPPpBivkgzbN6yTbr0GOQJlnDnNVdiCwLPtcTZL/a6tavL/IWLk7E3gmfHjl0CZ3sjkIJdD+0Ca8+cf5OsQ6EET1rb2e9zFexew6X54YJyPv/qBxn70ZfhitTHINKHv9BDcubIEZAXbdm11+Bkn42ATMcj7vdEsDynMo2Cxz99Ch6HWbwLni49B+vuBFPtD0YPD/lLyORJ6zYaggddAPD7+faHX/Xt4Av/nVEvBJ0PZ8nSFfJ094HebT903+3akmES3C+yFSvXKGvI8+aw3sLh+9Y212oTecCBdIqMef8z+eqbnwJKh3BpdGYd2aWsSfAzssOtakTTddaIJvvFZOfDixAWqEPqV+3dd7SWWjWq6JFo7Tt29cQj8mOKAlhj4AwOq4LtnI37GPFibyWwTpj5v/n+F3n73Y/tSwmsMvXr1tKj4v6ZMy/ghQ5n9NsUTwTw/lXNsQQL0bc//BJQBqwfCPAru/jCZt6x91S34xdWtyMO4Ho1q1fR13MFxCMP3SUQhmkN+D544pnnZdXqtQFFVVLO7OhGm/n33GQj++68/Ua5slWgFc5+sdsFgXvZsqWUxXCP9O+tRKGai6pP/5eSCV88/7WUwFmwcElA25iyggkejDhMazv7ea7MvfjZ+uECcde73/CA4jFFxZkNasuOnbtVN+f8gEEb5zdXP4ra3xGQ/60xHwc8c+B6VqMGUk6J8qVKvLs+f0aEBhQSIxEKHv8NQcHjMItnwfOzcuB9RTnymoAJ+PxO5GfO9bONluDp1fUxgeXGhLtuv0muaHWhiXrbF5UD8u/HBQJeBKNfG6T9bkwGV/Ag/a0x4zwxZfJhixfSmapr58wG+Fc72S9GO29q9+GnYdcL5fTu9rgWJ6ZM5HnkqV6eiIAIeXX4c+aw7iJy5yzClz2+9N0AB21bQF1/TSvdHWPncwVY6xuukNbXX6GzuP5RYDx8cI+AKQ7QJXPn/U95RYbqoopkWLrLB10OLw7opv1gzAXwy/2xzn28KRlwT2+M7C+5Vd60BLdrFJYDdBfbfiKwOvUdeMJqiuu9rZ45e54r98WOiSuf6/5Esm5ZdJd27fVCwC0PUNaxysqR3oRlyl+rk7IA2SGY4ElrO6P8YIIn1HNl30+k+5Fywffy3e07BYykxMAC/DAxAVZSsLMHZYBxjeqVTRY9GtNMPQE/vb5qPjLbGoc5uLqrgR0mPHDvbdLigpQHSJj8J3NLweOfNgWPwyxeBc989cuwe58hXm3x0nh9RD+vm8E7kA470RI8r730vDzTY6Dnc+K+9HHre9XEh3eoCRBNgL8L/F5ubtfBJEkwwQPn5rHKF+WrbwOtLN5Jx3dgUcDILDipRivAB+YLNWWACaGE3MeffysfffK1yaZf+uguQnBfTPcoa85ll1ygj9l/XLFytpoi4Anl7xMsYGQd2g4BkywOH9xT7+MP/CD+W7Jc5qkXRIN6NaWGcsR1g22pgHXInlQSefFZi0TwwD/tM+W7Y8LQgd2COl/DwRZdQSagWyut8yQ9qaw7cIw1wRUfJt21HLj83Rc7nO7hhO6GUcrv7Eflf2aCW45JxxQQb74zzkSVZS5w4sFotXOkz5V3Iz53IuWSTIgo37IWlgXQXBaOyP976GlP+F5+6QVyd7vW+jCO3XbPYyarYLCGPbO7OYAfS+gKq6ic4EP5r5m8p3JLweOfPgWPwyweBQ/8V57s0tezDqDKPbo8IvAlOBkhmoIHjoYvDHvdu+0+3R/X3RomAd1CsE6YMHJoH2UJKJii4DH50d2C+Yr+nP53AC9z3GyxREdnNfGg7YyLY3hBbNqy1WQLusWXqe1j8uCj3dVIky06L375v/fmiV+YdgHwY7F9kcqXK+39OnVfTG+9MjDoCCk4fA4Y8qpXrPsL2Dugdn6Y8Ju8rpxDEYIJFn0gxB/8iobVw/bxQb3sJTkiFTy2PxamDIA/UKiAFxpebAh2tx9GSA148bVQp3npWHLEWLJc8dxEdX089dh9Xl57B9aFNnd09JIgjPFsmmC/2NGNAvEeLGBAgXHGxY8SzDkVKrS98xGvW9IVPNFq50ifKwiSDz89IcZD3fNVqsuyccN63uFIucBJ+Xv1PJoA8Wx3sZp0bPF8o/4I+Jz2VpZhE2xmSGt709VyycXNA6xxJm+sbyl4/LcQBY/DLN4ED7oD4J9iXgKoLmYqDjWaxMERlWg0BQ/8PjCjs6nPWY3q6xmPzY3aX6CwOmAJDVhvUrLwmPPNFr+QZ6uhz3+pYfwz/podYEo3eeAbA6dv23n4LtWNE25ZD5zrigfcmxk+DzM7hsX7DfaLKdyLElMXYAoDEzABJCZ8DBbw4rUdZ2ERdH/xoj3QvuhGgFjE8OktqnspGIPUCh73JQXREyrY3RlwIH5EzUWFgKHw7Ts+q/fD/cGPAPwYQFi5aq3y3+nrZU9pJmhbuLqixn4uwwknu64pPQud1BIyRlC6gida7RzpczVx0lQZOeo9j1WonXa3XC9XX3GxdzhSLra1ECeHewZWqhnnzeAGDHbAFB0muBY0k47yaiuxC8ttnVrVQ4opkz8WthQ8/luBgsdhFk+CB34N+MK217e68drLpM1NVzm1Tt9oNAUP7tTtAnr71YHap8K9DpZ+gCBKjeBxiaC7BOsW/ayGAtvBnXjQr+CB1ebmdg97RaIbCt0YfkOkL6bR730qX393Yr4mP9fBL2X8YkbA5+QD1dU0Xo1wMy+XlMpKjeBx+aR0Dfs4HIsHPve0TkqN4HF9c55+4gHlRF7XvkTAPkbZYZ4rBFeA2C92zDSOaQPcAPHY+vYTXa+XqPXe7lPrvoUKdpu714tWO9vXCCekoyF4QnFB/eGfZVs3QzEJlv7J2JFeMn4o9eo3zOsW9w5YO2DZ8qJzVVf4tbodrUMxtUvB4785KHgcZvEieLapCdmeePq5gF/adn+2U+10jbpCJDUzLdu/mLdt3yH3deji3TMEHIQculDMsGV8OWOEBRwSoyF4zMUw2VnX3i+YqNgvVSTClL7/wAHveLAd/Oo0zpbuS+6C5k31kPNg54VLi/TFNGasGg1m+SmF6hYIdq3uz3TUQ6HxGcGs3n9ay4XY+WEFwggmjPSyX1KpEzyB1jlcJ9J7rlypgmctg8Vu2ox/7NsMul++bGlBVyGCOyoIvk7weQoVbCuEK0AiETzgavs02RaqYNccrLp2TRu414tGO+OakT5XmPwPDtcphfrKgpJfLRJrQiRckPfxp/sGjJSL9BnAuR++85LX9Ys4OE+aMk2+V3NI2RZBHLNDsaJF9ASnkSxjY593svYpePyTpuBxmMWD4Nm5c5eedM7ujrhITaL1oBqefSpCtAUP6tDr+WFqhtpFujoYDTNkQFfBl6cJN1zbSvfPIx5O8MD5dtmKE3PJFFez9hYqGHyiPVO2PbQfX7zuF6rJF+nW7sYop164oSaNDFdepC8mdzg5fJwwq7GfsFR1X2EOHhPAoI2a6K2hsn6UVTM5m1EvrmNtagQPrmHzCWcFMPcTra27FtuNahboNjdeGbJ4++WNl+XIob29vPaxcHWwfZBSehZs3yZX8ESjnXHzkT5XXkV97kTKxf0xE863yc8twOKzeOkKPS/SpMnTPV86U4Y9OtGkxcqWgsd/S1DwOMwyuuCB78STqhvLOD6ievhV+riaUdm8iJwqp3s0PQSP290AS4vxZ0CFbH+TcIIHlrD7OpwQSrYPRygw7q/Nj98bkSa2dnkQD++9OVTPh+NeH060v6lfpiZgBJIRK5G+mFxuqZmvxnUMH9K/q5RTc8m4YeTr7+nZgE16agXPI0/1FiyLgADrEdr2ZASIYSwjYoLrAGvSscXnDt2ZJrhLjkT6Yrfrimch1FxTuLd2955YOsUVPNFoZ9Ql0ufK1NvvNlIumBgUE4SaEGrpHHM8tdvJU2fIsBFve6e7zufegRjYoeDx3wgUPA6zjCx48ELsrBwZ4ahsAr54uzz1oK8XMn71wNSLSeqwtlJaQ3oIHrSTOy+HuU90F2GODhPCCR7ksS0IiGNOGayPFCxgKDZm3TUhGi9gDEmHX5IJoWaR/vDj8fLJF9+ZbGoenr6CpS0QIn0xwSfmlrse8ZykMdx8UN8uesI7r+DjO5jVFj5LEJNYowjzNsFB217DCS9ld7g5TseoJbzMbOfllARPKJ8VLCXxwcdfebf36EN3y7nnNPLiZgcjsWB5KqC6THDP557dMOSaaOaclLb20HzkDdUd23fgywHLQLj3GOmL3W1jTJ4IUeqGYSMDF7F1BU802hnXjPS5cu8v0nikXNzJRC9Sc+M8qObICRb6DR4pW7fukEqVykm92jW8ZwVdlL/89qesVk7NW7dtl4F9nwmYO8qUZVvZMO0D5nyKxUDB479VKHgcZhlV8ECk4Mve/BJGtTDPR7enO+iXlFNNL5olS5aAIZkz//lXBqphnRAJGEKMD3vRIoW8/KnZSQ/Bg/vAyx8vCDfA18SeJyclweOO3MBL/HY1muQCtXxFHtVdhgCn11/Vl+WHnwReL6VuDvfegsWxlMD9Hbt4IgR5sC4THJhz5syhT/lNrdA+XL3kTMAIsUHqC9sEPy+m19SaUBMmTjGn6hmLuzz1UMBzgDWj7IU97Xl44AszaOgo73xXBMBfBkLBXaPLFTwowHbyRtfkILVGGkQcfJuM2HZ9tnAe/Gmaqpm3jdUS3biDhr4e4EcSjXl43MV2ISzgDI/nC88JBB26jz5RcySZgM8NLBBmKQ2kR/pidydZxLl4FuBEi8kOIeowT4+7vIIreHBeWtsZZfh5rpDfb4iUC8rFrNH2DOAQ4GCDuiNAZL/34ZcBTvm236I7pQUmw+yjJvjEdyACvvuxPpk9OWuouXr0Caf4DwWP/wag4HGYZVTB43YfONUKGXVfnPZQV5wUjdmY00vw7Nq1R+5+oFNA3dxhqDiYkuDBnDGPd34u2RIBOBdfpomJRwPECNIR4Kcx6Pln0jybL8py/V2QhgDRCl8se6Qd0juq4db2Ipl+XkwQxw880jXA+oIy4RgOyxZ8V2z/Lxyz5zvCQpq3q5Xo7QDuWMUbU/wvXbYiKK9gggcLaE5Sy0y4wf0F7/qkID8EBxyT8aJbqSYHRDubkNJ8PSZfJNuBav6e6WpqAjvg2gULFAh4AZvjwYSWnxd7uFm/bYuZuR62wQRPWtsZ5fp5rpDfb/DDJdgSMLgefJ0wo/bylau96SqQDiZvKeFpfjTg+bjjvhNTWiAPAoQP8i5STtf2M4RjJ2OtQVwnNYGCxz81Ch6HWUYVPJiML9Tqv04VA6Ku4OnWe4gsWLTEy2P/QvISfe6kl+DBbdiTjCFuTzaHOEJKggd5MLJq4JDXPEdopIUL8J95vOM9Ab/iw+WP5Nj7alHEz1Q3Ukrh3jvbyKUtzwvI5vfFBEtg9z4vBhV5AQWrCCZngxO4HSJZxBE+L5iQzoRgggcO0F16Dkr2osEaSS8P6WVO1dt31XpaX349ISAtWATndu3cQbCNRoBwwHNmnOTDlRlqjis/L/bDh4/oBX7DXQ8Cs3mzxp5fSzDBg/tMazv7fa7CsQl2zA8XnA/r4pCX3kj2vLhlg0cnNUkkuvTtgGU5nuk+IMXzIWgf7XBP2FF5drmnYp+Cxz91Ch6HWUYVPG6fvlOtkFF3jSOIHYyIwJc8hnYPVl0MxjE2ZCEpHPhv8TL1Uhvs5XK7QLwDzs4ryunVzHtjD0u3s9lLZuBL6s2RA7xuKJPPHfodbGkJ5EXb44U6ZepfsnrtuqBfirgPLHAJy1d6BDibfqC66WwHbFwHdcMvWSzAaYa029e3X0zBrFx2XrMPny90xWAG22Bz6cAPBusmmeUrzHlmi5fPiFHvJrM+4bnBgq14cQ8d8ZbJLh+MHqZ/SXsJx3fQjTPwxVHJhh0HG/2GhU3HffZ1su4yFIXrYikRTFFgusPca6U2jmcD8zB99uUPyaxfKBPO7m1V90q1KhWDXsJ+sac03BwF4HoQlRDA+CzaAdfCPD7fqIVXx336jT4USvDgYFraOTXPlX2vKe375YLyIOI+UvW214Mz1wEHzOR8311tkn0PmDx43nD+ZNVN7Aacj+/EDve3S/P3nlt2tOMUPP6JUvA4zDKq4HGqkaYoBALm1SherIjnI5GmAjPoyfAXWLV6vXr5JOq1dYoVK6z8S9LmzxQpCnSzbVRfzHv27tc+VFg93PirRFpGpPlgAdu4aYtsPr4kBtrdT9vjXpctXy2JihOGpcPnKzX3iq6pNepllpA5QcDa9oFx64KuHfDBSvK5cuXQc+dgyY6TETChJ3gdOnRY8uXNLSVLFEu2xEi07gNtg9mr0cWIldThPG58TvxeI63t7Pd66Z0fI9XQDhiRitnC8ewVKHBijp+Urg+Rv3HTVs02QQ3OQHeun/NTKj+9j1Pw+CdMweMwo+BxgDBKAiRAAiQQcwQoePw3CQWPw4yCxwHCKAmQAAmQQMwRoODx3yQUPA4zCh4HCKMkQAIkQAIxR4CCx3+TUPA4zCh4HCCMkgAJkAAJxBwBCh7/TULB4zCj4HGAMEoCJEACJBBzBCh4/DcJBY/DjILHAcIoCZAACZBAzBGg4PHfJBQ8DjMKHgcIoyRAAiRAAjFHgILHf5NQ8DjMKHgcIIySAAmQAAnEHAEKHv9NQsHjMKPgcYAwSgIkQAIkEHMEKHj8NwkFj8OMgscBwigJkAAJkEDMEaDg8d8kFDwOMwoeBwijJEACJEACMUeAgsd/k1DwOMwoeBwgjJIACZAACcQcAQoe/01CweMwo+BxgDBKAiRAAiQQcwQoePw3CQWPw4yCxwHCKAmQAAmQQMwRoODx3yQUPA4zCh4HCKMkQAIkQAIxR4CCx3+TUPA4zCh4HCCMkgAJkAAJxBwBCh7/TULB4zCj4HGAMEoCJEACJBBzBCh4/DcJBY/DjILHAcIoCZAACZBAzBGg4PHfJBQ8DjMKHgcIoyRAAiRAAjFHgILHf5NQ8DjMKHgcIIySAAmQAAnEHAEKHv9NQsHjMKPgcYAwSgIkQAIkEHMEKHj8NwkFj8OMgscBwigJkAAJkEDMEaDg8d8kFDwOMwoeBwijJEACJEACMUeAgsd/k1DwOMwoeBwgjGYYAkeOHJHpf8327rdmjSpSsEB+2b//gPy3ZLksXrJCkKdkiWLSoH4tyZ8vr5c3pZ116zfJov+WysZNW+TI0aNSonhRqVSxnFSqUDbkqVu37dDnmAznNG2odw8fPiILVVlz5y2SwgULSJ3a1aR0qRImW9jtgQMHZfnK1bJ02SrZpsovWrSQupdiUq9ODUlIyBz2XHNw4aKlsmLVGtm0eavkUwwqli+j65E3bx6ThVsSiHkCFDz+m4iCx2FGweMAYTTDENi1a4/c/UAn7347PXa/3n9h+Oty9Giil252Lr6wmdx7VxslFBJMUrLtmrXrZcSod7VYSnZQJZQqWUza33Or1KpZNdnhKVP/kqEj3vLSPxk7UkaqsiZO+sNLMzs5cmSX53s+JeXKljJJAduDBw/Jy6++I39MnxWQbiK5cuWUu267US48/2yTlGw7Y+YceWP0hwIhFixce2VLufnGqyRr1izBDjONBGKKAAWP/+ag4HGYUfA4QBjNMARcwdPignPk51+nhr1/WGme7/mkZMmS/CU/e+4CeX7QiKBiyS30gf/dKi2UgLKDK3huuLaVfPrF93aWgP2sWbPKiwO6auuRfWDzlm3StdfgkELFznv/3W2lZYvmdpLe//yrH2TsR18mS3cTYBEb/kIPyZkjh3uIcRKIKQIUPP6bg4LHYUbB4wBhNMMQcAWPfePlypaWsmVKyqzZ82Tfvv32IblGWTZub3tdQNr2HTulfcdnA8QOuozq1akpOXPmEFhLDh8+HHDOoL7PSEWri8sVPCYzRAW623bv3qO7tUw6tlUqlZf+fTrbSfLWmI/l2x9+8dIKFyogZzVqIOVUfZYuXyU//fK7dww774waLLlz5/LS5vy7UHr3G+7FsYMuuTMb1JYdO3fLP3PmBzA5v3kTebj9HQH5GSGBWCNAweO/RSh4HGYUPA4QRjMMgWCCB109wwZ11748piLBhMjbrw4U24dl0IujZNpf/5hTpIkSGI92uNvr7klMTJT3x30lX4z/0csDPxxcy4Rg17nj1hvkqstbmCzal6Zz1/6esIKo+vCdlyRTpkxennse6Cw7d+3W8WpVK0nfHk8EHJ+/YLF0f+5FL/8D994msG4h4PN8d/tOsnvPXu94t6cflvp1a3px+DV17fWCLFm20kt7rvsTUqN6ZS/OHRKINQIUPP5bhILHYUbB4wBhNMMQCCZ4end7XGopa4obXF+a+1RX0CXHu4LgGHzbPY95p0A0vfZS32TdPPisPP70c7J6zXov7/DBPZRfT3EddwUPnJYff/geL6/Z+ezL77V4MnG7DPdeQpXx+58z9f1VrFAmQNwlE0NBut5wXVznfw89rbeIX37pBXJ3u9bYZSCBmCRAweO/WSh4HGYUPA4QRjMMAVfwBOseMpXByK3b//e4iUrDM+rIM08+qOPTZvwjg4aO8o7df88t0vKic724vTN/4RLp3meIl3RL66vl+mta6bgreNBNhO4iNyxZukKe7j7QS35MiaJmx0d0IbHtnY8EdJ+1velqueTi5pI3T27vnFA7cFL+fsJv3uGPxrwccjTXgCGv6q46ZIYTdu+uJ0SfVwB3SCBGCFDw+G8ICh6HGQWPA4TRDEPAFTwQKRAroUK7e5/wfFcqlCsjg/t10Vm/+vYnGTP2M++0AcqnprLyrQkW9h9QwumeE8LpItWV9KDqUkJwBQ/Kx3XcsG37DrmvQ9K1caxD+3ZyQfOmXrZRb30gP/482YubHQi62rWq6SHpdWpVDypk+vR/SeB8bQLOCRVWrl7nCSsM2X/zlQGhsjKdBE45AQoe/01AweMwo+BxgDCaYQi4guc25YiModahwjM9BnrDzeFI/PqIfjrr6Pc+la+/+9k7bezbQyV7tmxe3N1B9xe6hBDgGwMfGQRX8Iwc2keKFS2sj9l/UhI8KLtXv2Hevdrnmn2M8ILAu73ttcrPKKtJlsc69wnocvMORLCDYfQMJBCrBCh4/LcMBY/DjILHAcJohiHgCh67eylYJWwxgJFPr730vM425v3P5KtvfvJOeef1FyS38uMJFewuJ7trLFqCB9fF53LSlGny/Y+TApyL3XsqVrSIdpw2c+k8/nRfWbV6rZct0skJcYLrPO0Vwh0SiAECFDz+G4GCx2FGweMAYTTDEHAFTygHX1Ohm9t18EZH2f4+3/34q7z5zjiTTcKNWHKvCcdnOEAjRFPweDejdmDxWaz8fuYvXCyTJk9XMyZvsQ9L6xuukNbXX6HT+g4coYfiIwLn6zFKvDGQQDwQoODx34oUPA4zCh4HCKMZhoArPooULiSvDn8u6P2vWbtBHu3U2zvW7OxG8pgado4Anxf4vphwy83XyPVXX2qiAVssZTHwxde8tLtuv0muaHWhjqeX4PEudnxn8tQZMmzE215yzepVpE/3JL+i0e99orrnJnrH4JfjZ0kN70TukECMEaDg8d8gFDwOMwoeBwijGYaAK3hw4+1uvV6uvvzigDrgGXeHkz/16H3SpHEDnQ/LUMAvx0wsiG6gl4f0lqJFCgWUA0vLA490DZjj5o0R/aVAgXw6XzQEDyYN/OW3P2W1cijeum27DFSTG7r3gYvZfkSYYPHFAd30PbgjwGynap3B+tNv8EjZunWHVKpUTurVriHnntPIOspdEogtAhQ8/tuDgsdhRsHjAGE0wxAIJnhw87DcnNWovnbmxTINH3/2TcB6VnDyHfP64ABn37fGjFOzG//q1R0iouMDd3ozKW/YuFl1e32kuovme3nq1q4uPbo84sWjIXiwdtYLw173yqxapYL0UXMLmaUw8HmdqJbPeOWNsV4etyuvfceusmXrNu84Jj6Ef5NxbsbEg+99+GWAozbn4fFwcSdGCVDw+G8YCh6HGQWPA4TRDEMglOAxFcACnWY0lUnD1h0GjrSDhw7Jg49082Y4RhoC/GCyqnW3zMzHSamih4S/MqyvFCqY3yRFxYcH1qY77nsi2X1D+ECwYAV3d2HU/r07SZXKFbz7WLFyjTzZJckh20tUO1huA87YWH3d5oJy31JdX1hCg4EEYpUABY//lqHgcZhR8DhAGM0wBFzBc+VlLeS7H39JJgjsCoWzZMCK0633EMG6WuECBEJPZdmpXq1SQLZoWHhQ4LIVq+WZ7gPC1gP50PX2aId75OyzzkA0IGAyxSEvvZFiGahLp8fukzPq1w44nxESiDUCFDz+W4SCx2FGweMAYTTDEHAFT3u1jEIdNTFfv8GvyNp1GwLqgXl3bmtzbdCZj+2MmJF5nOoCw2zFxqfHHIfAOP/cJnLzjVcJhrW7wRU8mOcH13UDFhG9S613ZQKWn0C3lB0gvj769BuZ/Pt0O1nvQ6TA4tPh/nZB5/kxJ4ABypiqlqFwA8po3LCe3HdXG8kTwQzO7vmMk8DJJkDB4584BY/DjILHAcJohiEQTPBcfGEzff971OKZGMotkklKligqxYsVCViAM6VKHj16VCA6Nm3eJpkzZ9LCBeVAKJzMANG1cdNWbXVKyJxZr9tlnKQjvY+DBw+pMrYoJ+gdyhcoQcqWLuk5WkdaBvORwKkmQMHjvwUoeBxmFDwOEEYzDIFwgifDVII3SgIkEBEBCp6IMAVkouAJwJE0o6scU1v1H37V4h9GcWTOnE0K5Mvl5GaUBGKHAAVP7LQF74QE0psABY9/whQ8DjNaeBwgjGYYAhQ8GaapeKMkkGYCFDz+EVLwOMwoeBwgjGYYAhQ8GaapeKMkkGYCFDz+EVLwOMwoeBwgjGYYAq7g6fjgnXJes7MyzP3zRkmABCInQMETOSuTk4LHkDi+peBxgDBKAiRAAiQQcwQoePw3CQWPw4yCxwHCKAmQAAmQQMwRoODx3yQUPA4zCh4HCKMkQAIkQAIxR4CCx3+TUPA4zCh4HCCMkgAJkAAJxBwBCh7/TULB4zCj4HGAMEoCJEACJBBzBCh4/DcJBY/DjILHAcIoCZAACZBAzBGg4PHfJBQ8DjMKHgcIoyRAAiRAAjFHgILHf5NQ8DjMKHgcIIySAAmQAAnEHAEKHv9NQsHjMKPgcYAwSgIkQAIkEHMEKHj8NwkFj8OMgscBwigJkAAJkEDMEaDg8d8kFDwOMwoeBwijJEACJEACMUeAgsd/k1DwOMwoeBwgjJIACZAACcQcAQoe/01CweMwo+BxgDBKAiRAAiQQcwQoePw3CQWPw4yCxwHCKAmQAAmQQMwRoODx3yQUPA4zCh4HCKMkQAIkQAIxR4CCx3+TUPA4zCh4HCCMkgAJkAAJxBwBCh7/TULB4zALJ3iyZklwcjNKAiRAAiRAAiefwOEjRyUx8ZBkyZJFEhIS9L9Mkkn0/5nUliEZAQoeB0kowZM/T179IDnZGSUBEiABEiCBk0/gmMjOPbspeHyQp+BxYIUSPMULF5LMmamaHVyMkgAJkAAJnAICiYmJsnHrdgoeH+wpeBxYFDwOEEZJgARIgARijgAFj/8moeBxmFHwOEAYJQESIAESiDkCFDz+m4SCx2FGweMAYZQESIAESCDmCFDw+G8SCh6HGQWPA4RREiABEiCBmCOQmHhM+fBsow+Pj5ah4HFgUfA4QBglARIgARKIOQIUPP6bhILHYUbB4wBhlARIgARIIOYIUPD4bxIKHocZBY8DhFESIAESIIGYI0DB479JKHgcZhQ8DhBGSYAESIAEYo4ABY//JqHgcZhR8DhAGCUBEiABEog5AhQ8/puEgsdhRsHjAGGUBEiABEgg5ghQ8PhvEgoeh1l6C579Bw7KFjUd+M49eyVfntxSrEghyZE9m3MXkUUPHTosy1etkSoVy+mF4yI7i7lIgARIgAQyOgEKHv8tSMHjMEsvwbN1+w75c+ZcWbhkuVrhVq36djxkzZpFmjc5UxrWq2mSItquWb9R+gx6WY6q9VRQxsAenSSvElCRhM1btsmK1Wu9rNUqV5D8+dTiqAwkQAIkcBoQ2LRpk6xdu1aKFy8upUqVypA1puDx32wUPA6z9BA8a9Zvkk+/niCHDh9xrnYi2qL5WXJm3chFz7vjvpRJU6d7Bdxw1aVyWYvzvHi4nY8+/0YmTJrqZXn43tulfu0aXpw7JEACJBDPBKZMmSJHjx7VVWzevLlaGDpzmqqLWY+PHDkimTJlUj9As6aprEhPpuCJlNSJfBQ8J1jovWgLHlfs5M2TS1lzaknZUiVk/uJlMnveIvVBOaqtNA/e0VqyZYvswzJn3kIZ/vq73t13feJBqVC2tBcPt0PBE44Oj5EACcQ7gWXLlsnq1au1hadGjbT/2IO1aMmSJVKgQAGpX7/+ScFHweMfMwWPwyyagscVO7jUtZddKFWVz40JP0+eJn/PXaijba+7TMqULGYOpbhd8N9SmTN/kTRuUFcqVSibYn6TgYLHkOCWBEjgdCWA73pYZKIR1qxZI0uXLqXgiQbMdCyDgseBGy3BA6vNa+9+Ivv2H/CukD1bNnn4njYBH7J1GzbL2M++1Xmuanme1Kha0csfbueIMscetrrI4Pgc6sO7YdMWtd5KghQpVFAXScETjiyPkQAJxDsBdEEZwWN3Z5n0hIQED8GhQ4d091fOnDm9NLODMnAOBM+KFSskT5480qBBA30Y5Yb6Tjbnp2VLC49/ehQ8DrNoCZ5Z/y6Sn377U5eOB79apXLaqbh50zMlweov/uOvOTJl+iydr91NV0rxooWdOwoe/fK7n2X8DxO9g/ff0UYan1HXix88eEjGfvKVzPp3gew/Lrrg3Hz3LTfKshWr6MPjkeIOCZDA6UYA1hiIlBIlSkj16tW96v/111+yd+9eqVevnvre3K/zYIsAEVSyZEmpVKmSJ2Q2btwoCxcmWei9Qo7vVK5cWcqUKeMmRy1OweMfJQWPwyxagufDL3+Q1Ws36A/G3W2vkUIF8ntXgnUGyn/x0pUy8fcZsnfffuU0l0keufdWyWL9svBOCLLjCp57br1Rzm58hs6JOgx86Q1ZvGxFkDNFDYUvLJu2bPWO0WnZQ8EdEiCB04BASoKnSJEismXLFk0CTsiHDx/2qGBUV9WqVXV869at2nfnwIETlvwcOXLoY+XKldMCyTsxyjsUPP6BUvA4zKIleEaOHqeFTOUKZeT6y1sEXGXilOkyZ8HigC6p+rWrySXnnx2QL1wknOB5/5PxMnFKknUpXBnmGAWPIcEtCZDA6UAgJcEDBkWLFtXCBoIHI7oWLVokmzdv1niaNm0q2bNn91DRh8dDEdM7FDxO80RL8Ax/8wNBt1L5MiWl9dWXBFzl8+8mypLlq700dDXde+v1kjtX8j5iL5OzE07wPNS5l762OQVdXW2vv1Jbld7/dLzMmDXXHNJbCp4AHIyQAAnEOYGUBE+uXLmkUaNGXtcVcOzbt09mzJihydSpU0cKFz7hfkDBkzEeGAoep52iJXje//w7Wavm30G49YbLpVTxonp/05btMubj8dphTieoPxA6t15/uZr8L49J0hMK/j1ngdStWUXNxHzil4TJEErw7Nq9Rx7v1s9kkzy5c8mgnp31sHckYq6IJ3sMkD1793l5KHg8FNwhARI4DQikJHjKli2rfXVcFBA8ED4VK1YUdFmZQMFjSMT2loLHaZ9oCZ7Z8/+TH3/9wyu9bOkSkln57axcs95Ls3fy5c0tba5p5Ymeb3+eIvMWLdVLT9x0VUvJlTOpX9icE0rwYJj68FFjTDZpWL+2PHDXLV4cOyPfGit/z5nvpVHweCi4QwIkcBoQSEnwVKtWLaj/zYIFCwSzNJcvX14qVKjgkaLg8VDE9A4Fj9M80RI8KPaL736RxctXOVdIihYqmF/q16omv0//R83AnOQQZ4ueP2fOkcnTkkZvFSlUQG6+5tIA0RNK8Pz46+8y7oukYe640iUXniutr7ks4B5wHPlMoOAxJLglARI4HQikJHgwGSGWnXADBY9LJGPFKXic9oqm4EHRc+Yv1jMqb922Q7KrWZSLFC4olcqVljo1quqRWWs3bJJPxv8UVPTYggmip821rSRnjqTurVCCx7XwnKlmdX7w7lsDajnizbEyay4tPAFQGCEBEjhtCFDwnDZNHVBRCp4AHJLkW6PW9jym/oNnPv7B76V44UJaoDjZoxINJnoa1Kkhk//8W8/Zg2HsCGVKFpe217XS+6EEj+vDk1N1hQ3u1VmJraQV2Q+qSbTgw2Pm5kFhtPBopPxDAiRwmhCg4DlNGtqpJgWPAyTaFh6n+JBRV/QgI0RK66tbytIVa2TqX7MFkxY2PTNpcsFQggfnPfBUj4Ah77Dy3HLDVTikJiMcH2DdQRoFDygwkAAJnC4Eoi14zFpaGN3VuHHjk4KR8/D4x0zB4zA7VYIHt+GKnrx5cktb1Y2F0VvbduwMmLwwnOD5SPnoTLB8dJwqJotS8CRDwgQSIIE4JhBtwbN9+3aZM2eOJla3bl29phYi9rIV0cZJweOfKAWPw+xUCh7ciit6bEdm+1bDCR7UYfCIN2XRkuX2Kd4+usbWrN/oxSl4PBTcIQESOA0IRFvwYD2tqVOnahcIg69KlSpSunRpE436loLHP1IKHofZqRY8uJ2gogeWnrwn5un5ZsKv8vk3E7y7t5eWQCImPfzw829095WZcwcTHN7V9gbZuHmLQDCZQMFjSHBLAiRwOhBYtmyZrF69WuxlIlDvmTNnyp49e6RmzZpSrFixZCjMKC0MScfQdDtgzS2sq7Vr1y6djFFeGO2VXoGCxz9ZCh6HWSwIHtySK3qqVy4vV196gXO3kUXRHYZgr+cV2ZnMRQIkQAIk4IcABrpg7a1sygeTXVp+yKV/Xgoeh3GsCB7cli16mp3VQM5pVN+5W0ZJgARIgARORwK08PhvdQoeh1ksCR7c2u49+2T7zp1SrnRJ504ZJQESIAESOF0JUPD4b3kKHodZrAke5/YYJQESIAESIAGh4PH/EFDwOMwoeBwgjJIACZAACcQcAQoe/01CweMwo+BxgDBKAiRAAiQQcwQoePw3CQWPw4yCxwHCKAmQAAmQQMwRoODx3yQUPA4zCh4HCKMkQAIkQAIxR4CCx3+TUPA4zCh4HCCMkgAJkAAJxBwBCh7/TULB4zCj4HGAMEoCJEACJBBzBCh4/DcJBY/DjILHAcIoCZAACZBAzBGg4PHfJBQ8DjMKHgcIoyRAAiRAAjFHgILHf5NQ8DjMKHgcIIySAAmQAAnEHAEKHv9NQsHjMKPgcYAwSgIkQAIkEHMEKHj8NwkFj8OMgscBwigJkAAJkEDMEaDg8d8kFDwOMwoeBwijJEACJEACMUeAgsd/k1DwOMwoeBwgjJIACZAACcQcAQoe/01CweMwo+BxgDBKAiRAAiQQcwQoePw3CQWPw4yCxwHCKAmQAAmQQMwRoODx3yQUPA4zCh4HCKMkQAIkQAIxR4CCx3+TUPA4zCh4HCCMkgAJkAAJxBwBCh7/TULB4zCj4HGAMEoCJEACJBBzBCh4/DcJBY/DjILHAcIoCZAACZBAzBGg4PHfJJne/XTisVCn5cqVQ3LlzK7/Va9SVm9D5Y2XdAqeeGlJ1oMESIAE4pcABY//ts303a8zQwoeFLdl605dKsRP2dJFpYYSPvEcKHjiuXVZNxIgARKIDwIUPP7bMcUurX37ItYlsgAAHWtJREFUDwr+zZq7RPbtOyDlyhSTM+pW8X+lDHLGyRY8eGgzZ86UQejwNkmABEiABGKBAAWP/1ZIUfCYIo3ogcXnjHpVpFzpYuZQXG1PtuB5Z9x4KVOymLRo3iSuOLIyJEACJEAC6UeAgsc/24gFD4qG6Jnw60xB91azs2rHpU/PyRA8GzZtkYSEBClauKAMfX2sEjzF5cYrL5aVa9ZLwQL5JF+e3P5bkmeQAAmQAAmcNgQoePw3tS/Bg+JXrd0ks+YsiVsrz8kQPGM+/lq279glt1x/mYz97FsteGpWrSjf/jxFGtarKRede5b/lswgZ8xbuFgJ5wNSoWxpKVqkUMR3PWnqdPnu59/kvLMby+UXn6/PO3LkiOpqXaD369WqLtmzZ9P7u3bvkUVLlkvOHNmlTs1qIa9x8NAh+XfBfwIBinOKFSkspUoUk6qVK0gWJUhPZjh06LDMnrdQX7J+7RqSLVvWk3l5XosESCAVBA6p75Ddu3fL3r17JUeOHJI3b17JmTNnKkryfwoFj39mvgWPsfJUr1o2Lh2Y00PwHD16VLZs2yHFixbWLbRm/UYZ99UE/ULGyz9XzhxaBOTJnVNuu+EKyZ0rp+A+NmzeKiWLFfHfqjF8xlM9Byqxt1NuvvZyaXlBs4jv9P7Hu8nRxESdf8TAHpI9WzYtUh7v1k+nPdflMSlxnNWfM2fLG++O0wJoxIAeya4Btp9/M0F+mDjZK9POlFO1R+trLpNzmzSUTJlOjn/Vtu07pFOvQfo2BvR4SgoXLGDfEvdJ4LQggB8xiepzDgs4/p3KADGDkE191wQLK1eulBUrViQ7VKBAAalTp0663z8FTzL0KSakWvAUKZxfd2uleIUMliE9BM+Cxcvl6wm/SZtrW0nZUsU1kYUqbbxKMwHWiVuVxce86P6cOUcmT5sl7dvdKHnjqIsrtYJn9AefyZRpM6V2jaryWPs7NTZYZfwKHlh1hr76jixetsKgl4TMmaVM6ZJaQEGMmXDhuU3k1huvNtF03VLwpCteFp5BCPz777+ydetWqVixopQrV+6U3TWsNn///be+/nnnnZfsh8/SpUtlzZo1+nj+/PkFImf//v2yadMmnZYvXz5p0KBBsvOiWSEKHv80fQseXOLL76ZqP56W55/p/4oxfka0BM/efftl+qx5UqdGZTUKK7O89cEXUq9WNbn0grM9AtNm/Su//TFT/RLIrHx4WipH8BLesTdV/gMHDsqDd7aWZSvXyPpNW6VZ4/rp+gHyLp6OO6kVPLilI8pSZnc1pUbwGOGE8iqVLys3XdNKKlcop9sIaWvWbZC33v9UVq1Zh6gSPFfJhec21fvp+YeCJz3psuyMQiAjCB5YoCZPnqyRli5dWqpUOTFqedu2bTJ37lx97Mwzz9RdXOnFnoLHP1kKHodZtATPeuUXMvbTb3XpdWtW1aIFXVsP3nlzwDD0oaOU07Ky+sBp2YTNW7fL6I++UvMelZDMqksFzszwR7n/9hsla9YsurvrwMEkc2t25esBQWUHXOfQ4SM6Cee5AVYOfFiyqbKCmY0hLLaoezhw8KAUzJ9P8ufLG1AEGIW7vsl8UN1josprXyeY4NmqunP27N2nnLgL6e49c769Pazqg/uCNcb4t/gVPMtWrJbnh76qi4W/To9OHXTXmH0d7ONafYeMFHQ95smdS4b2fdbNouPgAIvQTmVpAiOwiqQLDGZ7tPF+1Z1ZWrU9uuciFTxok81btkuWLAm6i9Rt+6A3ykQSiHEC+CxBSEAs7Ny5U8qWLSvly5fXdx3sOwoHcM5B9XnAefCfCfZZMOUif7Bygh3H9ycsPLNnz8Zp0qxZM/25xmcb17BFTZMmTfS1dcbjf/766y/t01OpUiVdD/tYNPcpePzTpOBxmOEDIPr/Y4IHH//wgiquXsZ+58vZpF5ME6dMk9XrNnpXgbCpWK60F7dHaZnEydP+lj9nJv1KwIesTo0q0rzJGdq3B3nwQn7gqSTflLbXXyktzjthNcLxd8d9KXDyRejf7UkpokaD2eHRZ/tqgXGJ8qFprXxpTMAL/pOvvteOvCYNW4iDtjdcKXWPOwCDx0Odemn/l0suPFf7u9j5sQ9x8tBTPXWeVi3OkxuvulRnsQUPuvE++OxrXR9zftVKFeSeW29Mds9vvvex/PHXPwKH3ofvvV1n9yt4TBkQjeDiCjlzD9jC6XnQy2/opE4P3yvVlCOzHb77aZLqpvxVfeEmCU8cQ32ubnWRXHphczurt48v5rGfjJcpf/4V4DvUpGF9ueayFtLluSE6bzAfHjhWvzvuC31fXoFq58x6teT21tfGVbenXT/unx4EFi1aJBs2bAhaWddSgs8RfGdWr14dkL9gwYLa2pIrVy4vff369fLff//puFsOEpctW+aVc/bZZ2vxNG3aNO98e6dw4cLaN+fw4cNaaOG7OXfu5CNq//nnHy3aINgqVKhgFxHVfQoe/zhTJXgmTErq22SXVnjgy1etlXUbN8s//y7STsnIXTB/Xj3njhE9tuDBA/zPvEXKV2WWwAqDgKHrtatX1t1dxukZ6XgZ46VcvUpFearD/5DkhSe695edu3bruCuI8OLs+vyL+hjOw/kI6MrpOfAlvW/+wJpiHIWRZud/7Z0PZcasuSEtIH/PmScj33pfF9X76Uf06CddxnGnZYyGWrchqb9bZ7L+QIjACdm2ThmxkhbBA5EIsdiwfh154K621hWD785VI7iOqS/XCuXKSL68ebxMX30/Ub76/mcv7nK67oqWckXLC7zjZgeO1HCoNsE+z+bhCh4Iu2dVm8EiFCxAwD3f9QltYQp2nGkkEOsEli9frv1fDhw48YzDaoNQu3ZtyZPnxOdv/vz5snnzZq9KsNzgh6kJ9evX1z41iOMH7KxZs7TFBn41Z5xxhsmmJtLdJzNmzNDxqlWrSqlSpQSOyshv30f27Nm1hQd+OtWrV/fOD7aD0Vqw8CDUrFlTihVLv/nqKHiCtUD4tFQJnt+nz9NLTjRrUkeKFMoX/goZ7Gi0LDxLV6yRz75NeinCDFqkUAEpVDC/LFXdKnjpVlJWngvPbSwYoo55eBrVryW//D5Dj+aCk3LpEkVloxqltX1nknABxofvaSs5jg+9/kVZjsZ+8pXu4hk5qKdnrt2mulg6KVFhQs1qleWJB+82UfleDe3+ZPwPumsMI5hwb/iywAghiCS8hO+57SapV1sN81ZdLRBVr47+QFuEalStJE8+dI8ua+HiZTJ4xJt6/9nHH1BWqzLeNbAzfNQYmTN/kbYOPd/1ce+YsfAgARaR9ne0kZrVq6gvmsNquoN58rZyTkaAf80zj97vdRGlVfCgywyWLQRYtWDdSk2YOn2W8vH5RJ/aVFlmWqkh8mg/CMZvJvyqRSAO3nt7a4HlxoQffpksH3/5vY7CGfqSC87Vw/LhKwSrz9IVq0xWsQUPnpWeg16SjUqoYvTYfe1ulpqqHRDA97XRH2pRGkz4egVyhwQyCIGUfHggjFatSvqsQFAUKlRIde9m0V1ICxYs0FsIlMaNG3vfibYIqVGjhhQvnjRwBN1n6J4K5mCcktNyMJw4B2XCAuTeQ7D8aU2j4PFPMFWCxwxNN+trFSmUP24mIdSCR3HE1u7SqlimpK8uLXTpLF2+WnWb5NFWGtN/jBfvJOWoPP+/ZVpswDxrfqHAL+OsM+rof1nVhxgBlp6Nm7fpbrVK5U+ICogTWHIQIGggbBCMEILvCa4FAfPK4F76Wjjeb+hr+uWKrpAH774VSbquEDaTVVfLOY3P0COh9IHjfzCEGy9zCBQzzBt8OnZ5TlsdLmh2ltx20zXeKbhndHkhuOLCFjwQTxBRdpg4+U95/9PxOqln545aTCCSVsGD7rqeA4brcjt3vE+qVkryD9AJPv4Y61lZNaqr+5MPeYIMRaAtYSWD5aqQGlY+UA0vN+HhZ/poVsGEyT7l4N65z2DPgmMLnul/z5FRYz7S7dj9qQ5SWokrO2Dunpdef1cn2ZY0Ow/3SSCjEAgneNCV/vvvv+uqwOpTpEjglB2wzkyfPl1/b8MSU6JECa/a6ALDMPKsWbMK/G527NghuBYCxJHdDYY0v4LH7jrDNerWrZuuDsu4RwoeUPAXUiV4cImFS1bLosWBfaj+Lh2buW3BgxfYsWNHJfFIotzR5tKAEUJpvfvlq9bJ59/9rD6cSXPLwKrTVg1bh0CKNKCbA7/8L2reVG654Sp92ouvjhZM7gefmfE//qJ9TIwPiu37A0vBWWfWi+hSP/4yRcZ9+Z3OC8ED4YOANBxD/OX+3b2X/x8zZsmbY5OsIHD4hfgywQie8mriwW5PPGiSA7bGx+iONtdJ86aN9LG0Cp7Fy1bKgOGjdFkQIhAkfgP8dR7qnCTkuqp7x+SJbrAdo0cO7KkdrG3rUi8l4lzRgjIwqeKnyvKGYAseiD+IwMZn1JX7lTUsWDBddX7aNFg5TCOBU00gnOCBSIEjMSb2O+us4JOzLly4UDZu3KidheE0bAK+y9F9ha4qjKzC0Hfsw8fGOEebvNj6ETx2XnS9YQ4eWHjSO1Dw+CecasGDS8HSs2XbTr31f+nYPMMVPMbKc24jTCSV2ddNY0RNjiAP/tyFS5Q15W/B0HU7FFMzD2OWZTNXjzkGP5qjR456o5NM+hff/iRfK1FTsEB+GdSzk7YwPPBkD93FAR8Y+JnAQmAci9EFgq4mBFu4mPJQd3RV4d/qtetl45atevQQhJIJLylhY3xrQvkDGf8itzsNZRjBAyEDQRMsmPPtPGkVPJtUXYxTMJye4QvkN9jdeK+90Nszmdvl4Fdoe9UGCEZoYjbnoa+9o9NGDenjWdt0wvE/dh5b8PQePMIbIg+H7mBhmeoOwzMCvyH4DzGQQEYlEE7wwEkZTsYIRYsWDVrFPXv2KEvpfjEOxnYmI5hMGqw6jRo18n6omXRsbRETbB4eO6/xKToZ3Vj2dSl4bBqR7adJ8ER2iYyVSwueKIzSwlDycV/9qEUKnI1LqH+FlDCZrUTHBjWnDmZXxsiriVNmqOHFhfSv/r9mz08yx1ZWvzrKltQ+PMi7Zdt2BTGTPHRX64Bh1Laj8aBenfVQclgxzFBqOBXDubi4moG4rxJA73z4ue62gn9Ml8faBzQMLBMvvjba61axD9rOtbbgQZ5u/YbKeuWYfXajBtr3B90z6OpCgGMwHITtYATP1a1a6BFN9jGzb+bKwfw48ONBSKvgsbvZUisMfpo0VT78/BvtS/NSv27mdpNtYQWCNcjM4TNBnfdRCudtUAy7KpYItuAx1ptkFwmSgO7Iu9UINwYSyKgEwgmecCO53Ppi9BTEjBvMkHGku91edl4/ggeWIzhAV65cWcqUOeF2YJeXHvsUPP6pUvA4zKIlePDC+0PNlrx+4xYtXA6rX/4IsBKdWbemnNOovhZD9iitHcov59epf6lZgFd5dwVrCpaXKKd8iBo3qO2lmx3jG3J762tk05ZtermEZmpJhLvaXi/71cSFDz/dW2dF1xLEye49e+Xm666QluefY4rQI8geUw69ZkQWxAt8a0opf5HiRYvIViW4eg16Wed3BY8RARgpBKsR/IAwLB5xdHMZ3yVzMSN4zD2adHs7YPjreiZkLO1wp6oHQloFD8ow1w5mecJxO8Cq9c6Hn2GGAoGPEqwr6CpElyFCKEsNfLfaP9Fd5zE+Srb1JtR5c5UQHnbc+mYLHiMoMVLsGjXkPVwoXKigNxouXD4eI4FYJRBO8NhLOWAkVriA7x2sa2UHe/4cpGMUGPx3gs3f40fwTJo0SV8Gfjtwoj5ZgYLHP2kKHodZtAQPij2iuqGm//Ov6lb6V4zgaXVRM6mr5tUxwRY8Ju37ib8Lur0Q8ubJJec1bSi1qlUyhwO2xmqDJRdgCYJPT4d7bpMGSlQhQKigewoWFTOUeqDq/oK1yYR/1AKcL7/5no7CEbdcmVLmkN7ax13Bg265R45bdDre105dY6KsWLVGr0NlxIpdmBEduAauFSwYERdNHx5cxzhfY//R++8Iu7AohBvYIvTvruYyUmIC6551VM7HCLZDtU44/melGnXVR3VDIZhuQ9uHp2enh9VEkyecKY+fpp3CcX8ItuAx7YtFUHHPDCQQzwTCCR4jWOAUfM45J36wRcIDrgmwxGCiQszXs2vXLm1Nx/IVWMbCDX4ED0aBIcC3KJh4csuOVpyCxz9JCh6HWbQEz85de+TDL76XXcqiguHosPhgdmK3WyqY4DHdYZiDZ7caaYUlJuDXc9PVl+jROvYt21YHk24W10TcnTMGkxBi0j07YJJCWGUQjKOtfdzMuYM0V/AgbcjIt9WosyV6iQYzvDqUU68RPDjvcTW6rNbx0WWIIxiLEfZtcRANCw9GtmHIPixZ6KbrpkY9YUi5GzDKqs8LI/T0ARiN1UPlM+Gxrs9rK5nd3WaO4dnp++KrWvAZvypzzIi4KhXLy9OP3GeS9TbcKC0zDB73G2yUFqx4L7/xrqDc85UlyhayARdhhAQyAIF589SUJ1u26K4hdBHZAaOw/vjjD50UbJQWDmCNK1h3MILLnrvHrH2FY3B4hnhCFxlCw4YNA/IiDb5AM2fOxK4WVxBZoQI+92a0bag86ZFOweOfKgWPwyxaggero3/z02RtzalWuby8OuYTqayGlV93+YluCQibj8dP0P48t994pbbm4HZwDyNHj9POwbdcf7lMnfGP9vtpfc0lyUaK4ZfLg08lzWiMc9H10VXNi2MCrDumOwpp9qzHJg+WkXhaDYtGgIPztZddrLvbINK+VI7PGIllQjDBY08yiHzuy96ci60teDC6C9YoDNWGBQyWpNfV5HwIsABhFJdZqiEaggfl/q4WIDVz/aDbDd1mcGBGl9UO9asPAgNzFRlR1EWxLG9ZvH79fbq893GSOERXF3jC+gOG36rZl3/7I2kiM9s6hevCuRxO5giYGRvnYSkKiCuITXsxU9vCA6sSurUg1sDrkfvuUOImae0vpGFyRyMy+z77mO6C1BfhHxLIgATM8HE4ANerV0+PdrK7xW0/nlq1amnnZFhV8J2J+XlwPgKOGcdm21pjJhhEHjMjMoQRZmE23zU4hu/VKVOSvvcwksv45tj3gnwQYVhkFJaj9J5oENezAwWPTSOyfQoeh1O0BI9drFkt/cqW56lJ45LMpxBE73/2XcCMyrdcd5k3EmvCb3/qGZrbt7vJE0J2mfa+meQPaTdceYlcpibDs4NxokVaKMuLPRoI+cw8PtgP57SM4/hy6KB8hcxoLgimKy+9EIeSBSN44Di9bOVqfdwuHwm4NkaZ2cPZoyV4UL491w/ioUJHNZqrXpDRXGY4vjkPwsnUHWmXK/7Xq3Zww8i3xsrfc+Z7yfZ5sBgZ4WILHmTGOlvd+g/TVkLEwQuTEKKrzITUOmKb87klgVggYIsTcz+2BQbfz7ACYVi5CRhtBadhE+wRWsgPSw26neDTg5mWjbCxJyQMtu6V6V4z5cJqBMuSHTAEHkPhETATc0q+Rfa5ad2n4PFPkILHYZYeggcvJoiehvVq6j5exN9TC4vuU8Mn8dDCkRn+PuWVYzLW2sIvFvyyn7tgsXJUrqPimZy7DIza8970eeZRKVk8cMim6ZKChQB+JcEChlNjgjv7hYx8sL7gBW6cdYNZeJAPVhNYTxAGqxFjBZT1IliAJQnWEMwZA/+fD9VaWsZZGvnRhXS/OlbCqYMZuWVPmGj7xvRTSysUVcP6EbB8A5ZxCFffFavXynjlb4SJ++wAMYEZkm9Q8xiFW2sL/jbGEmTOh4C59KLm2kJm0uwtHJrfViuxT7OWl8BxjGRrd/O1ni+UK3iQZ62aOBGM4R9lB4hCnHtmvcAvYjsP90kgIxFAdxPWv4LVBMEdTYUfWMvVjMtr164NqBasL/DHwRIRRtSsW7dOFi9erPPZwsmciHLMzM1NmzYNmD8H18G5EDUIwXyHbAtPtWrVpGTJkqbodN9S8PhHTMHjMEsPweNcQg9XR3fWFRc3lx8n/aH9SPLnzaPX0WrWuIGa7Tj8CAS3vGjG8VJetXqdEiFHlXAqFmBlCXedV95+X2bOnqeXhHCHvIc7D33fcPSFhQTzEIUSSuHKSMsxXH+rsrbtUn32WK3dXjMrpXLBapNa/gPCCxNHQnBlUV+6KQX43WzYtFkL29JqTTFMjR9pwLU2b92ms2MEHaY3YCCBeCQAMYHv41CT+OGzi8kDIUww4iqcn01a+OAeIL5QvtulhXJxnD48aSF88s6l4HFYnwzBM0stJppFWXXq1qwqxmn5hitayGS1aCisPPiXkcLGzVvk2b4v6lvGSudnq/lgGEiABEiABNKPAC08/tlS8DjMTobgsS8J52SMFLr60kC/GztPrO6jK+3gocMy/oeJ2qkWVo4Xej+tLRexes+8LxIgARKIBwIUPP5bkYLHYXayBQ+clzG5YO5cOZ07ie0ols3o0DlpUkNzp4+1vzPZwqPmGLckQAIkQALRI0DB458lBY/D7GQLHufyGSaKbqxRY8bp/mv4ocBZN9iEehmmQrxREiABEshABCh4/DcWBY/DjILHAcIoCZAACZBAzBGg4PHfJBQ8DjMKHgcIoyRAAiRAAjFHgILHf5NQ8DjMKHgcIIySAAmQAAnEHAEKHv9NQsHjMKPgcYAwSgIkQAIkEHMEKHj8NwkFj8OMgscBwigJkAAJkEDMEaDg8d8kFDwOMwoeBwijJEACJEACMUeAgsd/k1DwOMwoeBwgjJIACZAACcQcAQoe/01CweMwo+BxgDBKAiRAAiQQcwQoePw3CQWPw4yCxwHCKAmQAAmQQMwRoODx3yQUPA4zCh4HCKMkQAIkQAIxR4CCx3+TUPA4zCh4HCCMkgAJkAAJxBwBCh7/TULB4zCj4HGAMEoCJEACJBBzBCh4/DcJBY/DjILHAcIoCZAACZBAzBGg4PHfJBQ8DjMKHgcIoyRAAiRAAjFHgILHf5NQ8DjMKHgcIIySAAmQAAnEHAEKHv9NQsHjMKPgcYAwSgIkQAIkEHMEKHj8NwkFj8OMgscBwigJkAAJkEDMEaDg8d8kFDwOMwoeBwijJEACJEACMUeAgsd/k1DwOMwoeBwgjJIACZAACcQcAQoe/01CweMwo+BxgDBKAiRAAiQQcwQoePw3CQWPw4yCxwHCKAmQAAmQQMwRoODx3yQUPA4zCh4HCKMkQAIkQAIxR4CCx3+TUPA4zCh4HCCMkgAJkAAJxBwBCh7/TULB4zCj4HGA+IjOnb9IDhw8JJUqlJXCBQv4ODO6Wcd89IUsWrpc2lx3hdStWS26hbM0EiCBDE9g06ZNsnbtWilevLiUKlUqQ9aHgsd/s1HwOMwoeBwgPqKPPttX9uzdJ3e0uU6aN23k48zoZV29dr30GvSyLrBk8aLS55lH01z43n37lZA7KDlz5JBcOXOkuTwWQAIkcGoJTJkyRY4ePapvonnz5pI5c+Y03VBiYqIcOXJEMmXKJFmzZk1TWZGeTMETKakT+Sh4TrDQexQ8DhAf0VgQPPgS69ZvmGzaslVuuOpSuazFeT5qEDzrc0NekRWr1sglFzST1tdeHjwTU0mABDIMgWXLlsnq1au1hadGjRppvm9Yi5YsWSIFChSQ+vXrp7m8SAqg4ImEUmAeCp5AHkLB4wDxEY0FwWNu94gSPlkSEkw0TVsKnjTh48kkEJME8F0Pi0w0wpo1a2Tp0qUUPNGAmY5lUPA4cDOq4MELfsvW7XLo0CEpUayoZMsW3KwK0+vBQ4e1GMiaNYuuPc5du36jFC9aWHJkz+4QSR4Fo207dsqOnbukaOFCki9vHp0pmOBBXvj1ZFZfLNmzZ9P5kLZuwyb9ZVOsSCHJkiXpPpJf6UQKztmurrlz9x7Jny+vFMyfL+SX1UF1vUSVP5uqX8Jx0ZOaesNEffjIUXluyEjZuGmLnNukodys/IIQcqi6ROvL8kQtuUcCJHAyCOD7AN8p+Azb3Vkm3Xxv4F7wnQrLcc6cOZPdGsrAORA8K1askDx58kiDBg10PpSbnt8RtPAka44UE/4PAAD//9Z+mU4AAEAASURBVO2dB2AURRuGP2roBBIIndB7FRBRwF5RUWyoWMEuikoRkCIgUhSxYv3tBbFgQ7ErBqX3TgiEmkIgQAjVf94Js2wml7Lh0L34jpLd2d3Z8gxcnpv5ZrZQalr638LkEPj7b4VD//+3HDlyRP85fPiwREVUlMKFCznH+WXlwIGD8t4nX0rMnAWZbqlG1Si57YarpFaNapm2/zl/sbz2zlSpWCFcBvbtIy/97wOJ27TZOQbb+/S6WhrUjXa2uVd++WOOfPzFDMF1TapZvao8cMdNMmL8c7J3X5rcfN0V0rljO707dc9eeeixsXp90ujBMu3L7+TPuQvlyNGjpricceopcuM1l0vRIkWcbe6VGT/8Kl99/0uma4aFFZfLLjxbLjirs/tQvf7wsCdld+oeub7HpXJ25456W36e+9lX3pYlK1ZnOT82DLi/jzSsFx1wHzeSAAn4m8D69etl8+bNUqVKFWnUqJFzs/PmzZN9+/ZJy5YtZf/+/foYLJGKqM+nqlWrSt26daVQoYzfBTt27JBVq1Y55d0r9erVkxo1arg3BXX96NG/ZUfyTilatKi+N9xfIfWf/v/Y/QX1ggXgZIUoPJlrMZSEB/c6/rnXZG1snPMQRQoXziQT9/fpJa2aNXb2m1/8EIYSYWFaDLDTXQ7rgx+6W2pbsjRbicrr701zzuUuU6Z0KTlw8KAcOnQ4W+GBRJl7dZfFCU9p1UzuvvV659xm5Ytvf5Ivvv3RZDPdJzZeccl5csl5Zzr7sZKT8Hh57renfi5zFy5VH3zpzvlLliyh1x+882apF13L2c4VEiCB0CGQm/BERkZKUlKSfqBixYqpz7VDzsNVq1ZNGjRooPPJycmybt06SU8//hlRokTGZ0StWrW0IDkFg7xC4fEOlMJjMQsl4Xnrw8/k9z/n6Se48erLpX2bFlJK/ULeuHmrPPfqO1pm8Av+qccHabnBgUZ4zGPffWtPadOiqWq9KiyLlq6U519/V+9q27Kp3HPbDeYwWR+3ScY+87LO4xf9dVdeItE1q0vKrt3y3c+z5MffZjvHZtfCgwOia9WQG6++TMvUTlX2h1/+kO9/jdFlu190rnS74CznPDFzFsob72cIVsdTWsmF53YVtFxt3rpdvlYtPpARpD69rpFT1X6TchIec0xenxvHj376Jd0Kdv6Zp8s13S82p+CSBEggRAnkJjx4rEqVKmmxgfCgtX/16tWSmJion7hjx44Spr4wmoTWIpwzPDxcWrU6/llk9p+MJYXHO1UKj8UsVIRnz9590m/oE/rub7v+KunUoU2mJ4FMPPr4RN3ac+0Vl8h5XTvp/W7hcYuJKTzxhddl1dpYKV+urBYlsx1dX/MXLxO0cIx77BEpVaqk2aWXphwy7vO6u7QgX+OG9Re0BrnTMy+/JctWrpFixYrKSxNGOruMuKDLbNgj9zrNyDjgqOoSQxfa1u0Juntu/PD+WcoF6tLCQe77M4XM/dvPjf0UHkOJSxIoGARyE55SpUpJu3btMn3mpKWlydy5czWA5s2bS0REhAODwuOg8PUKhceqnlARnsXLV+lWHMjDM2OGWE+RkZ005U1ZvmqtnK5iZG7teaXe6BYexNSULVM6U1l3q8qUiSN1/zAO6D9ivG7NuVa1cJynWjrstEm1Kj0+8QW92S0UbuG57MJzdNyNXTYxaac8OvopvXniyIESXr6cjte5d2CG/Ax9+B7dmmSXi42LlyeemaI3vzh+hBQvXkyvG1HKTni8PDdOSOHRWPmDBAoMgdyEp2bNmjpWx35gCA/Ep06dOoIuK5MoPIaEv5cUHqt+QkV4PlHBvzN+/E3ffXYBxtt2JOgg4tqq6+kxJQ1IRnjs1hS9U/2I37JNRk54XmefHzdMd4UhLufu/sP1tv739ZZG9euYw50lArvveiTjmOyE597bb9DdZ06hYytgftfDw3RrlDkGrUxodUF6+anHdVDescOdhfua7iDinITHy3ObC1F4DAkuSaBgEMhNeBo2bBgw/mblypWSkJAgtWvXlujoaAcGhcdB4esVCo9VPaEiPJNVN9BS1Q2Ul+TupjHCg+6lF8ZlCIr7HIGEB91Gw56crA8bp7qOItRIrkAJUpRT0PIQFQhdR8XwBEpGUq7sdr5crGJ1flBxPR9+9rXuQntu7GOBiuhtaAXCiLEbrrpUzjqjo95mzhWohcfLc5uLUngMCS5JoGAQyE14GjduLFFRUVkelsKTBUlIbaDwWNUVKsLzkZIBE+yLIeE5pRIlwpxh5vkRnoMHD8k9A0boSzxy7+3SuEHdLJdzH5NdC889t10vbVs2y1IWzPv0G6q3mxYedMWhSw7pladH6aBqnXH9OKwCCdEyhOS+LwqPCxJXSYAEshCg8GRB8p/YQOGxqjlUhGfeomUy5c0PsgT6Wo+TJZsf4cFJTAzPNZdfJOefdUaW88bFb5HRT72ot2cnPN3OP0u6X3xulrI7EpNkyJhJevsEFcNTQcXwpKmh4H0fHaW3jRjYV4/OsgtiNNqoY3FDaK1C6w0ShccmxTwJkICbAIXHTeO/s07hseo6VIQnZXeq9B8+Tt99oFFa2PH6ux+rQN7icnqHtlI3uqY+Nr/C8+Ib78mCJSu0VIwfPkBKW6O0xj37qjPHTnbCg/gZlLUDpZ9+8X+yYs26LPKGUWgYjYZh8I8+eKe+f/MD9TRm0hQ9XLxCeHmZMGKA2RV04XlCXSd2Y7we+o4h8EwkQAKhTSDYwrNlyxY9Hw9Gd7Vv3/4fgcNh6d4xU3gsZqEiPLhtzLWD0VpIkIwObVpqIUEw78dffOvMjXOLGqGF2YyR8is8mDAQUoMEAemlZkauUa2KYBQWZkI23WvYn53wYB/m4cGIsepqPh3MhjxTzcPz3U+/Y5eeQBATCZqEWZ3f/Xi6zp55ege58JwuElmxgiQlp8g36pq/zc4YIuq+Hg4OdgvPe9O+kJ9n/aXZDup7p0RUDJeSqpvQzLZq7pdLEiCB0CAQbOFJSUmRJUuW6Idv0aKFno8HGcxvdrIShcc7WQqPxSyUhAcxLJgMcKPqTjIJrSdoFTEJgjFUBQublF/hQflfY+bIO1MzBAR592zJGB4PAcC13QLiHpYeVTlSdiSY2UuL6gBnnAepRZOG8oCavdhOU6fPkJlqYkOT0EqEwGiTEOCMQGd3CrbwrF63QSY8/5r7ErrFiTMtZ0LCDAmEDIFgCw/mBYuJidETFBoI9evXl+rVq5ts0JcUHu9IKTwWs1ASHtx6+oEDghmXzazD5nEgI5i1GK9dcH/L8CI8L4xXcTGqS8ydvlVD4aerVz24paNalcry4F23yFMvvqGFJjvhQSzOt6plBvfgTpgh+taePZx5dNz7sP7Z198Lrut+/xbE54KzOwtmZ7aTiTdCK1TXTh307hN9bky6+Mb7nzjv88KMy5h5mYkESCD0CMTGxkp8fLy4XxOBp5g/f77s3btXmjRpIpUrV87yYGaUFoakY2i6O+GdW3ivVmpqqt6MUV4Y7XWyEoXHO1kKj8Us1ITH3D6GZieqF8ntTz8glSIq6Mn7zL5gL9GyhJaa/er9MdWiKmeZddl9PXcLz+jB/aSKauXBvSLIGRMFRlWK1K/DcJcJtI5rJiQm63mF0IpVKbJiti8bDVQ+WNvwKg2IF4bms0srWFR5HhIoOATwGgq8ewvxk+4vm8F+QgqPd6IUHotZqAqP9Ri+yQYSHt/cHG+EBEiABEKUAIXHe8VReCxmFB4LyAlmKTwnCJDFSYAESCAAAQpPACi5bKLwWIAoPBaQE8xSeE4QIIuTAAmQQAACFJ4AUHLZROGxAFF4LCAnmEVQ9eMTMl4qOuD+3ic1tugEb5XFSYAESCBkCFB4vFcVhcdiRuGxgDBLAiRAAiTgOwIUHu9VQuGxmFF4LCDMkgAJkAAJ+I4Ahcd7lVB4LGYUHgsIsyRAAiRAAr4jQOHxXiUUHosZhccCwiwJkAAJkIDvCFB4vFcJhcdiRuGxgDBLAiRAAiTgOwIUHu9VQuGxmFF4LCDMkgAJkAAJ+I4Ahcd7lVB4LGYUHgsIsyRAAiRAAr4jQOHxXiUUHosZhccCwiwJkAAJkIDvCFB4vFcJhcdiRuGxgDBLAiRAAiTgOwIUHu9VQuGxmFF4LCDMkgAJkAAJ+I4Ahcd7lVB4LGYUHgsIsyRAAiRAAr4jQOHxXiUUHosZhccCwiwJkAAJkIDvCFB4vFcJhcdiRuGxgDBLAiRAAiTgOwIUHu9VQuGxmFF4LCDMkgAJkAAJ+I4Ahcd7lVB4LGYUHgsIsyRAAiRAAr4jQOHxXiUUHosZhccCwiwJkAAJkIDvCFB4vFcJhcdiRuGxgDBLAiRAAiTgOwIUHu9VQuGxmFF4LCDMkgAJkAAJ+I4Ahcd7lVB4LGYUHgsIsyRAAiRAAr4jQOHxXiUUHosZhccCwiwJkAAJkIDvCFB4vFcJhcdiRuGxgDBLAiRAAiTgOwIUHu9VQuGxmFF4LCDMkgAJkAAJ+I4Ahcd7lVB4LGYUHgsIsyRAAiTgEwKpqamyYcMGKVOmjNSrV88nd/Xv3AaFxzt3Co/FjMJjAWGWBEiABHxCYPny5ZKUlKTvpk2bNlKuXDmf3Nk/fxsUHu/MKTwWMwqPBYRZEiABEvAJgYSEBFm5cqWULl1a2rZtK4ULF/bJnf3zt0Hh8c6cwmMxo/BYQJglARIgAR8RwGd0oUKFfHRH/86tUHi8c6fwWMxCRXhwn+kHDkph9Q8/LKy4for96QdkY/wWqVihvFSOjLCeTGTP3n2SnLJLypUtIxXDy2fZH2jDAXWNbQmJUqZUKX3eQN+ocMxRdT8l1H2YDyJcZ9++NKmk7qNkibBAp86yzdwfjo+oWEGKFimS5RhsOHTosBw+ckTCihdzvuHh2ROTkqV61Sgpkk0598mOHj0qW7cn6PKR6lrF1blyS+b+vPDL7ZzcTwIkkHcC+NzDv118zgT6LDJnOnDggBzBZ0RYWJ4/D9LT03XxEiVKZHvuQNfHtrS0NEG5vHz2mHs80SWFxztBCo/FDH95Rf//t/4Hg380hw8flqiIiuofgX++VaTu2SsPPTZW3/0TQx+SV96eKnGbNuv86aeeIrf2vNJ5siUrVsu7H38hO5WEmFRENQVfdF5X6Xb+WQHF4s/5i+Wjz77WkuQuc/nF58rF53Y1m/Ty4WFPyu7UPXLPbddL6p598tHnX2spMQc1ql9HbrvhKomoEG42ZVoGuj8cgOe4ocelWWTk9Xc/ltnzFkmXTu2lTfMm8sGnX0uCkh2TomvVkL59emmxM9vMMn7LNnn1naladsw2LDu0bamY9ZBixYq6N+v1QPeXG78sJ+EGEiCBEyaQnJwsy5Yt03Jx6qmnZjofPqfXrVunY3zwuW1SRESE1K9fX5cx28wSkhMbGyuJiYlmk15WqlRJ6tatm6WMuX7ZsmWlefPmsmbNGsE2k7C9QYMGguXJThQe74QpPBazUBSeikok3DLjFp7V6zbIhOdfc54Sv6iPqG9IJlWrUllGDuzrtMxg++ff/CBfzfzZHCJly5RW32D2O+XuvPk6ad+mhbPfCE+DutGyNjbO2e5eqaBalEY9+oBqBcrc2rNqbaxMfOF151D7/iBLj9x7e6b7M8KDe9+RkKTvyy4HJiP63yelSpV0zr181VqZNOVNJ4+WMXxbRIsR0hlKsG5xiSK25YcfyjGRAAkEn4ARDrTcdOzY0bnAwYMHZeHChWJaadDSUrx4cdm/f78+BsHNrVu3zvQ5cujQIVmwYIFTxjnZsZWSJUvqOKGiRY9/CXJfH9v37dunj8b1jGRhHQHViDM6mYnC450uhcdiForCg0c4p8tpcv5ZZ+hWFPwSR3PvjsQkGTZ2shYCtHrcePVlUrtGNUnbny4//T5bps/4UT99j27ny0XHWm1Q9u5HhusyTRvWl969rtYtJdj+9kefy6y/5gvk4qlRj0qZ0qV0eSM8yJQsWULuuOlaadKwnhxUXV3zlyyXtz78TB9Xv05tGdi3j/Ohgy6lkeOf09eqWb2qXNv9YmlYL1p2q9arP+culE++mqnLuQUOG4zwYB338PA9t0vN6lW0vHyqynz70+/YJb2uuVy6duqg1/ED4geBQZlBfe+QKlGV9L6YOQvljfen6XXIVeMGdfV6fvjpgvxBAiRwUgi4hcMtPFu3bpW1a9fqa0JsIDjo9kJX05IlSwRdXGixqVmzpj4Gn2eLFy8WDHOHPKFVpkKFCnpfSkqKrF69Wn0ROiTly5eXli1bOl1c5vrm4Vq0aKHL4Vooh2shVatWTZ/THHcylhQe71QpPBazUBSeTu3b6C4j61HUL/FPJGbOAhV7Ey6jBj3gxPqY497/5EslPn/qbpyXJozUm9fHbZKxz7ys14c9cq/UUoJkEj4kIBQNlJQ0a9zA6QpzC8+A+/toaTFlsPz+1xjdPYb1UY8+KFWPiYa5P3QjPfnYI1K+XOZm4A8+/Up+/G02isnkJ4ZK6WOtNW7heXLYI4IYHJNwj/cOHKlbbWwuvR8cog9zC54ph+sgBql1i6bOdcz9eeFnzsclCZBA8AkY4bBbeMxwdXRFNW3aNNOFd+/ercWnYsWKWm6w05wH6xAkiI077dq1SwsRtkFqUBbJXQ7XwfXcCSPIMJIMrTvt2rVz7wr6OoXHO1IKj8UsFIWn3123aAGxHkUGj35ax7bcfN0V0rlj1n98m7ftkBHjntXFnhkzRLd8JCWnyKBRE/W2ti2bqlaS7rpLyz63O2+Ep27tmjK4313uXc76/Y+OUs3L6XLb9VdJpw5t9HZzf1eqFiY7LggHoIn4nv4jdAvQA3feLC2aNNTljPBAkJ56fJDe5v6BGJ2/VAwSurweV6JnkrmHyIgKKsbnJr3f7Au0NPfnhV+g83AbCZBAcAgY4bCFB607aOVBdxIExRYY++pxcXGyceNGLSy2IJljjURFR0dL7dq19WZzfWROP/10cXd3YRvmCEI5pC5dujit2XpDkH9QeLwDpfBYzEJReEYP7idVKkdmehLIwp0PD9PbIAaBRm3hWddt2KiPcbfMoIUHLT0moYunWaP6uvXDtM6YfVga4Tnz9A6q2+xy9y5n/cnJr+hrmWMwyuquY/fn7kZyChxbGfbkZB1gfMl5Z8oVl5yntxrhQbfZw/fcZheRb3/8TaZ9+Z1AbNByZNKX3/3kdONhG4SoZbPGWqTQlWZGmGHfifBDeSYSIIHgEzDCYQvP3r17Zf78+c4FS6lRpZGRkVp8wsPDnS4pc8DSpUtl586dmbq5zD6z3LRpk57VGUHPCFBGMtcvVqyYdOrUyRzqLNGFNnfuXJ0/44wzTuqoLQqPgz3PKxQeC1VBER7Ex0AW8pr69LpGTj2llT4cw8zfnvq5biWxy0MS7rqlZ6bWESM8EBKISaD0xnvTJEbF5SAIuf99vbXEmPsbN7x/tiO4Xnj9PVm4dIW0UmJyvxp5hWSEx73Nfc3shAd1+80Pv+qAbBOobMoh9ui263tIG9WlhXQi/Mw5uSQBEgguASMctvDgKui6QkuPCSQ2V0arD1ppatSoYTZJTEyMjtEJ1C1lDjKTHLqvldP1UY7CY+j5c0nhseqloAjPwYOH5J4BI/TTYeh5veiMYD3rcZ0sYnXsGBoENy9buUYwkgrSgXlokBBzM3HkICfWxQgPhonfpLrAAiXTamRaeCAcd/cfrg+FAEGEAiV0uaHr7cJzushVl16gD8mv8Jjzo/UGz7RyzXrBkHPIjUkIqsZos2DwM+fkkgRIIDgEchMOXAXSgRgcCBCkxSQMTa9evbrOImAZx+B9XG4RMsdiaVp4EL+DbjKk3K5P4dGYfPuDwmNVTUERHjzWgJET9HD1a6+4RM7rmrX51Xr0HLPgggBnBBIjYZ4fjJ5CMsKDkWBDH7pbb7N/IJAYLUfuGB7ECiFm6Bo1Ouv8M0+3i+hRV2bEGFp30KKDdKLCY18oNi5ennhmit6M4fYYdo8UTH76hPxBAiRwQgRyEw775BiujpgajMbCMPMOHTJGbZoYnqioKGncOONzxS67YsUKPT9PoBged6uPuxyFx03Df+sUHqtOCpLwvPL2RzJnwRIdyzJyQN8so7QQp/PZ199rkcDwbcw2vFS16Mz6c54UU3NM9FbdXO4ENn36DdWb3JJihAc7ArXWzPx5lkydPkOXQxAxusWQXlPBxZjgEPPhjBvW3xnmrneqH7i3r7//RWdNUDUy+RGebTsS5ftf/pDNW7fruB8zO7U+ufphWqAw+gxB4Ej54acL8gcJkMBJIRBIeNBii4BltOjUqVMny/w3W7Zs0RMSuuNu3MHFeCeXPVEgBAnz+iAhfgdxPEiBrq93HPtB4XHT8N86hceqk4IkPHHqNRNjJ03Ro5xq16wuvW+82hkSvmHTZpn88luyV73+ARMLThw5UAfYfffz7/Lx9G81lZ5XdpOuKhAZr3jATMqIfzHDxMcOfVi9NiJjqKZbeCAS9/fupYemH1Izny5cskJeUzMjI6EFaIgaxWWCgzdt3ipjnn5J3x9GePXs0U3qqGP2qUkOIWrvTftCl3O3umBDfoQnfst2GTnhOX2+U1o1l5uv7a4nJUSr07xFS+V/H3yq97nn7skPP30S/iABEjgpBAIJBz6zZ8+erWNyzAzImHQQ2xHMjJYaTEjonhsHkrRo0SK9H6+EaNSokTOyC+KEeXhQpkyZMnoSQfMai0DXdz8ohcdNw3/rFB6rTgqS8ODREKPy7CtvO0+J+Bv848UvepPcw9oRtzNkzNNOvA6OwUR9ECOTWqvXOdzX+0aTdbq0otRIMcx8jGTPfAypGqNGk7lnPsZx9v3Z5SBJgx+8M9Moi/wID64FwUMLlkm4JxOXhG2YDXrEgPud2CRss+8vN34ow0QCJHByCGQnHNu3b9eSYq4KicHEgRAbJAQuY74dCIxJ6O7CTMuYlDBQQrcVWn8gTyZld32zn8JjSPhzSeGx6iVUhAcC8uCQMfru3a0t1uPo7PzFy+TDz76RlF27M+3G7MZo9cELN91p1+5UPasyftm7E0YyXXh25ywjsUwLz/XqvVfgN/Xzb3SrjSmLgOg7b75WoiplHjpv9s9btEy35rjlA/vQEnPr9VdmeR3Fm6o1BjM+Y56ge267wZzGWZpRWhiKj/eMmYQPP3St/TLrr0z3B8lq26qZfq1EmOvDzZTzys+U45IESCC4BHISDrwPa8OGDc7rJMyV0R2FmZQhMHaCoKxfv14PUXfvQxkENCPux51yuj6OcwtP586dM31Rc58nGOsclu6dIoXHYhYqwmPddp6yeN9WipIZxOcgjsaeNMs+Cd5AnpS8U7+KAlJkXiVhH+cWnrM7d9TBxhtVdxVGYlVW3V7h5cvZRbLkwT15Z8b9IZYoqlJEFtHJUiifG/CSwUQVLI1uOnTLZfdSU/v0XvnZ5ZknARI4MQIm9ia7oGGcHS02aL3B5xtaekwXek5XRmuQaelBmdw+G3M61z+1j8LjnTSFx2JWkIXHetSgZW3hCdqJeSISIAEScBHAm83j4+N1vA26qP7LicLjvfYpPBYzCo8FJA9ZCk8eIPEQEiCBfBNA6wvidCA76JrG3DnocvovJwqP99qn8FjMKDwWkDxkKTx5gMRDSIAE8k1g27ZtsmZNxoADdGe1adMmYExOvi8QggUpPN4rjcJjMaPwWEDykH3u1XcE89xcffmFzqsZ8lCMh5AACZBAngggdgctPHgpKN5Qjjib/3qi8Hj/G0DhsZhReCwgzJIACZAACfiOAIXHe5VQeCxmFB4LCLMkQAIkQAK+I0Dh8V4lFB6LGYXHAsIsCZAACZCA7whQeLxXCYXHYkbhsYAwSwIkQAIk4DsCFB7vVULhsZhReCwgzJIACZAACfiOAIXHe5VQeCxmFB4LCLMkQAIkQAK+I0Dh8V4lFB6LGYXHAsIsCZAACZCA7whQeLxXCYXHYkbhsYAwSwIkQAIk4DsCFB7vVULhsZhReCwgzJIACZAACfiOAIXHe5VQeCxmFB4LCLMkQAIkQAK+I0Dh8V4lFB6LGYXHAsIsCZAACZCA7whQeLxXCYXHYkbhsYAwSwIkQAIk4DsCFB7vVULhsZhReCwgzJIACZAACfiOAIXHe5VQeCxmFB4LCLMkQAIkQAK+I0Dh8V4lFB6LGYXHAsIsCZAACZCA7whQeLxXCYXHYkbhsYAwSwIkQAIk4DsCFB7vVULhsZhReCwgzJIACZAACfiOAIXHe5VQeCxmFB4LCLMkQAIkQAK+I0Dh8V4lFB6LGYXHAsIsCZAACZCA7whQeLxXCYXHYkbhsYAwSwIkQAIk4DsCFB7vVULhsZhReCwgzJIACZAACfiOAIXHe5VQeCxmFB4LCLMkQAIkQAK+I0Dh8V4lFB6LGYXHAsIsCZAACZCA7whQeLxXCYXHYkbhsYAwSwIkQAIFjEBCQoJs2bJFoqKipFq1aiH5dBQe79VG4bGYFXTh2bU7VY4cPSrlypSRYsWKWk+fvyyY7dy1WxeOqBCev5OwFAmQAAn8QwRmzZolR44c0Vfr3LmzFC5c+ISufFR9ph4+fFgKFSqkPleLndC58lqYwpNXUsePo/AcZ6HXCrrw9H5wiH7OfnfdIs0aN7CePn/ZtbEbZdyzr+jCrzw96oQ/PPJ3FyxFAiRAAnkjEBsbK/Hx8bqFp3HjxnkrlMNRaC1at26dhIeHS6tWrXI4Mni7KDzeWVJ4LGYUHgtIHrIUnjxA4iEkQAK+IoDPerTIBCNt3rxZ1q9fT+EJBsyTeA4KjwU3VIXnwIGDsi0hUcqUKiUVK5TP0sqC/UfVP/D7Bz2un/jOm6+T5k0aSmH1Dz4srLhFISOLMglJO3UmomK4lCpZIstx+9MPyNrYOHn2lbf1vslPDNXXLlqkiNNlhubeAwcPSRHVbFy8eNbmXrO/cGF1L8UD3wuO2bo9QZ87smKFgOfJcnPcQAIkQAIBCODzxAiPuzvLbC+iPr9MOnjwoO7+KlmypNnkLHEOlIHwxMXFSRkVKtC6dWu9H+cNllA5F3StsIXHBSOPqxQeC1SoCc+f8xfLR599LXv27nOeBGJx+cXnysXndnW23d1/uBw6dNjJu1dee2aMOyuLl6+SqdNnyI6EpEzbG9WvI7dcd6VUiqyot2/fkShDxz6T6RiTqV2zujz28D06i3t87Z2pUlIJ03NjHzOHOMsl6nrPvvqOFqKXVZeYO8Vv2SavqrKQHXfq0Lal3NqzhyNV7n1cJwESIIGcCKA1BpJSpUoVadSokXPovHnzZN++fdKyZUvZv3+/PgZLJEhQ1apVpW7duo7I7NixQ1atWuWUd6/Uq1dPatSo4d4U1HUKj3ecFB6LWSgJz+ff/CBfzfzZeYKyZUpLWtp+HZSMjWjFad+mhd7/mBKTXal71D/idOd4CAiSW0J++WOOvPvxdOcYyBOCnE0qU7qUjBzYV8qXKyvJKbtkxPjnMp0TrUX4ZlM/upY8cOfNupgRHux7YdxwcypnaYQHG9zytXzVWpk05U3nOJTHtykjbmeceorc0vNKZz9XSIAESCAvBHITnsjISElKyvjChyDkQ4cOOafFqK4GDTLiH5OTk3XsTnr68c/VEiUyPldr1aqlBckpGOQVCo93oBQei1moCA9+8d/9yHAtI00b1pfeva6WcmXLaCF4+6PPZdZf83WLyVOjHhVIikk5BS3vSEySIWMm6UMrqtFWt99wlTSoW1uNPjgiC5Ysl9fe/Vjv63HpBXLROV3MKVWXVs5By/kVngnPvyar123Q9z+o7x1SJaqSvmbMnIXyxvvT9Poj994ujRvUde6FKyRAAiSQG4HchAflK1WqpMUGwoMRXatXr5bExER96o4dO6pQgDDnMozhcVD4eoXCY1VPqAjP+rhNMvaZl/XdD3vkXqlV4/hcEpChT7+aKQ3qReuRWIinMSkn4UHLyXwlNvMWLpUbrr5MKpQvZ4rp5ainXpSN8VukdfMmcl/vG519J0t4zL326Ha+XOTqnsOFf/xttpRQLT6tWzSV0qWy9q07N8cVEiABErAI5CY8pVQsZLt27ZyuKxRPS0uTuXPn6jM1b95cIiIinLNSeBwUvl6h8FjVEyrCk5ScIoNGTdR337ZlU+l1TXdBl1ZuyUiE12Hp+Ibz/GvvytKVa6RyZIQ8MfQh51InS3juf3SU7i6LjKggffvcJNWqVHauyRUSIAESyC+B3ISnZs2aOlbHPj+EB+JTp04dQZeVSRQeQ8LfSwqPVT+hIjy4bbTwoKXHJHTtNGtUX7d6VD3W/WP2mWVehOegGlG1aNlKfe7NW7dLopKrnSpexyR0d40f3t9kT1qX1pff/STTZ/zoXAfC07JZY2mhRpc1VK1XJ3MEhHNRrpAACRQ4ArkJT8OGDQPG36xcuVIwS3Pt2rUlOjra4ULhcVD4eoXCY1VPKAkPho2/PfVz+UuNgrIT5OCuW3pmaRXJTXh+nvWXfPjpV5kCle1z/1PCg7r45odfdWC2CVQ294KA69uu7yFtVJcWEwmQAAl4IZCb8GAyQrx2wk4UHptIaOUpPFZ9hZLwmFtPUyOvlqmuplVrY2Xh0hXOEHW8OmLiyEGZYlxyEh73qCiMiOpyWnupX6eWRFWuJFGqG+vH32Jk2pffqXl+8tfCg/t5acJIc9vOct6iZTLlzQ903j1KyxyA7jQ828o162XJitWZhqgP7NtHBVZHm0O5JAESIIFcCVB4ckVUIA+g8FjVGorC434E3P9Pv/8pH6hWGqRb1bDt09XwbZNyEp73p30pP836U8+XM2HEABUUfHwUAsqb/V6FZ9HSlfL86+/qW8B5K4SXN7ejl+9N+0LQsoQUSHj0DteP2Lh4eeKZKXoLht1j+D0TCZAACeSVAIUnr6QK1nEUHqs+Q0V4EDw86895UqxoUTUk/ZpMT4Fn6NNvqN52TfeL5fwzT3f2G+G57fqrpFOHNs52rLz4xntq+PkKPeILI7/c6bBqZRk4coLsVnP52MKzbsNGeXJyxru0Jo4cKOHW6C68WHTAiPH6dFdccp5cct6Zzqn3qXmDhox5WvbuS9PbjPBsU5Mafv/LH4IYoofvuS3LbNAmfgnvA0MANhMJkAAJ5JVAsIXHvEsLo7vat2+f19s4oeM4D493fBQei1moCM93P/8uH0//Vt99zyu7SdfTOwiGn0NIEPeCYdtIY4c+7MyMjPzg0U+r10UkC2ZC7tunl36zr3llxG8xc3VMEI677/YbpVXzxjowGOd88Y33nQBpW3jQpdZXjahCOqfLadL94vNUOcnUQmRmeka3Vu8br1ZdZbVl0+at8uaHn+l71oXVDyM88Vu2y8gJz+nNp7RqLjdf211KqeHniFuat2ip/O+DT/W+XtdcLl07dTDFuSQBEiCBXAkEW3hSUlJkyZIl+rotWrTQ79RCxv3ailxvyuMBFB6PwNThFB6LWagIDyQDLSPuV0pggkHTUoLHsufLwTZ7dmbMpPzSxJH6HybEBkPdTYAw9hVVggLJQDKzLtvCg32jn35J4jZtxqpO9dRMy48+eKfJij2Ds7NDrZzWrrXMnrdIbzLCg8zkl9/Sw+D1DvUDw+7dz4uusRED7s8Uo2SO5ZIESIAEsiMQbOHB3GcxMTF6gkJzzfr160v16tVNNuhLCo93pBQei1moCA9ue9fuVMGsygjkdSeMYLrw7M6Zuo7MfjzfJyrwGN1F5pURI9SrImpUzRiRgOHneJ0DupTcCS036KpC2UDCg5eIIvAYgc9IgQKUZ6przlCtT0ZacM3zz+qsXlNRxnmFhFt4EKyMd3r9ouJ7zL3i3BCvtq2a6ddKZPeyURzHRAIkQAKBCMTGxkp8fLy4XxOB4+bPny979+6VJk2aSOXKWef9MqO0MCQdQ9PdCe/cwnu1UlNT9WaM8sJor5OVKDzeyVJ4LGahJDzm1iEbSck7Ba0+1ZVEuF8lYY6xl3jORFUGwoD3YtkJ50L8DMSlepWoPL+d/PDhw+peUqScOqfpKrPPjZYkTNee3X77eJwTcwGhHF5cGqFGiTGRAAmQgB8J4Isa3r1VXH22skvLXzVE4bHqIxSFx3oEZkmABEiABAo4AbbweK9gCo/FjMJjAWGWBEiABEjAdwQoPN6rhMJjMaPwWECYJQESIAES8B0BCo/3KqHwWMwoPBYQZkmABEiABHxHgMLjvUooPBYzCo8FhFkSIAESIAHfEaDweK8SCo/FjMJjAWGWBEiABEjAdwQoPN6rhMJjMaPwWECYJQESIAES8B0BCo/3KqHwWMwoPBYQZkmABEiABHxHgMLjvUooPBYzCo8FhFkSIAESIAHfEaDweK8SCo/FjMJjAWGWBEiABEjAdwQoPN6rhMJjMaPwWECYJQESIAES8B0BCo/3KqHwWMwoPBYQZkmABEiABHxHgMLjvUooPBYzCo8FhFkSIAESIAHfEaDweK8SCo/FjMJjAWGWBEiABEjAdwQoPN6rhMJjMaPwWECYJQESIAES8B0BCo/3KqHwWMwoPBYQZkmABEiABHxHgMLjvUooPBYzCo8FhFkSIAESIAHfEaDweK8SCo/FjMJjAWGWBEiABEjAdwQoPN6rhMJjMaPwWECYJQESIAES8B0BCo/3KqHwWMwoPBYQZkmABEiABHxHgMLjvUooPBYzCo8FhFkSIAESIAHfEaDweK8SCo/FjMJjAWGWBEiABEjAdwQoPN6rhMJjMaPwWECYJQESIAES8B0BCo/3KqHwWMwoPBYQZkmABEiABHxHgMLjvUooPBYzCo8FhFkSIAESIAHfEaDweK8SCo/FjMJjAWGWBEiABEjAdwQoPN6rhMJjMQtl4dm1O1VKlAiTEmFh1lMxSwIkQAIkUJAIUHi81yaFx2IWasJz6NBhefPDT2XewqVy5OhR/TQ9r+wm53Q5zXqyvGV/jZkjM378Tbqc1l4uPrerLnT48GFZuHSlXm/ZtJGEhRXP28nyedTBg4dk8fJVunSrZo2lePFi+TwTi5EACZBAVgIJCQmyZcsWiYqKkmrVqmU9IAS2UHi8VxKFx2IWasIz4fnXZPW6DZmeYsSA+6VGtSqZtuU1c+dDjzni9ML44RJWvLik7tkrDz02Vp9i9OB+UqVyZF5Pl6/jdqbskgEjJ+iy44b3l4gK4fk6DwuRAAmQQCACs2bNkiNHjuhdnTt3lsKFCwc6LM/bjqovm/hiWKhQISlW7J/5gkbhyXP1OAdSeBwUGSuhJDzpBw7IfQMf1zfevk0LueqyC/X6iQjCmx98KrP+mi/NGjeQfnfdos9H4dEY+IMESKCAEIiNjZX4+HjdwtO4ceMTfiq0Fq1bt07Cw8OlVatWJ3y+vJyAwpMXSpmPofBk5iGhJDzrN2ySsZNf1k/wxNCHpHJkhPU0+cseVt98ihYp4hSm8DgouEICJFBACOCzHi0ywUibN2+W9evXU3iCAfMknoPCY8ENBeHBPaYfOChrY+Pk2Vfe1k8w+Ymhulm2sPoHHCjGBhKTlJyiyh2QCuXLSflyZa0nz8giJgjHFlFNvCZ2Jq/Cs2fvPklW3VHlypaRiuHlA57f3ohm4ER1X/v3p0v1alG6C41dWjYl5kmABIJJAF1QRnjc3VlmexHXF76DBw/q7q+SJUtmuQWcA2UgPHFxcVKmTBlp3bq1Pg7nDZZQZbmw2sAWnkBUct5G4bH4hILwLF2xWiYfEx3r9qVkyRLy3NjHnM2bt+2QaV98K8tWrnG2YQWtQT17dJMWTRpm2v76ux/L7HmLBMHC9/fppfflJjxL1P28+/EXAlExCcJ00Xldpdv5Z2VqLTL78SHx3rQvZdaf85yYIew79ZRWcvlF58jg0U/rQxnDY4hxSQIkECwCaI2BpFSpUkUaNWrknHbevHmyb98+admypfoStl8fgyUSJKhq1apSt25dR2R27Nghq1ZlDLBwTnJspV69elKjRg17c9DyFB7vKCk8FrNQEJ6Va9bLi/97X7eKmNtHqw6+UYSrlptRjz6oN2/eul1GjH/OHKKXEBEzmgsb+t/XWxrVr+Mc41V4EDCNwGmT7PNXq1JZRg7s63xAmONee2eq/Dl/scnqFiVzXyizdXuC3kfhcRBxhQRIIEgEchOeyMhISUpK0ldDEPKhQ4ecK2NUV4MGDXQ+OTlZx+6kp6c7+0uUKKHXa9WqpQXJ2RHkFQqPd6AUHotZKAiPueW1sRtl3LOv6OwrT4/KNNIAIxAw0ml36h4tE7ffeLW0bKaGlKtRV5CUKW9+IHv3pUnjBnXlkXtvN6cUL8KzIzFJho2drAUqulYNufHqy6R2jWqSprqnfvp9tkyf8aM+b49u58tFx4a4Y8N3P/8uH0//Vu8764xT5fwzz5BKkRVl0+atutVnfdwmvQ8/KDwOCq6QAAkEiUBuwoPLVKpUSYsNhAefp6tXr5bExER9Bx07dlShA8fnO2MMT5Aq5iSfhsJjAS4owoPngNj8rrqMOrVvo0dduR/1s6+/l6+//0XH+7wwbrizy4vwvPH+JxIzZ4FUVMPGRw16IEvs0PuffKnE5081TLOovDRhpHON+x8dpVun0LKEFiZ3SkvbLwNHTXRaryg8bjpcJwESCAaB3ISnVKlS0q5du0wt02lpaTJ37lx9+ebNm0tExPFBIhSeYNTKyT8HhcdiXFCEx3qsLNmZP8+SqdNn6O0QHhPo7EV4EGeTkJQsN193hXTu2C7LNRA/NGLcs3r7M2OGSJnSpXSr0oNDxuht6OqqXjUqSzlMfPjJl9/p7RSeLHi4gQRI4AQJ5CY8NWvW1LE69mUgPBCfOnXqCLqsTKLwGBL+XlJ4rPopaMKD51m1Nlb/id+yTXYoQUFwMUZjmfTck8OkpHolBVJehQdNvHc+PEyXwYivQEPice11GzbqYwbc30ca1ovWwdPPvPyW3mZ3w+mN6gcCrM0xFB5DhUsSIIFgEchNeBo2bBgw/mblypWCWZpr164t0dHRzu1QeBwUvl6h8FjVU5CEJzYuXia9/KbTPeR+VHdwcX6EB0HFw56c7D5ljut9el2jR2B9/2uMfPTZ11lGk7kLb9+RKEPHPqM3UXjcZLhOAiQQDAK5CQ8mI8RrJ+xE4bGJhFaewmPVV0ERHgQO91NdR2bk02ntWusA5WqqCymqUqQk70yRkROe10+fH+HB+67uGTBCl8fQ83rRNS2SmbO1VDAzWoLcrTfZtfC4h91TeDJzZI4ESODECVB4TpxhKJ6BwmPVWkERnkXqZZ/Pv/6ufrphj9wrEA53cu/Pj/DgXBgFhu6xa6+4RM7r2sl9+mzXMTLMxPBk984vBFMjqBqJwpMtSu4gARLIJwEKTz7BhXgxCo9VgQVFePDW83emTtdP9+L4Ec6syeZxX37rQ5mr3rCOlF/heeXtj2TOgiUSGVFBRg7o6wQ+m2tgeDnEBZMYdu3UwbkHM0qrfp3aMuiBO8zheslRWplwMEMCJHASCARbeMy7tDC6q3379ifhjrOekvPwZGWS2xYKj0WooAgPXiMxSA3vRjr/rDOk+0XnauE4oF5JMf3bHwWjtEzKr/DExW+RsZOm6G6z2jWrS28110/VqEr6tBs2bZbJKjgZLTply5SWiSMH6plKsfOrmT/L59/8oI87p8tpcuE5XfTrLhAXBEnDKzNMYguPIcElCZBAsAgEW3hSUlJkyZIl+vZatGih36mFjPu1FcG6d3MeCo8hkfclhcdiVVCEB4/1+MQX9GR+5hHNsHDkTzRo2ZwTr5Uw7/PCNsy5g3/kECuT8NZ1vH3dnV584z1ZsGSFswnlzMixetG1xEw+SOFxEHGFBEggSASCLTx4VU5MTIyeoNDcYv369aV69eomG/Qlhcc7UgqPxawgCQ9ezIluJ7dY4HEx4d/FaubjSVPe1E/vbuF584NPZdZf86Vty6Zyz2036P3uuJuxQx/WsyLrHcd+zF+8TD787BtJ2bXbvVlqVq+qW30CzbWDF5T+T01c+Jfr9RIofEqr5nLTtd3lgcGj9bkoPJmQMkMCJBAEArGxsRIfHy/u10TgtPPnz5e9e/dKkyZNpHLlylmuZEZpYUg6hqa7E965hfdqpaam6s0Y5YXRXicrUXi8k6XwWMxCSXisW882C7nYFL9VdT0dUV1OlfUEgNkefAI7EMCcsjtVihUtKngfVlG1zC3tTz8g2xMSdatQ9TyWye2c3E8CJEAC/xYBzFGGd28VV6/xYZfWv1ULga9L4bG4FEThsR6RWRIgARIggRAnwBYe7xVI4bGYUXgsIMySAAmQAAn4jgCFx3uVUHgsZhQeCwizJEACJEACviNA4fFeJRQeixmFxwLCLAmQAAmQgO8IUHi8VwmFx2JG4bGAMEsCJEACJOA7AhQe71VC4bGYUXgsIMySAAmQAAn4jgCFx3uVUHgsZhQeCwizJEACJEACviNA4fFeJRQeixmFxwLCLAmQAAmQgO8IUHi8VwmFx2JG4bGAMEsCJEACJOA7AhQe71VC4bGYUXgsIMySAAmQAAn4jgCFx3uVUHgsZhQeCwizJEACJEACviNA4fFeJRQeixmFxwLCLAmQAAmQgO8IUHi8VwmFx2JG4bGAMEsCJEACJOA7AhQe71VC4bGYUXgsIMySAAmQAAn4jgCFx3uVUHgsZhQeCwizJEACJEACviNA4fFeJRQeixmFxwLCLAmQAAmQgO8IUHi8VwmFx2JG4bGAMEsCJEACJOA7AhQe71VC4bGYUXgsIMySAAmQAAn4jgCFx3uVUHgsZhQeCwizJEACJEACviNA4fFeJRQeixmFxwLCLAmQAAmQgO8IUHi8VwmFx2JG4bGAMEsCJEACJOA7AhQe71VC4bGYUXgsIMySAAmQAAn4jgCFx3uVUHgsZhQeCwizJEACJEACviNA4fFeJRQeixmFxwLCLAmQAAmQgO8IUHi8VwmFx2JG4bGAMEsCJEACJOA7AhQe71VC4bGYUXgsIMySAAmQAAn4jgCFx3uVUHgsZhQeCwizJEACJFDACCQkJMiWLVskKipKqlWrFpJPR+HxXm0UHosZhccCwiwJkAAJFDACs2bNkiNHjuin6ty5sxQuXPiEnvDo0aNy+PBhKVSokBQrVuyEzpXXwhSevJI6fhyF5zgLvUbhsYAwSwIkQAIFjEBsbKzEx8frFp7GjRuf8NOhtWjdunUSHh4urVq1OuHz5eUEFJ68UMp8DIUnMw+h8FhAmCUBEiCBAkgAn/VokQlG2rx5s6xfv57CEwyYJ/EcFB4LbqgKz4EDB2VbQqKUKVVKKlYoH7CJFsccVf/IixcrKkWKFLGeXMTsDyteLGB5FDismoGTklPk0KHDUr1q5WyPc588P2VQDym7dsvuPXulcmSElC5V0n3KbNdT1fHJKbukYnh5KVe2TK4faHnhlu3FuIMESCAkCaALygiPuzvLbHd/Ph48eFB3f5UsmfUzCOdAGQhPXFyclClTRlq3bq2Z4LzBEqpAkNnCE4hKztsoPBafUBOeP+cvlo8++1r27N3nPEkR9Q/t8ovPlYvP7epsw8rDw56U3al75Poel8rZnTtm2ofMkCcmyY6EJLnq0gvkwnO6ZNoPMXjvky8lZs6CTNurVakst994tdSukTXwLz9lcPIZP/wqX33/ixYwc7EypUvJDVddJu3btDCbnCU+cKZ98a38OntupjLly5WVW667Qlo0beQca1a8cDNluCQBEigYBNAaA0mpUqWKNGp0/PNh3rx5sm/fPmnZsqXs379fH4MlEiSoatWqUrduXUdkduzYIatWrQoIpV69elKjRo2A+4KxkcLjnSKFx2IWSsLz+Tc/yFczf3aeoGyZ0pKWtl+OKAFAuvPm6zIJQl6Fp7uSpW7nn+WcF0zGP/earI2Nc7ZBqsx1sNG+Vn7K4Dx4HjyXSfZ1zulymvS8spvZrZdPTJoisRvjnW3gYAQQ5ccMeUgiIyo4+71ycwpyhQRIoEAQyE14IiMjJSkpST8rgpAPHTrkPDdGdTVo0EDnk5OTdexOenq6s79EiRJ6vVatWlqQnB1BXqHweAdK4bGYhYrwoFXj7keGa+lo2rC+9O51te7Cwfa3P/pcZv01X/DL/qlRjwpaR5DyKzxvfvCpPh/O0UO1/pxx6im6i2n56nX6Wuh6KlmyhDz7xFDnm09+ysxduFRefutDXEbOPL2DXHh2Fy0q6EJ7b9oXsnTlGr1vyEN3S51aGd+c4uK3yOinXtTbL73gbNUy1VnCiheXvfvSZOLzr8nmbTuklmp9GvbIvfqY/HDTBfmDBEigwBDITXjwoJUqVdJiA+HBiK7Vq1dLYmKiZtCxY0cJCwtzeDCGx0Hh6xUKj1U9oSI86+M2ydhnXtZ3j1/m+KVuEn6pf/rVTGlQL1qaNW4gRY/F6+RHeNBS0m/oE/rUF6luLgiPO7mFo2+fXtKyWWPduuK1DM5p7q9D25Zyx03Xui+jP3BGTnhetm5PkOZNGsqDd96s93/53U8yfcaPWu6mPPW4I1zYmbQzRX79Y460btFE6kXX0sfnh5suyB8kQAIFhkBuwlNKxUK2a9cu0+dJWlqazJ07VzNo3ry5REREODwoPA4KX69QeKzqCRXhQavHoFET9d23bdlUel3TXdCVk1MyQpFbDI+7S2vR0pXy/OvvBhQKc62DBw/pAMBiKhgagXr5KYN4n3sHjtSnHD+8vwq8Djend5Yzf/lDpn7+jVRQAckTRgzQ23+LmStvT/1cryP26NyunaRo0aJOGXslP9zsczBPAiQQ2gRyE56aNWvqWB37KSE8EJ86deoIuqxMovAYEv5eUnis+gkV4cFto4UHLRYmNW5QV5o1qq9aNJpK1ahKZrOzzI/wTPvyO/n2x9+kRtUoGTGwr3OunFbyU2bV2liZ+MLr+rQN6kYHPD0CrhOSkvW+VyeN1t++0vanq5ahsXrUGHZAulqqIOVmjRpIGyWCgSTQK7eAN8ONJEACIUsgN+Fp2LBhwPiblStXCmZprl27tkRHRzvPT+FxUPh6hcJjVU8oCQ9aRdC68ZcaqWUnjJ6665aegqVJ+RGeyS+/pWNn3N1I5nzZLfNT5odfY+RDNdosr2nS6MGOzCQm7ZSX3/5I4jZtzlIcrV+39OwhpVSMkUleuZlyXJIACRQMArkJDyYjxGsn7EThsYmEVp7CY9VXKAmPuXW0cixTAb1oJVm4dIUzQgmtHRNHDnLmsDHCg1FOGO1kpwEjJ8hONYeNu0vrI9WF9L3qSvLSwpOfMghIhighIRYot/krmqiWLBObZJ5jpwqeXrJ8taxcs151q61wRpHVrV1TBve7yxzmLPPKzSnAFRIggQJBgMJTIKrR80NQeCxkoSg87kfA/f/0+5/ywadf6c239rxSTlejqpAGj35adwl1PKWVGtV1jd5mfuCXf99HR+msW3jmLVomU978IMcYHnMOs8xPmX1qOP0Dg0frUzw+6IFMLVPmvF6WaMV54/1PZP7iZboYYn4Q+5NdyolbdmW4nQRIIDQJUHhCs95O9K4pPBbBUBEetIjM+nOeFFMBura84Bn69Buqn+ya7hfL+Weertcx5BtDvzFc/cUJIzLNtvzdz7/Lx9O/1ce5hQdDzvuPGK+3d7vgLOl+0bl63fxAixBahpD63XWLHhWWnzIo/+CQMXo4eaBRWtj/42+zZc36DdKudQtnfiFsQ6tW25bNskym6B6RhfgjtFLlhxuuzUQCJFBwCARbeMy7tDC6q3379v8IKM7D4x0zhcdiFirC4xYUdFF1VfPWoIsHgb3fqJmKIQJIY4c+LJUiK+r171WcDGZlRkJsy9WXXaSHe/+mxGnmz7P0dvxwCw/yL77xnixYsgKrarbjS6VjuzZSskSY7v6aNOVN2bYjUc1JUVyeG/uY86qJ/JRBy9T7ajZnJMzFFNiwAAAc2UlEQVTDg3l1MFsy0uy5C+X196bpdcy2jIkOkZ568Q3dhYX1QQ/coYefozsMw9ff+vAzHdSNOYJwb0j54aYL8gcJkECBIRBs4UlJSZElS5ZoPi1atNDv1ELG/dqKYMOj8HgnSuGxmIWK8KALasiYp514HTwGJhjEhHsmtW7eRO7rfaPJ6lmYh49/Tr+jytl4bAXBzemqG8iO4cFuvAtrzNMvSfyWbU4xSMR+dQ8m9Vavl+jYLuMdMtiWnzIoN3X6jEzyhWfCdcyszohLGj98gBOwvEEFKuPeTDJD49GlZZI7Zik/3Mx5uCQBEigYBIItPJj7LCYmRn+BNITq168v1atXN9mgLyk83pFSeCxmoSI8uO1du1P1TMdLVqzO9BSQkQvP7iyXnHdmpu3IoMxL//tAj2iCRKBlpnnjhnLj1ZfJBDUzMVpG7BYelINIYfbkRctWIuskzJcD2WmoJjm0U37K4Byfz/hBvvvpd2eouTnvKa2ay03XdneCsM32dRs2yrtTp+tZlc02LBGzc7M6HiPM3Ck/3NzluU4CJBDaBGJjYyU+Pl7cr4nAE82fP1/27t0rTZo0kcqVj49wNU9rRmlhSDqGprsT3rmF92qlpqbqzRjlhdFeJytReLyTpfBYzEJJeMyt708/oN5gvlPQelFdxamYV0mY/YGW+EayM2V3pndMBTrO3pZ+4IDsSEzWbwhGqxBe45Bbyk8Z3F+ieia8/bysegNxVKWIXEdu4ViUKaT+q1GtihRXb33PKeWHW07n4z4SIAESwGso8O6t4uqzkV1a/vr7QOGx6iMUhcd6BGZJgARIgAQKOAG28HivYAqPxYzCYwFhlgRIgARIwHcEKDzeq4TCYzGj8FhAmCUBEiABEvAdAQqP9yqh8FjMKDwWEGZJgARIgAR8R4DC471KKDwWMwqPBYRZEiABEiAB3xGg8HivEgqPxYzCYwFhlgRIgARIwHcEKDzeq4TCYzHLXngqnNQhhtZtMEsCJEACJEAC2RKg8GSLJtsdFB4LDYXHAsIsCZAACZCA7whQeLxXCYXHYkbhsYAwSwIkQAIk4DsCFB7vVULhsZhReCwgzJIACZAACfiOAIXHe5VQeCxmFB4LCLMkQAIkQAK+I0Dh8V4lFB6LGYXHAsIsCZAACZCA7whQeLxXCYXHYkbhsYAwSwIkQAIk4DsCFB7vVULhsZhReCwgzJIACZAACfiOAIXHe5VQeCxmFB4LCLMkQAIkQAK+I0Dh8V4lFB6LGYXHAsIsCZAACZCA7whQeLxXCYXHYkbhsYAwSwIkQAIk4DsCFB7vVULhsZhReCwgzJIACZAACfiOAIXHe5VQeCxmFB4LCLMkQAIkQAK+I0Dh8V4lFB6LGYXHAsIsCZAACZCA7whQeLxXCYXHYkbhsYAwSwIkQAIk4DsCFB7vVULhsZhReCwgzJIACZAACfiOAIXHe5VQeCxmFB4LCLMkQAIkQAK+I0Dh8V4lFB6LGYXHAsIsCZAACZCA7whQeLxXCYXHYkbhsYAwSwIkQAIk4DsCFB7vVULhsZhReCwgzJIACZAACfiOAIXHe5VQeCxmFB4LCLMkQAIkQAK+I0Dh8V4lFB6LGYXHAsIsCZAACZCA7whQeLxXCYXHYkbhsYAwSwIkQAI+JXD48GE5evSoFClSRP/5t24T94B7KVSokBQrVuwfuQ0Kj3fMFB6LGYXHAsIsCZAACfiUwLJlyyQ5OVnq1KkjtWrV+tfucsuWLbJu3ToJDw+XVq1a/SP3QeHxjpnCYzGj8FhAmCUBEiABnxLwi/Bs3rxZ1q9fT+Hx6d8Tc1sUHkPi2DJUhAf3mX7goBRWTahhYcX13R8+ckS2btshVaMqq2bVotaTiexITBJVTKIqReim1ywHWBv27N0nySm7pFzZMlIxvLy1N3AWTbtbtydI4cKFJbJiBSlePPfm3cSknbI/PV0fX6pUycAndm3FfSXtTJESYWFSKaKCFC2a9Vldh+vV1D179bOUVuevHBmht6EJ+tDhI1JcsUKTeKAEzim7dstuVR7lUJ6JBEjg3yWAf5f4rFm6dKns3r1batasKbVr19Y3ldO/5QMHDuhyJUqU0J9R9lOY82J7oPPY+00ewhMXFydlypSR1q1b69PiMxBdXCcrsYXHO1kKj8UMf4FF//+3HFECgT/4xRilfrHiL7BfEn6BP/TYWH0740cMkP+9/4msXLPeub160bXkgTtukhIlwuTtjz6XuYuWygElSEhF1HP07HGpnHl6B+d498qSFavl3Y+/kJ1KdkxCmYvO6yrdzj9LigaQg/gt2+TVd6Zq2TFlsOzQtqXc2rNHFgHbuy9NXnv3Y1m5ep0cUR9cJkXXqiF33HSNIyVmO2Tu51l/yRff/ij796ebzfpZTj2llfS6pnuWa+Cg1es2yFsffiYJSclOmZIlS8h9t98ocxcukV/+mCMdVfneva5x9puVGT/8Kl99/4vDDdvLlC4lN1x1mbRv08IcxiUJkMA/TGD16tWyffv2gFdt27atlC1b1tkHMYKMxMfHO9uwUqFCBalfv76UKlXK2b5t2zZZs2aNztvnwcbY2FjnPKeddpqkpKTIqlWrnPLulXr16kmNGjXcm4K6TuHxjpPCYzELReGpVaOabNq81XoSEchDRIXyMn/xcr0P0uKWi3533SLNGjfIVA6CMOH515xtdplqVSrLyIF9M31zWb5qrUya8qZTBi1O+JA5dOiw3nbGqafILT2vdPan7E6VYU9OdsQF14CEQIKQIpVcjhncL9M3rBdef08WLl3hnAMtWOb82Niofh155N7bM93XFtXa9fiE5zM9s3MCtVKzelWBqJ3SqrncfWtP9y75aubP8vk3PzjbbA7ndDlNel7ZzdnPFRIggX+OwIYNGyQhIUHSVcuwSWi1QWrWrJluaTHbV6xYIYmJiSarP1fwRdYkxNwg9gYJn/8LFy6UPXv2SLly5aRNmzbmMElLS5O5c+fqfIMGDaRatWo6fgixO4HuAzFFVatWdcoHe4XC450ohcdiForCg0fAL1+02EAaPvv6e5n113znybp0ai83qlYJpOWqReXFN97TslC3dk0Z3O8u5zh0eQ0bO1kLAmTpxqsvk9pKptJUi8pPv8+W6TN+1Mf26Ha+XHRuV6ccBAmihNaPQX3vkCpRlfS+mDkL5Y33p+l1yEjjBnX1+jeq5eTTr2bq9QfvvFmaNqqvW88gbeOee1W3qFx0ThfpcekFWc7TqlljuUJdv0bVKEEr19eqBebH32br44Y9cq9A/pDA4dHRT2mpwn3ddsNV+jqQpPmLl8mbH3yqj8MPW3jmLlwqL7/1od4Pphee3UVLWFJyirw37QtZujLjG+CQh+6WOooTEwmQwL9DILcYHojRpk2b9M01adJEKlasqLvA9+3bJytXrhQsw8LCpH379s4XLGybN2+eLtO4cWOJiorS6+g+27lzpxYhdFu5u6sYw/Pv1L/Xq1J4LGKhKDwQmptUl45J6Lrq++gop2XjhXHDnTgfHIOumk+UcKBV5bmxj5liSk4+kZg5C6RihXAZNeiBTGVw0PuffKnE50/ddfTShJFOud4PDtHrtghhI2SkhGrxad2iqRP/MvaZl2V93CbdKtP/vt7OebCyTMnE5q3btYRUiqyo9yFmJ2buAtmydYduKXJ3LR48eEjuH/S4flZ0NZ11xqm6zK8xc+SdqdP1eiAxmfnzLJk6fYbebwvPw8OelN2pe3R33B03XauPMT/wzXCkajVCnFLzJg0FwsZEAiTw7xDISXgQivDHH3/oG0OrT2RkZKabPHjwoMyZM0eHLTRq1EiqVKni7EcX2MaNG9VnXTE59dRTZdeuXYJrIUGO3N1g2EbhAQX/JwqPVUehKDwPqF+6LdQvX3cyUoHt2O9Oi5aulOdff1dveu2ZMc6uwaOf1rEuN193hXTu2M7ZblY2qy6iEeOe1dlnxgzRLTrI3K/kCnE16Irq2+cmQbdXTgktTAuWrNDxN31VnJHdrZZTWXvf/vQDMmDkeH19yA6kB8nIW6DnN+e486HHtCi5hQeyeO/ADJkbP7y/lj9zvFnO/OUPmfr5N1JBBXJPUPFTTCRAAv8OgZyEB5KyePFi9cWupHTo0CHgDSL+ZseOHTrouW7djBZoHIgueXRfoauqevXquusK69HR0U5wtPuEFB43Df+uU3isuglF4Rmt4l2qVM787WXcs6/K2tg4seNn8Ljokpn88lv6yY3woOXizoeH6W3ly5XNEjSMHWCzbsNGfcyA+/tIw3rRev3L735yuruwAcLTUnU9QTZwjLvpF/txjicnv4JVncqWKS1tVAtQs8b1pWXTxgGDj3EgWl0gShvjt+gWlsTknYLWH5PcLV1DnpgkOxKSpNsFZ0n3i841h2RaQt4gcW7hWbU2Via+8Lo+rkHd6EzHmwzuwwRBvzppdJbnM8dxSQIkcHIJ5CQ8CFJGkDFSpUoZ3ez23ezdu1d9WdovERER0rx580y7jTCZjWjVadeuXcB/7xQeQ8nfSwqPVT//VeFBFw0CifOa+qhRTRgdhQRmiMtBoK87kBj70G122/U9tNAgbxK6rv6n4mggD+6E4GCMBrv8wnOcDxZ828IotNnzFrkPzbLuFp67+w/X93LTtd2ly2ntsxyLDZA+yJ9beH74NUY+/OzrgMcH2jhp9GCBsDGRAAn88wRyEp6cRnLZd1q6dGktM/Z2xPIgpgfJ7vZyH0vhcdPw7zqFx6qb/6rwIBbmngEjNA0MPa8XXdMikzmL4GC0BLkTWonQQoLh8RjaDokyaWDfPhKoxQSBysvUKC+UcQ+rv/SCs+Xyi87RxRFrg5gbJMyFc1r71noEWpVKkRJRMVyPEENZt/CMeupF3RKU02iqQaMmCgKR3cLjbv3q26eXI1364gF+NFEB14GG6Qc4lJtIgASCTCAn4UEMDmJxkHKb/Rhz7riHsqMMApQRqGwSRoEhfscdQ2j2UXgMCX8vKTxW/fxXhQcYBoycoOfeufaKS+S8rp0sMt6zsXHx8sQzU3RBzFtz583X5XiSnWqCv/FqlBYkBCOrECeEZGKLmjasL/3uviWLhJj9buH54NOvdMA0RnONUMPo7eSO1XELz760/fLA4NH68MdV4HZu8Uj2eZknARL45wjkJDxGWBB43KmTt88zfHlDDA8mKsR8PampqTq4GUPN8RoLO1F4bCL+zFN4rHr5LwvPK29/JHMWLNHBxyMH9M0ySgsjqzDkHUPDu3bqoGdR3rYjUb5XQbwYWfXwPbdlKWOCpxGYjHl/0tUHyFczf9GtOb2uuVyia1bPVAMmHgjz7JiRYCYo2j1U3RTCjMuDHp+os27hcQ8tv0oNb79QDXN3J8wbhPmDkNzCg/yDQ8boYe2YNNEepYX9GHm2Zv0Gade6BScgBBAmEviXCCxfvlySkpL0BH+Y6M+dMApr9uyMKSsCjdLCsXgdBFp3MIILsySbhO2QGOxDwDPkCV1kSKecckqmY7HNvEsLcT5oBfonEufh8U6ZwmMx+y8LT5wKBh47aYoeuVRbiUjvG69Wr6mopAlt2LRZx7xgfhvErEwcOVB/GMRv2a6GaT+nj4E43KxiZvB6CLSgzFOzOyNOBwlyA0nCN6f71DByxPpg+Du6uiLUEnE6a2M36tFjGPHVtmVTuee2G3RZM6oLEjRiwP3q1RgZAdroDpugAozNzMtu4cH5Jjz/ug7cxkkgXK2bN1ajLg7IPDURIwKfTbKFB0PvMQQfCfPwoHvNdN/NnrtQXn9vmt6Xl1YrfSB/kAAJnBQCZvg45tJp2bKl+sIV5syngwu643iaNm2qg5PRJYXPeczPg/JI2GcCmzHp4IIFC/R2M8EgMosWLdKvsYAYYRZm92AMzLi8ZMkSXaZFixbORIaBur/0QUH4QeHxDpHCYzH7LwsPUCD25tlX3naoQDLwjxYCY5I9Q7MJ/jX7IUTu0VMYvg1RMe+h+l4FBn/kCgxGYPNBdX4zCzQClweqCQzrHosjym0mZzMLslt4cC+ISxr99IuZYonMPULk8K4vO2jZ7HfHDWEbutggVuYewWX88AEMWDbAuCSBf4GAW07M5d0tMPg8RysQ3qhuElphMGuySe4RWjh+/vz5OlAZMT2YadmIjXtCQgxhx/u7TMIXrJiYGP2FzmyrX7++HtJu8sFeUni8E6XwWMxCRXjQ0oKuF6SxQx8WM0mfeRwzLB2tKmhdcSd3YK4Zlu7ej5mIP/zsG/3STPd2vIoBrT7VVVyMO6HVBoLwi3rXlREC7IeItG3VTE8WGFY84wWnptxvs+fq2ZbxHO6ElqW7VKyP/TwIhn5Bzd9jWnNQBufvpVqU5i1apicstIUHx6AladXa9bJ0xRpZtS5WtyY1VK+hOO/M0+V19S4vdH3ZLTwoh/T5jB/ku59+zzLyDMdj9JcRuIyj+ZMESODfIIDuJrz/CvE2SPZoKnw+YcZldDu5E7qrEI+DV0QYqdm6dausXXusqztA1xXOY2Zu7tixo25RMufE8HbM64N4HyTM0IyZmk9WovB4J0vhsZiFivBYt31Ssnh5KN57VUy9jRzBu7m9lRwzmyaqgGMMNYewoKsqpwTWeBt78s5dugUFrS65NQHjzeXb1Pw64WqEGOYeyu34nK5v4oswySImWwyU8M0N8/3gNRZlVVN2Xt80H+hc3EYCJHDyCCBmB58p6NYKlPBvGZMHQoAw4grBzCcj4fyHDh1SMY7FT+jzKbd7o/DkRijrfgqPxYTCYwEJ4Sy6zpYuXy0P3nVzlg8eSNmAEeN1i9Q9t12vYoaahfCT8tZJgAT+awQoPN5rnMJjMaPwWEBCNOuO+4lSLUG9rlYjwmpVd2ZrRmAyWouQ7HeNhegj87ZJgAT+QwQoPN4rm8JjMaPwWEBCOPuRet8VhsznlG7peaV+/UZOx3AfCZAACfiNALrodqgQAoQaIB4Jfwqp//T/hdSSKQsBCo+FJDvhiVQjjTAyhym0CGDuoE+/mikYcm9GmmE4fG01U/QVl5zHiQVDqzp5tyRAAscIYEBGkmqlpvDk/a8EhcdipYVHbcMSwWfmT1k1twxH5ViwQiyLoGoEOZ9IoHOIPTJvlwRIoIASwKzwe9Qf07qjW3iOteyYUWcF9NHz/VgUHgtddsITplp3KpQvZx3NLAmQAAmQAAn88wR2qRG06aqVh8KTd/YUHouVLTxHVSvPYfUHPaIVw8vpIdpWEWZJgARIgARI4B8jcEi1Vu/clSp/qysWLVpEtVofi+FhC0+OdUDhsfC4hQdBYfiDrpAj6g+6tMqXPf6+FasosyRAAiRAAiRw0glgXrC96M5SAcuI4TFd9aYryyxP+o2E2AUoPFaFuYUH6yaGR8d/qGYeTHhXIpuJraxTMUsCJEACJEACQSWAFzDvUvOIHVXNO5kCllXrjhEdswzqhQvAySg8diWqv0R/4z8lO/iDFh5HejB7ppqdE11b+IvGRAIkQAIkQAL/FAF88d6pYnfwnsCi6neRid9BCw8kR/85NjT9n7qnULoOhSdAbblbeSA7pqUH04UjX7JEmG7pwSsXmEiABEiABEjgZBNA3A5advanH9Cig1djmJFZZol7YOtO9jVB4QnAxi08RnaOHlVD1A9nBDDDssOKF5Ny6t1KHKoeACA3kQAJkAAJBI0AhqCn7t0rB9Cyg7gdTDRoBSsb0THLoF28AJ2IwhOoMq1uLUgPRmvhTeBHjiCAWYmPkp7ChQup1p4SSnpKSamSJQKdidtIgARIgARIIF8E0vany760NNWqk67CK/7OiNlRolOkiJpdGXOKYXZl05WFJbuzcuRM4ckGj93KY0ZsmXgeLM2QdUT9hKnmRbylVzczqr+ITAWdAAaEMpEACZBAMAkU0l+sET5xQAUnH1BLvCsCLTqQGxOzg6V7ZJZp1THLYN5RQToXhSe72nS18uCQv9G6o/78/TdaeTICmU2rD7q7/lb2fVTtg4Wrg/T8CMdPzV+Ox1lwjQRIgARI4DiB4++90muqpQa9B4ULqUBkLDHHzrHWnAzhQYByYb2t0LEv17qVh607x5Fms0bhyQYMNtutPLpryyU9Rn7Q+nN8X8borqzSk8OFuIsESIAESOA/TcDIjumiMiOvsCxS5JjkHFuafeZYgGPrTu5/fSg8OTE61sqDQyA07j+O5KBr69jwdSM55jh9arXPpONrZguXJEACJEAC/0UCx9t11NOrVh0kIzBGfnS3FVp8jsXq2KJjJIexOxpfrj8oPLkhCiA9RmzQpYXOqwzBET1nj9mnFMn8n9sVuJ8ESIAESOA/TCBDcABAq4sWoAy5OSZBaruWHn2IOgYBykaS2JWV5785FJ68oLKkB0VMKw6WSKbFR2fQGqRX+IMESIAESIAE8kbAtOzgaAgNpMesZ5Icyo7m4vUHhSevxLKRHhQ30mOW+pSUnryS5XEkQAIk8J8n4JYdwHBacIzc2Eu27Hj+O0Ph8YLMJT0o5hYc9/rxbi0vJ+exJEACJEAC/2UC2UkPmBgB0uuUnXz9NaHw5AebJT44RSbhyc85WYYESIAESIAEXATckoPNDE52wcnHKoUnH9CcIgHEx9lnr6hjmUiABEiABEjAIaCbdJxctisUnWzReNpB4fGEK4eDvchPDqfhLhIgARIgARKg5AT/7wCFJ/hMeUYSIAESIAESIAGfEaDw+KxCeDskQAIkQAIkQALBJ0DhCT5TnpEESIAESIAESMBnBCg8PqsQ3g4JkAAJkAAJkEDwCVB4gs+UZyQBEiABEiABEvAZAQqPzyqEt0MCJEACJEACJBB8AhSe4DPlGUmABEiABEiABHxGgMLjswrh7ZAACZAACZAACQSfAIUn+Ex5RhIgARIgARIgAZ8RoPD4rEJ4OyRAAiRAAiRAAsEnQOEJPlOekQRIgARIgARIwGcEKDw+qxDeDgmQAAmQAAmQQPAJUHiCz5RnJAESIAESIAES8BkBCo/PKoS3QwIkQAIkQAIkEHwCFJ7gM+UZSYAESIAESIAEfEaAwuOzCuHtkAAJkAAJkAAJBJ8AhSf4THlGEiABEiABEiABnxGg8PisQng7JEACJEACJEACwSdA4Qk+U56RBEiABEiABEjAZwQoPD6rEN4OCZAACZAACZBA8AlQeILPlGckARIgARIgARLwGQEKj88qhLdDAiRAAiRAAiQQfAIUnuAz5RlJgARIgARIgAR8RoDC47MK4e2QAAmQAAmQAAkEnwCFJ/hMeUYSIAESIAESIAGfEaDw+KxCeDskQAIkQAIkQALBJ0DhCT5TnpEESIAESIAESMBnBCg8PqsQ3g4JkAAJkAAJkEDwCVB4gs+UZyQBEiABEiABEvAZAQqPzyqEt0MCJEACJEACJBB8AhSe4DPlGUmABEiABEiABHxGgMLjswrh7ZAACZAACZAACQSfAIUn+Ex5RhIgARIgARIgAZ8RoPD4rEJ4OyRAAiRAAiRAAsEnQOEJPlOekQRIgARIgARIwGcEKDw+qxDeDgmQAAmQAAmQQPAJUHiCz5RnJAESIAESIAES8BkBCo/PKoS3QwIkQAIkQAIkEHwCFJ7gM+UZSYAESIAESIAEfEaAwuOzCuHtkAAJkAAJkAAJBJ8AhSf4THlGEiABEiABEiABnxGg8PisQng7JEACJEACJEACwSdA4Qk+U56RBEiABEiABEjAZwQoPD6rEN4OCZAACZAACZBA8AlQeILPlGckARIgARIgARLwGQEKj88qhLdDAiRAAiRAAiQQfAIUnuAz5RlJgARIgARIgAR8RoDC47MK4e2QAAmQAAmQAAkEnwCFJ/hMeUYSIAESIAESIAGfEaDw+KxCeDskQAIkQAIkQALBJ/B/2KA1JzvU9P4AAAAASUVORK5CYII=;" vertex="1" parent="LrmgL-af4YmyxPPww3Iy-1">
          <mxGeometry x="-110" y="-340.00000000000006" width="252" height="278.43" as="geometry" />
        </mxCell>
        <mxCell id="WI2oVzrPPP1DQgDVgx_B-2" value="待增加欄位&lt;br&gt;payload&lt;br&gt;發送時間&lt;br&gt;回復時間" style="text;html=1;align=center;verticalAlign=middle;resizable=0;points=[];autosize=1;strokeColor=none;fillColor=none;fontSize=16;fontColor=#A31515;" vertex="1" parent="LrmgL-af4YmyxPPww3Iy-1">
          <mxGeometry x="-34" y="-40" width="100" height="80" as="geometry" />
        </mxCell>
        <mxCell id="cmgOUzTX4ZPSbhzmpa98-0" value="" style="shape=image;verticalLabelPosition=bottom;labelBackgroundColor=default;verticalAlign=top;aspect=fixed;imageAspect=0;image=data:image/png,iVBORw0KGgoAAAANSUhEUgAAAgQAAAHKCAYAAAB8CFPPAAAMXWlDQ1BJQ0MgUHJvZmlsZQAASImVVwdYU8kWnltSIbQAAlJCb6JIDSAlhBapUgVRCUkgoYSYEFTs6KKCaxcRsKGrIoquBZC1InYXxd4XCyqKLhZsqLwJCejqK987fHPnz5kz/ynM3DsDgGY7VyLJQbUAyBXnS2NDAxljk1MYpMcAgX9qwA4QuTyZhBUTEwGgDPT/lHfXoC2Uy04Krp/H/6vo8AUyHgBIKsTpfBkvF+KjAOBFPIk0HwBiENRbTs6XKLAQYl0pDBDi6QqcqcRLFThdiTf328THsiFuBICszuVKMwHQaIF6RgEvE/JoPILYWcwXiQHQ1IXYjyfk8iGOh3hYbm6eAs+G2A7aSyDeBjEz/TvOzH/wpw/yc7mZg1iZV7+Qg0QySQ536v9Zmv8tuTnyAR82sKkLpWGxivxhDW9k54UrsDrEXeL0qGhFrSH+IOIr6w4AShXKwxKU9qgxT8aG9QP6EDvzuUHhEBtDHCLOiYpQ6dMzRCEciOFqQaeI8jnxqrkLBLLgOBVnlTQvNnoAZ0jZLNXcOq6036/CvkWencBS8d8QCjgD/G8LhfFJEFMBwKgFosQoiDUg1pVlx4UrbTCLQiE7asBGKo9VxG8FMVMgDg1U8mOpGdKQWJW9JFc2kC9WLBRxolS4PF8YH6asD7adx+2P3wDieoGYlTDAI5CNjRjIhS8IClbmjrUKxAmqfLF7kvzAWNXcbklOjMoeJwtyQhV6C4iNZAVxqrn4qHy4OJX8eIQkPyZeGSeelsUdHaOMBy8AEYANggADyGFLB3kgC4hauxq64C/lSAjgAinIBALgpNIMzEjqHxHDZxwoBC8gEgDZ4LzA/lEBKID6L4Na5dMJZPSPFvTPyAaPIc4F4SAH/pb3zxIPeksEj6BG9JN3How1BzbF2M86FtREqDTyAV6G5oAlMZgYRAwjhhDtcSPcD/fBI+AzADYXnIl7DUT7zZ7wmNBGeEC4Smgn3JwoKpL+EEskaIf8IaqM07/PGLeBnO54IO4L2SEzro8bASfcDfph4f7QszvUslVxK3Jn/Js8BzP4ruYqO4ozBaUMoQRQ7H6cqeGg4T7Ioqjo9/VRxpo+WFX24MiP/tnf1ZkP+/AfLbEF2F7sFHYMO4MdxBoAAzuCNWLnsUMKPLiGHvWvoQFvsf3xZEMe0U/+uCqfikrKnGudO50/q8ZAvmBKvmKDsfMkU6WiTGE+gwW/AgIGR8wbPozh4uziAoDim6J8TXVf6P9WIIba33Rz8gAYVdXX13fgmy7yLgD7XsBtfuubzrYEvg4KADhdwZNLC5Q6XPEgwLeBJtxRhsAUWMJvlhNwAR7ABwSAYDAaRIN4kAwmwDoL4XqWgslgOpgDikEpWApWgQqwHmwC28BOsAc0gIPgGDgJzoGL4Cq4DddPB3gOusE70IsgCAmhIXTEEDFDrBFHxAVhIn5IMBKBxCLJSBqSiYgROTIdmYuUIsuRCmQjUoP8jhxAjiFnkDbkJnIf6UReI59QDFVHdVET1AYdgTJRFhqOxqPj0Ux0ElqIzkMXo+VoNboDrUePoefQq2g7+hztwQCmhulj5pgTxsTYWDSWgmVgUmwmVoKVYdVYHdYE/9OXsXasC/uIE3E6zsCd4BoOwxNwHj4Jn4kvwivwbXg93oJfxu/j3fhXAo1gTHAkeBM4hLGETMJkQjGhjLCFsJ9wAu6mDsI7IpGoT7QlesLdmEzMIk4jLiKuJe4iHiW2ER8Se0gkkiHJkeRLiiZxSfmkYtIa0g7SEdIlUgfpA1mNbEZ2IYeQU8hichG5jLydfJh8ifyE3EvRolhTvCnRFD5lKmUJZTOliXKB0kHppWpTbam+1HhqFnUOtZxaRz1BvUN9o6amZqHmpTZGTaQ2W61cbbfaabX7ah/VddQd1Nnqqepy9cXqW9WPqt9Uf0Oj0WxoAbQUWj5tMa2Gdpx2j/ZBg64xXIOjwdeYpVGpUa9xSeOlJkXTWpOlOUGzULNMc6/mBc0uLYqWjRZbi6s1U6tS64DWda0ebbr2SO1o7VztRdrbtc9oP9Uh6djoBOvwdebpbNI5rvOQjtEt6Ww6jz6Xvpl+gt6hS9S11eXoZumW6u7UbdXt1tPRc9NL1JuiV6l3SK9dH9O30efo5+gv0d+jf03/0xCTIawhgiELh9QNuTTkvcFQgwADgUGJwS6DqwafDBmGwYbZhssMGwzvGuFGDkZjjCYbrTM6YdQ1VHeoz1De0JKhe4beMkaNHYxjjacZbzI+b9xjYmoSaiIxWWNy3KTLVN80wDTLdKXpYdNOM7qZn5nIbKXZEbNnDD0Gi5HDKGe0MLrNjc3DzOXmG81bzXstbC0SLIosdlnctaRaMi0zLFdaNlt2W5lZRVpNt6q1umVNsWZaC61XW5+yfm9ja5NkM9+mweaprYEtx7bQttb2jh3Nzt9ukl213RV7oj3TPtt+rf1FB9TB3UHoUOlwwRF19HAUOa51bBtGGOY1TDyseth1J3UnllOBU63T/eH6wyOGFw1vGP5yhNWIlBHLRpwa8dXZ3TnHebPz7ZE6I0ePLBrZNPK1i4MLz6XS5YorzTXEdZZro+srN0c3gds6txvudPdI9/nuze5fPDw9pB51Hp2eVp5pnlWe15m6zBjmIuZpL4JXoNcsr4NeH709vPO993j/7ePkk+2z3efpKNtRglGbRz30tfDl+m70bfdj+KX5bfBr9zf35/pX+z8IsAzgB2wJeMKyZ2WxdrBeBjoHSgP3B75ne7NnsI8GYUGhQSVBrcE6wQnBFcH3QixCMkNqQ7pD3UOnhR4NI4SFhy0Lu84x4fA4NZzu0Z6jZ4xuCVcPjwuvCH8Q4RAhjWiKRCNHR66IvBNlHSWOaogG0ZzoFdF3Y2xjJsX8MYY4JmZM5ZjHsSNjp8eeiqPHTYzbHvcuPjB+SfztBLsEeUJzomZiamJN4vukoKTlSe1jR4ydMfZcslGyKLkxhZSSmLIlpWdc8LhV4zpS3VOLU6+Ntx0/ZfyZCUYTciYcmqg5kTtxbxohLSlte9pnbjS3mtuTzkmvSu/msXmrec/5AfyV/E6Br2C54EmGb8byjKeZvpkrMjuF/sIyYZeILaoQvcoKy1qf9T47Ontrdl9OUs6uXHJuWu4BsY44W9ySZ5o3Ja9N4igplrRP8p60alK3NFy6RYbIxssa83Xh4f283E7+i/x+gV9BZcGHyYmT907RniKecn6qw9SFU58UhhT+Ng2fxpvWPN18+pzp92ewZmycicxMn9k8y3LWvFkds0Nnb5tDnZM9588i56LlRW/nJs1tmmcyb/a8h7+E/lJbrFEsLb4+32f++gX4AtGC1oWuC9cs/FrCLzlb6lxaVvp5EW/R2V9H/lr+a9/ijMWtSzyWrFtKXCpeem2Z/7Jty7WXFy5/uCJyRf1KxsqSlW9XTVx1psytbP1q6mr56vbyiPLGNVZrlq75XCGsuFoZWLmryrhqYdX7tfy1l9YFrKtbb7K+dP2nDaINNzaGbqyvtqku20TcVLDp8ebEzad+Y/5Ws8VoS+mWL1vFW9u3xW5rqfGsqdluvH1JLVorr+3ckbrj4s6gnY11TnUbd+nvKt0Ndst3P/s97fdre8L3NO9l7q3bZ72vaj99f0k9Uj+1vrtB2NDemNzYdmD0geYmn6b9fwz/Y+tB84OVh/QOLTlMPTzvcN+RwiM9RyVHu45lHnvYPLH59vGxx6+0jGlpPRF+4vTJkJPHT7FOHTnte/rgGe8zB84yzzac8zhXf979/P4/3f/c3+rRWn/B80LjRa+LTW2j2g5f8r907HLQ5ZNXOFfOXY262nYt4dqN66nX22/wbzy9mXPz1a2CW723Z98h3Cm5q3W37J7xveq/7P/a1e7Rfuh+0P3zD+Ie3H7Ie/j8kezR5455j2mPy56YPal56vL0YGdI58Vn4551PJc87+0qfqH9ouql3ct9fwf8fb57bHfHK+mrvteL3hi+2frW7W1zT0zPvXe573rfl3ww/LDtI/PjqU9Jn570Tv5M+lz+xf5L09fwr3f6cvv6JFwpt/8ogMGGZmQA8HorALRkAOgX4flhnPLO1y+I8p7aj8B/wsp7Yb94AFAHO8VxnX0UgN2w2QRA7tkARMM+PgCgrq6DTSWyDFcXJZdGLQAk876+1/B8Q4Htc2hfX29MX9+XKhjsFQAOP1XeNRVChHeDDc4KdMlsL/hRlPfQ73L8sQeKCNzAj/2/AHu+iQ3TKrvRAAAAimVYSWZNTQAqAAAACAAEARoABQAAAAEAAAA+ARsABQAAAAEAAABGASgAAwAAAAEAAgAAh2kABAAAAAEAAABOAAAAAAAAAJAAAAABAAAAkAAAAAEAA5KGAAcAAAASAAAAeKACAAQAAAABAAACBKADAAQAAAABAAABygAAAABBU0NJSQAAAFNjcmVlbnNob3TGMPrDAAAACXBIWXMAABYlAAAWJQFJUiTwAAAB1mlUWHRYTUw6Y29tLmFkb2JlLnhtcAAAAAAAPHg6eG1wbWV0YSB4bWxuczp4PSJhZG9iZTpuczptZXRhLyIgeDp4bXB0az0iWE1QIENvcmUgNS40LjAiPgogICA8cmRmOlJERiB4bWxuczpyZGY9Imh0dHA6Ly93d3cudzMub3JnLzE5OTkvMDIvMjItcmRmLXN5bnRheC1ucyMiPgogICAgICA8cmRmOkRlc2NyaXB0aW9uIHJkZjphYm91dD0iIgogICAgICAgICAgICB4bWxuczpleGlmPSJodHRwOi8vbnMuYWRvYmUuY29tL2V4aWYvMS4wLyI+CiAgICAgICAgIDxleGlmOlBpeGVsWERpbWVuc2lvbj41MTY8L2V4aWY6UGl4ZWxYRGltZW5zaW9uPgogICAgICAgICA8ZXhpZjpVc2VyQ29tbWVudD5TY3JlZW5zaG90PC9leGlmOlVzZXJDb21tZW50PgogICAgICAgICA8ZXhpZjpQaXhlbFlEaW1lbnNpb24+NDU4PC9leGlmOlBpeGVsWURpbWVuc2lvbj4KICAgICAgPC9yZGY6RGVzY3JpcHRpb24+CiAgIDwvcmRmOlJERj4KPC94OnhtcG1ldGE+CkBxBdMAAAAcaURPVAAAAAIAAAAAAAAA5QAAACgAAADlAAAA5QAAUZolJV07AABAAElEQVR4AeydB4AUNRuGvyv03jtSFekIiKLYEEXBjgUQLFhREQVELDRRpCiIDVFUVKzYUGz8qCgggoAU6b33Xo/2582RITs7u7d7W+443ii3M2kz88zs5s2XL5mE3fsPHhcGEiABEiABEiCB05pAAgXBaX3/efEkQAIkQAIkoAlQEPBBIAESIAESIAESEAoCPgQkQAIkQAIkQAIUBHwGSIAESIAESIAEhIKADwEJkAAJkAAJkAAFAZ8BEiABEiABEiABRYA+BHwMSIAESIAESIAEKAj4DJAACZAACZAACdBCwGeABEiABEiABEhAEeCQAR8DEiABEiABEiABCgI+AyRAAiRAAiRAArQQ8BkgARIgARIgARJQBDhkwMeABEiABEiABEiAgoDPAAmQAAmQAAmQAC0EfAZIgARIgARIgAQUAQ4Z8DEgARIgARIgARKgIOAzQAIkQAIkQAIkQAsBnwESIAESIAESIAFFgEMGfAxIgARIgARIgAQoCPgMkAAJkAAJkAAJ0ELAZ4AESIAESIAESEAR4JABHwMSIAESIAESIAEKAj4DJEACJEACJEACtBDwGSABEiABEiABElAEOGTAx4AESIAESIAESICCgM8ACZAACZAACZAALQR8BkiABEiABEiABBQBDhnwMSABEiABEiABEqAg4DNAAiRAAiRAAiRACwGfARIgARIgARIgAUWAQwZ8DEiABEiABEiABCgI+AyQAAmQAAmQAAnQQhDZM3Bc5Lj6j4EESIAESIAE0kMgQRJUS5yektEvwyGDcJlaIuD4cSUHDh0WOXxU5Ngxj5ooFjygMIoESIAETjMCHi1+oopLTpKE7NkkISlR88hocUBBEOpjeUIIQAQcW7dVjkxfLEfmrxI5osQAAwmQAAmQAAmkk0BSlTKSXL+qJJ1VVhISIAuUWPDQEOmsPuRiFARpobItAsoKkPLDdDkyY3FapZhOAiRAAiRAAmERSKpaRrJd2UCSiuTX5eItDCgIgt0u2yqwY6+kjPlTjm3YFqwE00iABEiABEgg3QQScmWXbDdeKMmVS8fdWkBBEOi22WJg/0E5NOp/cnzLzkC5GU8CJEACJEAC0SGQmCg52jWVpDNKxFUUUBB43T5LDMBnIOWziXJ08VqvnIwjARIgARIggagTSCiUT3Le30I5HSbHTRRQELhvo+UzcEz5DBz5d5kc/m6qOxf3SYAESIAESCCmBJIbniXZmjeQRGUxQIi1TwEFget2wiKAADGAfylv/SDHt+5y5eIuCZAACZAACcSeQPZO10lSgbwnRYGahRCrQEFgkz1hHYAQQDiyfqscHvmznYPbJEACJEACJBA3AsmX1pFsF9bUx4OlIJZWAgoC67a6rQPH1XBByrhpTo7EPDkluVhBSS6cTym2PJKYN5ck5MohiWqMR04sLOFk5gYJkAAJkAAJBCJwTC1sd/iIHDuQIsf2HZSju/bJ0R175MiWXWp7r1MqqUJJSW57qbYQOEMHMbISUBAY7JYjoRkuSJg4V92wo5JY/0w5mj+3HE0dTTAl+EkCJEACJEACUSeQqBr85AOHRBaslkN/zpFsj9/oCIJYLlxEQXDiVtrWAWwfPXJEkvemSK6ShaN+s1khCZAACZAACYRCYP/2PSI5k0QpAj3bIJZWAgqCE3fEFgRHjx7VDoUJkiT51LAAAwmQAAmQAAlkBIHdew4oLaD82pTVICkpSVsKcB6wFEQ7UBCAqMdwAURBYmI2yaf8BhhIgARIgARIICMIQBAkJByVBGUhgHVAOxYqMRAL50IKAnWHjXUAn/Af0BYCCIKk7BQEGfEN4DFJgARIgAQ0AS0I5IgeMjAWAmMdMJ/RQkVBoEh6CYIj8CFIzkFBEK0njfWQAAmQAAmETQCC4Pjxw6qDmuQMGRghYD7DrjRAAQoCBcZbEBxWgiAnBUGAB4fRJEACJEACsSeQKghSlCBIpiCIPW5fQWCGCw4rC0G2bBQE8eDPY5AACZAACXgTgCA4dixFkpLhUJhqJTCWAfPpXTL8WFoIFDPbQgBBgH8YMqAgCP+BYgkSIAESIIHoETCCwAwZwI/ACAHzGa2jURAokhQE0XqcWA8JkAAJkEA0CVAQRJNmCHVpQXBi6iEtBCEAYxYSIAESIIG4EPAUBGrSof4/ymsR0EKgbikFQVyeax6EBEiABEggTAIUBGECizQ7BUGkBFmeBEiABEggFgQoCGJBNUidFARB4DCJBEiABEggwwhQEMQZPQVBnIHzcCRAAiRAAiERoCAICVP0MlEQRI8layIBEiABEogeAQqC6LEMqSYKgpAwMRMJkAAJkECcCVAQxBk4BUGcgfNwJEACJEACIRGgIAgJU/QyURBEjyVrIgESIIHMSGDP3n2yfMVqfWp5cueSKpUrZMbT9DsnCgI/JLGNoCCILV/WTgIkQAIZTWDhomXyTN+XnNMY3P8pqVC+rLOfWTcoCOJ8ZygI4gychzvtCEz882/Ztn2Hvu4zq1aSmtXPPO0Y8IIznsBLr7wtf02bpU+kfLky8vKLT2f8SaVxBhQEaQCKdvKpLgjWb9gsn475Tg4dStFoSpUsJnfe3iramDJlfXgJ1aChbzvn1rzZxVKvTnVnnxsZT2DxkuXyVO/Bzom80LurQBScrmH5yjXy2Zjvncu/v0NrKVyooLOf1sbIUZ/L5i3bdLa6tc+Wq664JK0imTJ99dr1MvrTb51za9f6eilbppSz/7/fJsv0GXOcffdGvrx5pFixwlKieFGpX7em5MuX153Fbx+/lZ269nbiH3ngDrm4SSNnPzNuUBDE+a6cqoLg2LFj8vXYX+STL8b6ECterKi8MbSvT1xW3YEIant3Z+fy7mzXSlo2v8zZ50bGEsB365EuvWXjpi36RBrWry3dH38gY08qg4+ORm7Ay8Odsxgy4FkpV/ZkQ+gkBNi496EesmPnLp163rn1pOuj9wbImbmjp/0zWwYOecs5yV5PPSq1apzl7L82/AP5/c+pzn5aG3VqnS1tbrlWKlc6I2jWZ/u+LAsWLdV5SpYoJq+93Cdo/oxOpCCI8x04FQXB6jXrZfArIwSK1x0oCCgI3M9ERu2jlzf8ndHO4d98pZ8UK1rY2T8dNygIUu96tAWBeZY63HFLUKvJz+P/kLff/9Rkl4HP95BKFco5+5ltg4IgznfkVBMEH38+Vr769qeAlCgIKAgCPhxxTnj48V6OdaBSxfIysN+TcT6DzHc4CoLUexKuILiuZTPnZh4+fES2bdsh6zdukjVrNzjxZuO2m6+RVtdfZXZ9Preqcg90Ouk7cPGFjeSRB+/wyZOZdigI4nw3TjVB0KptRx9CGDf/d85854eXgoCCwOcByaCdZctXSfdnBzhHv//u1tKsaRNn/3TdoCBIvfPhCoIxo9/wfGTgTzHqoy/l73/+9UkfpHr+FQP0/O9/5Cnl5LpT58+tpiB+8PbJ2Qc+lWSCHQqCON+EU1UQFClcULqo8cMzq1SUx7o/5yjlWAsCOPLNnrtANmzcoj3HC+TPJyXUWFy92tUlZ84cAe/eCuVMtWFj6hBHyZLFtZkO7BcvWaGch2bLQeUP0LzZRT6ORajs6NFjSvD8Jxgm2bV7j5QpVUJq1awmGP8L14dg9+69Mve/hbJBjWkfOHBQypctLRXOKCvly5WWhADvFscPx6LFy/R15cqVy3FaxHDN39NnyZat2+Uc5dTU4JxaAa89WEJ6uaBOnMMa5Zy1dt1G2bd/vzbHn6G8p6ufXdXvkEePHlXne/JHEw5cuG53WLd+o6xavc6JrlenhuTKldPZNxsz//1PDh48qHdLly7hN4Xr1eGjBLMLTPjwnZc96zHpOD/09iAk1q3fJPkLqOdKOYzVUjMS8ioHslACzn2RcmLctHmrJCYm6nNCo1C8WJGAxW3+BdQxa5ydOgNir5q3PmfeQlmm5q7DpIz4ggXzB6zHTti3b7/MnP2fuj+b5NDBFDXn/Qw9Pg7Ht1gIAnwnV65aKwvVte/YsUtKKm5nV6vi913COcKpceOJ7yH28ewG+t7iu4dn3IRy6vsSjr+DKef1GS1BYOr+9IvvZMw3P5pdfZ7wz/AKI979RH6Z8KeT9M7rL4Z8b51CcdqgIIgTaHOYU1EQXK/MZ62VA01SUpK+jHgIAnD68puf5Es1XHH48GGDz/lMSkqUZpddKHe0bSXZsiU78WbDdhLCjwqcobo+1d+nri6d7pHzG51jisifk6fr8b79+w84cWYDx2rf9kZp1+FxEyWBnAoPqIZrxMhP5M8p05289gbEReeH7vJcrGTSlH9k6OvvOtk/HPmyPPnsQNVobXTiml7SWB6893ZnP5yN9HBBQzN85Mcyf8ESz0NBpIFFk8YNnXTcvzZ3dXZ4w9MfHv/u0H/wmzJj1lwn+uEH2sslTc5z9rEBMdXunpPcm1xwrjza8U6fPB0e7K4FHCJLlyouwwb39km3d775frx89MnXdpSzjecKnvTt29yoG3knwdpYu26DvD7iQ1mydKUVe3Kzfr2a8sA9baVQwQInI09s2fwxL/25no8LHM9Wrl7rlxdT1Z7v3UVy5fQXSMgMxh9+/LWM+/lXLWTdFYBlnty5o+pU2FqZx3s+N8RhbR+z2pmV5XH1nSpc6OR1f//Tr/L+h2OcbF731yTOmj1fnh/4mtmVa1tcru+DExHBRrQFAdh3U78n9n17Y+hznmIQwnjQ0BHO2T/+SAdpfF59Zz8zbVAQxPlu4EES/f9x9SU+qv9BcWfLllPy5fH+4sf5FH0Ot2fPXr8pNrEWBODx/MDXVe96kc+5eO2UKV1S+vXqIpgWZAf7h7dokcLqx/OYY7Yz+WxB8M13v8hHn35jkjw/GzWo62Mq9BIE6OE/1Wug37G8KvRySHILAvcxUU+0BEEoXGCdee7FV71O3y/O5onEQUNGOLzQ0H783iuOqES6WzQg7nzlyQ5LlB3cP6hPPHa/nNugjpMFq8LddX83Z/8yJZg6eggmfN/wXKEnnlYI5FGPZ7LfgFc9G2C7Tlzv8726+ok++7lEg58jR7aAwgL1QTT079tN/T5ks6vX7HBf0roW9/MTySwDiDpYOLwEujk5mMThuwHRi4Dfj7seeMIka8sFPPy9witvvK9E+TQnadjgXkrclXD2I9mItiDAuWCNAaw1YMLNN14tt97U0uw6n+7hLHSwbm99g5OemTYoCOJ8N041QeCFJ9aC4H01Rvf9jxN8Do3GC/OgYaJ1O/ZgLYCnn3jYJ7/9w2sn4IcVZt0UNWRwt/IQrq5MnfiR6/Z0fzubargS1YI2Z6leYoL+0YU50x3cggD39olnXtT1mbw4Xm015IBe67z5i33SkMfdq3ALAlMPPtE4ZMueLI0a1hP8qKQnhMMFQyT3PtxDbIsJhFf9erUE5u7Jf82Qrdu2+5zGJ+8Pcyw2sLi88sZ7TnqfZzo7JnJEonfVtccLTjo2YE7+aOQQn7g33v5Ifv19ihM3+t2hqiHN7uy7zeId77tdLru4sZNuNjDs8MKg182uPhaupYYa8sDY8E/jJ6phiUNOOp4pe50JDCE90OkZnwbR8ICVCj1cmwee2deH9NXPkqk0EH8IWwwV4Nm2e50oB4c1OK7Z4bsfJsio0V/aUfp6YJLHtEuzbK5PBrUTiSCw64L1o6aatrdo8XLFbqudpJ9TrMxnQs9+Q3ysS+77h3xucZiWlcfUHepnLAQBnpmOnU8OE2Aq4rNPPuJ3StvVsMp96ntkQiDBatIz8pOCIM70KQiCA4d5ulNX37m6A57r7jPfFz+6nZ94zufH+6luD6nxyRpO5V4/vIEWBumhevS2+Re9qs4P3+00bOhZvjxspNPbNQdxC4JfJ06RN0Z8ZJKlapUK0q9nF59e8Yx/50n/QScdlpCnf5+TPSgvQYDhinvuvNWnHucgYW6Ew+Xzr8bJ51+Oc45w9ZWXyN3tb3H2sfHuB5/LDz//7sTBWgPTMcI+NfRyx71dnDS3CRizVzCLxR2GDuypxqNLOtH2XHivoQd3PS/1f1rOKF/GKW827B4ohMebysRrLzCzc+duebhLL+e5glkX5l0TXn51pEyZOsPsyo3XNddz0Z0ItfHBx1/J2HH/c6JuuamF3HJjC2ffzR/Cs88zjznMkPG3iX/pIQlTCD4afVUeE9BDv73DYz5WClib4PBrfFPgk/BY937OGgKmbDQEQe+nO/us/ojhrMef7OdzPt0636eEa119WPcz3fmhu+XCxg3MKelPiOXezw914rDYWcurouewGwtBgJO9tf3DznVjaNLLjwBruNzS7mSHJTOvj0FB4DyC8dmgIAjO+UM1tvutGuM14Y62N8k1Vzc1u86nu2FFT69H1weddPcPr5d5Hpnd5mb0+DB/3e34hJ7jQ4/19Bk7dQsCWAdMzwxOmK8M6uVXD47pHp4Y/Z7q8WZP7fG6fzzd14XykYRQuZhjoLf5n/Id2KJ6Q7e2auk0OCYdK8A9rhoeE2AKta0XsACYHi96wa8M6mmy6hUFsbKgO9j3HEMw8NI2wU4zcegpo8dsQiCnLXtaIu7zu8MH+l0P1qDfvmOncv4sJ1iF0zSwh1JSpL3yYzCWIq+hDXN8NGxo4BDcPV03f/iCYAjIHewFbdxWE/cQChwxn37iIXcVnhaYSAVBILP45L/+kSGvnfR9wZAOhnYQ3ALG63zdVqD31L2xxZrfxYUZEStBYD/feKbee2uQ55m1vvNRx7LkJWo9C2VAJAVBnKFTEAQH3rFzT8cEifHIUSMGOz/K7pJ2A4ye1mcfnHRIcv/wvvvmQMmfP6+7Ct3jQ8/PhGDT1X785XfBUq4m2ILA7fjW6oar5TbVgHoFNLJonEywFytxC4LHVA/1Ag8HJHiWD7BWXjN1uT+xjn+wHmogLu56vPbxLOOH1naYukJN9btPTfkzAZ7Y8Mg2wXj/w0/ktjs6mWjdG/z+x1/1Ps4ZvVCECWqxoTetxYbcQyzI455hgOcAz4M7wH9glvLGNwHOiTer+4RGO63gHpaA5afaWamWEHdZezGatJ7Lt1/v7+l86OaGhgYNDoK78cTqd2bM3n0u7muOVBB88dHrAb+P9nfXLWKGqO/Y5BPWFTDBsJDxi8BzBKdRM1zjtoi4ryk9+7ESBP0Hv6GcYufpU3Jfs32e8HFB5wPh7LOqaGdSOz2zbFMQxPlOUBAEB26b4NL6YXBP53lf/WiaKWO2IAg29xeN0PsfjXFO6oU+3fTUSifC2oCXPcZDTbAFAaYpwmxqhypBljVdqqa7mWAPZbgFQaAfe/eCJ6Yu9yeWZ7WduELl4q4HwzRz5y2SFavW6CmZm7dsV46T250es8nvFgTwyMfwjgnGlAznvD4vvKKjMdbes0cnZ913NBjwRcBUPiw3ix9zBIxbowF1BzuPuwG287obBZOGxhScIEQwBu817dE9Zg9/juTkJFOFzyesGma5XyTYjb7NP9i5Yhld5DVhxGv9He99OBPC2RMBdXw66tWAjbR7YbFIBAHu0/Bhvs+4OT982k6k2LfFg32/kWaeA2y73wz4mBquu+B83yEF5IskuO99WksXB1qHwH0OT6q1L8x3Gc9RoKWJ7d+1QL4G7rozYp+CIM7UKQgCA8dY/a3tTzrlYPoXTP2BApzA3nn/Myf55QHPCOb6I9g/vMEEgXvMFz0X93CBOQDWFbj7wZPj/bYgcE+ZMmVC+bTHot2CwKtHjDrjJQjgcDnivU98fCyCXZNbECCv3TsyDlW246jxTbDzGV8E29Qa6HnAWv3owZsQ7Mcc4s9YIkx+9yemDd53dxvBsI8J9vmauFA/Mf5v1moI9bkMJghsM3Va64C4n6dIBIFbXLqv/7Mvv5cvvvrBiR755gDBlFQE/O7dcV9Xx0HVHlKwhT0Ezkcjhzr+O05lEW7EShDYz2ygDozbh8Br2myElxe14hQEUUMZWkUUBIE5ub84l196gZ7PHaiEu3eP8WmMUyOE+sPr7kEFGn9GnW6vYlsQeE3Pw49bKOGGa650vMjdP+CBBAHGtO2FfwIdBwsH2Q52oXJBfUuXrZSn+wz2swIgDeZeLNp0ZtWKPouueAkC28SNBgINBd4CZ96NYXpr9rlBJF2oeom21cXtzIbzQLDLYd8MS2DbK8xfuFTPYsH6B8YnwJ0P9w6Np5n29sFo5Sz4w0lnwVDvLeqF9cMsQGSfazChGkwQ2ENlhqf7/M2++/0OkQiCtEzdbl8O22KH83n3gy+UA+pv+tTAz0xDba8cT81MFqxl8ahaoyPaIRaCwO0/4/Xs4zp27dotHTo+6VySEcBORCbaoCCI882gIAgO3O4RwuT+opphECjYP67IY/fu7bRgP7xuvwBMG4JJzyv8M3OuvPjSm06SLQjcpnEsTANBE24IVRCEW6/JHyoX5HdPF0ODcP01zdTYeRW14E0uU6XY98zrR9HtAIpZAF16PK/L2w2D/aONOfoXXdDQWRsiNd8wT98Ad0PknqXgnKhrA2JgpRoCWaAcCSGuzFvpTDZ7Bsi4n36T9z78wiT5TRd1EtLYCJV/MEHgXszp01HD1PBFsueR4fOCZ9yESARBMKc51I8hIHvtELelxt2APtnlQSmopq8+2XOgOT09m8JYU5zIKGy4nR7d4tK+Lzic+9y9TsEWukgP5FeCtSL69h/mVBHIwdnJkIEbFARxhk9BEBy4vcYBeqEfvD3YcT5yl7S9xpH3k/dTx6SRz/6CBxMEcDKD45UJXnO+TdrHn30rX4392ez6rFQIhyhMBTMB7z2Hb0C4IbMIAjynt93xiNODDjTu6V54xksQ4OUwre886UCIH3yz6qHtQOhmiPUiMGSB4OWZbtjinuDemGAsDmY/1E8sydylx8npcxAhZnze/ZygF2uvzBjqMUJ9LoMJAvewB1Y7hFjzClhfwzBEeiSCAOUDef9juA8LEJmefiDLhe14iGmdEARm2mpaggPH9wqY+orlpxEqq5datbn1Or9sbkuge2qqfV9QOC1BAPGImSAm4DcmkAO0e/qu+9imjszwSUEQ57twuggCjHHDVJbW+8Ld+N1T8jAH//4ObdzZxL0kKpa7xbKoJthf8GCCAI3V7R06Ow0fynutkAbz9mPd+/rksy0EKGdPFYNAwQtP7Pn0yIOwUL2r4KVX3lFT28oI3srX7LImUrRIIZ2WWQSBu3HGUr5YR8Adxqs12t9Sa7Wb4CUIkOa2Npj87t6SbQ43efAZaHoe0tyWG6/lcTGzA8/WarXwzwa11gVmQtjLVqMeBLc/gul9o8Frc9ejzv3HzIRBzz/ls0BSag0iXyuBMkEtpIR7i8WGMG3WLPsd6nMZTBC4GyP4Orz2cl+/cXe82wEzMOwQqSDAIlsYAnEHezgAaYG+t7Z4g+DKkSOHIyLc61S4jxFo3+4YoE4sfGRbTPCbi+fKFkaj1AuGbCuXfV9wnGCCANaGYW++7zwLyP+gsgg2DWARtC0ntshEucwWKAjifEdOB0Fg96ThjT3ohR4BvaDd+LE4zP2dnvL5sqHRuOSi8/Sa7mjA/1Fjv/aSoajDnrqHffsLHkwQIC/qwjKkJsBRC2vlY3wc89Axlv7yq+860yFNPrcgcM8Px3GxfK39gha87OU5ZT40U5DwAzHi1RfUyn/5dbWZRRDgZLAqn1l5D74ZA59/0lkvAenuqXiICyQI3EMzyIvg9pFwT7dLzaXGnwNMG0U6FuG5M42li90OoRBsWJjIfoEQ7vOzap1+szSvu8f6lnqfw/hfJ5lT0gtPYUEsMx0QCW7TdLB1CII9l8EEAX5D7la9cfMM4bhYTKtdmxv09ENM6YST6+BXRvh8j5AvUkGAOrDOxLUtmulpvFh86o9Jf/tMx0WeF/s+4bdsM+Ix+wILTXkFLyHulc8dZy84hTQMNfbo1lE7NELYfvz5t44VAumwPEGs28H+vUC8vV5GSsph7cSLF3v9MmGS850w5QNZz5COexXKOz1MXRn9SUEQ5zuQ1QUBlrttf+/JBVyAN9i4vBd+vBkMnsfugIbaa6qbl5OO/QUP9sOLY3iJEMSj0UAwDYTesf64BQGS3PO+EYfjw5SJJUztlxQhzb1eQWYSBO7xZ5wvFlVBA4gFmOypdUhDCCQIsNjPfQ8/lZrpxF8vszLefGj8C0xmd6Nq4u1PezVDr3qR156uZ8piqlgZ9fZE+BEYc7dJa6Ne6AXnRhPQuDz46DM+DTHS0EOH8yGGHNxM3Ob8UJ/LYIIAx3T7ZSAOAc/aoUOH/IRAamp0BIGpC9eNKZbugCmDmDoYKLhXBkW+UO5xoPrcvgkmH1i47ynSvIaU7PtiyofyiaGap5T48JqqivLu6ZbpHWoK5VyikYeCIBoUw6gjqwsC9ODhNWw3olhBECvuhRPcrxcNVBbjuDARG5OsyWd/wdMSBCiDWQJY5z6Q1znywFIRaGEipCPgTYcvDHzDz0EtNdX3L5YwxdK4RnggNTMJAgz7PN17kOePvrkSNAoHVENpfngDCQLkty0O2A80iwS+GGh8Tbjp+ubS+uZrza7np32/kcFteUAcFnPq9vSLfpYepLnD9ddcIW3VWLRZqdCkQ9AFetufyWM+cc44dzvY5xnsuUxLEKDOL77+QT4b871dvc82rE/tWt/os85GJBaCyy4+XzBDA8MvgQKGSTDNMtDUXZRzL82MuEiXKsZ5QfDZvzuo1x0CdU7s++Iu47UPthCLWPTL/YzY+bF6I6xGCPief6TeXur+rbLzZ/Q2BUGc70BWEAT2OK97OVrgxHTADz/5SjeuMN9hTrk9phcqcjTSn6i17s3CH3Y59OywTvxFarU5r2B/wQP1GN3lsLgQHJTMsrMmHT9uGMPGioGt2nY00T5OhU6k2sA9xhoJGLP26kGhEe1wx60+b+wz5d2CwF7UxuSJ5DNcLhA4g4e+7SyEYx8bTmH33nWbXrrY9IxbXtVU/bjfZGdztt2zAWDWra8WAnIH9zsD3MNB7vzYx1DME9YLqu5qd7O0aH6pX1aYuLE0NhYacjce+JFHTx+NU6CZJqgQdYxRjfFP4//wqwPpaBThUGoPFSEeIVT+WNUPq/uZEMiZDzMzsEaC+wVDsKY92eUB/epoTB01IdBCVybd/Wk7AcIS1/bW62WYeivh3//865MVjR18JW5V38m0Gjy3fwoqCnR9PgdJYwdCZbha1XLRkhU+9wXnVu3MSsoad5Uz/dNdlb0WgjsN+6gDC2OVKF5EmqjZL7CCmOXGvfIjDs+X/c6Jq6+8VL0L5OZA2TNFPAVBnG9DIEGQlJRdCuTLHeezid3h0JBgOd/ChU4u7pLeo2H8d+OmzbJH9fBy58qpvpRFo1JvoPPB8fCSpRT1hYZTYCTXgF72lq3bZL9iASFQVo3Fp0ccBTrXeMXDcrJ6zTq9FkOhgvkF0wKD9QLjdV72cWznMrxgCUI0UMCaF7g3WFtCuYmoe1NIP1fBenvuusBk0+at+v4iDc8l/oVTh7vO9O5v2bpd99yxeiLuje0wl946g5WDJXDp8pXKf2O/lChRVEqXLB7yc+1uKAMt6BPs+GmlYYhq1er1ejioeLEiaWWPSbq9UBMExTtqlc08eTL3bzwEwXE5rJ7hRC3sIO4S1H/6f3xRohgSdu8/eDyK9Z2SVZ0uguCUvDk86VOaADz731SvSjYh3N6wKcfP2BJwT8OLxVLFsb2CtGt3+yVhphRmXmT2QEEQ5ztEQRBn4DzcaUMA361HuvR2xrgz8xKxp81NOXGhcBaFzwTWn3jj7Q8dXx3EvatWrjwVrWbB7iGmFpslsvPny6uH1jLCchTsHL3SKAi8qMQwjoIghnBZ9WlPAFMH7ZXvAk1/O+1BxREAhlba3NXJEQH2oTup6b2B/IDsfNyODwEKgvhwdo5CQeCg4AYJxIQAHDO3bt+h665b+2zBWhgMGUfAPfXOnAkWE3vo/nYZ4nNhzoGfvgQoCHx5xHyPgiDmiHkAEiCBTETgj8nT9LoimF0AR9SKZ5STZk0vpGUgE90jcyoUBIZEnD4pCOIEmochARIgARIIiwAFQVi4Is9MQRA5Q9ZAAiRAAiQQfQIUBNFnGrRGCoKgeJhIAiRAAiSQQQQoCOIMnoIgzsB5OBIgARIggZAIUBCEhCl6mSgIoseSNZEACZAACUSPAAVB9FiGVBMFQUiYmIkESIAESCDOBCgI4gycgiDOwHk4EiABEiCBkAhQEISEKXqZKAiix5I1kQAJkAAJRI8ABUH0WIZUEwVBSJiYiQRIgARIIM4EKAjiDJyCIM7AeTgSIAESIIGQCFAQhIQpepkoCKLHkjWRAAmQAAlEjwAFQfRYhlQTBUFImJiJBEiABEggzgQoCOIMnIIgzsB5OBIgARIggZAIUBCEhCl6mSgIoseSNZEACZAACUSPAAVB9FiGVBMFQUiYmIkESIAESCDOBCgI4gycgiDOwHk4EiABEiCBkAhQEISEKXqZggmCvLlzRu9ArIkESIAESIAEwiCwb/8hOS6HJSEhUZKSkvS/BEkQ/X+C+oxiSNi9/+DxKNZ3SlYVSBBkz5ZTjh0/7fGckveUJ00CJEACWYXA8eMUBHG7l4EEQbHCBSVZKTIGEiABEiABEsgoApu2bZfExFTrAKwEtBDE8E5QEMQQLqsmARIgARKIiAAFQUT4witMQRAeL+YmARIgARKIHwEKgvixFgqCOMLmoUiABEiABMIiQEEQFq7IMlMQRMaPpUmABEiABGJHgIIgdmz9aqYg8EPCCBIgARIggUxCgIIgjjeCgiCOsHkoEiABEiCBsAhQEISFK7LMFASR8WNpEiABEiCB2BGgIIgdW7+aKQj8kDCCBEiABEggkxCgIIjjjaAgiCNsHooESIAESCAsAhQEYeGKLDMFQWT8WJoESIAESCB2BCgIYsfWr+ZYC4Jdu/fKth075cDBQ1K4UAEpVqRQupdETkk5LCtWr5UqFcvrl1z4XQwjSIAESIAEshQBCoI43s5YCYIVq9fL1JlzZO36TT5Xkz9fHrnyksZSoVxpn/i0dtZu2CTPDXpNjh47JtmyJcvAXk9Ivrx50iqm07ds3S4r16xz8p5ZuYIUyJ/P2ecGCZAACWQ1Aps3b5Z169ZJiRIlpHTp8H5vMxMLCoI43o1YCIIZs+fLr5OnB7yKxMQEadeqpRQvWjhgHnfCh59/KxOnTHOib7rmSrmq6UXOfrCNz74eJ+MnTnGyPHJvO6lTo5qzzw0SIAESyGoEJk2aJEePHtWX1aRJE/WCoMSILvGY6owdOXJEvYo4QXXKskVUVziFKQjCoRVh3mgLArcYKFm8qDSoU13y5M4ps+YtksXLVukzLluquLS+4aqQz37Ofwtl2NsfOvmf6dJRWRnKOPvBNigIgtFhGgmQQFYksHz5clmzZo22EFSrFnkHCNaGpUuXSsGCBaVOnTpxQ0ZBEDfUEtV3GbjFQFJSojzQ/mbJnSunc0XvfzZWtmzboX0AOt/bVqnWBCctrY0Fi5fJnPmLpGHdWlKpQrm0sjvpFAQOCm6QAAmcRgTQ4UOPPhph7dq1smzZMgqCaMDMrHVEy0KwcfM2+XDM9z6XWblCWbnx6qY+cVNnzpU/p87UcR3vvEVZDnL5pAfaOaJMX4cPH3GSc+bIHvBB37h5qyQnJ0nRwoV0fgoCBxs3SIAEThMCMPEbQWAPF2AYASLBjjtw4ID6zUz2HApAHagLgmDlypWSN29eqVu3rqaIOqIlOALdFloIApGJQXy0BMHYnyfKomUr9Rmisa5+ZmWBA2HDujV8zvrzsb/IqrUbJHv2bPLoPW180oLtfPvjBPnu51+dLPffcZs0rFfL2T90KEVGjxmrhiUWyIEDB3U8nA/vbtNKlq9cTR8ChxQ3SIAETgcC6M2jES9ZsqScddZZ+pIPHz4sU6ak+lM1btxYVq1aJXA+RDxCzpw55YwzztBldIT6s2nTJlm4cKHZ9fmsXLmylC1b1icu2jsUBNEmGqS+aAiCY8eOy5ARH2kVWahAfrnz1mt1D90cFr17OKPMmb9EJv41Q0eXUT4EbcLwIXALgg5tW8n5DevpunANA199R5YsX2kO6fNZvGgR2bx1mxNHp0IHBTdIgASyKIG0BEHRokVl69at+urhJGhEASLOPvtsKV68uE7btm2b9h04eDC1o4VICAeE8uXLS6lSpfR2rP5QEMSKrEe90RAEO3bulnc+/lrXfknjBn5WgQ+++F62bt/peLwi4zXNLpJqVSt6nJF3VDBB8PGY7+TXSVO9C3rEUhB4QGEUCZBAliKQliDAxVaqVEnKlCmjhw8wbDB37lxlYT2gG/xGjRr58KAPgQ+OrLkTDUGweesOGfX5WA3ownPryfkNajuwsG7A8FFfyP4TZnwkYOZBu1YtnDyhbAQTBA917yMYMjABQwmtb2ypx7Y+/vI7mT5rrknSnxQEPji4QwIkkAUJpCUIIASqVKnic+UbNmyQxYsX67gLLrhA+xWYDBQEhkQW/oyGIMCQwNARo7UDCxYLan9zS2dmwcy5C2XCn3/7ECxXpqS0anm5z4qF+/YfkAVLVkj92md7OqkEEgS79+yVx5/t79SfN09uGdS7u168CJEYqujaa4Ds3bffyUNB4KDgBgmQQBYlkJYgqFmzphQpUsTn6lNSUuSvv/7ScXAcLFCggJNOQeCgyLob0RAEoPP9+D90g45tTDesUqG8XrIYQwVeASsV3nD1ZVoUHDlyVFkYvpPtO3dJjbMqy1WXXeAnCgIJAkxDHDbiA+cQ9evUkAfv8nVWfOPd0TJzznwnDwWBg4IbJEACWZRAWoKgYcOGkjt3br+rNwsa1a5dWwoVSp2phUwUBH6osl5EtAQB3lXw0ZfjZOeuPZ6QIABKlSgqf/0zx0k3oiBJTV35ctwE9Z6C1OWF4VvQ8vImPqIgkCD45ffJ8vk3Pzh1XnHphXLLdb4LHiEd+UygIDAk+EkCJJBVCaQlCOAjYJwDbQYUBDaN02w7WoIA2A4r8zwa/FVr12thkD9fXv0yo+pnVnLeXTBzzgKZMOnkEsRGFMhxkbdHf+WY9s9WoqCFJQoCCQK3heCc2tWl491tfe7i6yNHy6y5tBD4QOEOCZBAliZAQRDe7U3Yvf+gaoZO7xBNQRAqSS9RkF/5HsxZsCR1CEH5JCCc36COXHhu6gIYgQSB24cgl1oVcXCf7pIje3ZdxyE1JgYfArM2ASJpIdBo+IcESCALE6AgCO/mUhAoXhkhCHCb3KIAcXg18k0tLpeffpsseLvhTS2aSvkyqXNcAwkClHuwWy+fVQxhJWhz0zVIUosVfedjHUAcBQEoMJAACWRlAtEWBOZdBvA7gP9BvALXIYgXaXWcjBIEuES3KDDDB4lqWc09e/erVxTndUgEEwSfKR+B8ZaPgFMowAYFQQAwjCYBEsgyBKItCHbs2CFz5qT6gNWqVUu/0wCw7CWQYwGPgiAWVAPUmZGCAKcUSBQkJyX5nHEwQYBrGPz6SFm0dIVPGbNTtlQJbXEw+xQEhgQ/SYAEsiqBaAsCvM8Ayx6bVyqDG9YxwHoGsQwUBLGk66o7owUBTicUUTBu/O/y9bjxztnbSxcjEgsTffr1OD08YNYcwLsM7mp9k2zaslUgKEygIDAk+EkCJJBVCZjXH5cuXVqqVq2qLxPrskyenDrj6rzzzpMcOXL4Xb6ZZYBXHONVx3bAKoZ4r8Hu3bt1dIkSJSQar1a2j+HepiBwE4nhfmYQBLg8tyi4/KJGUq9m+t7hjfUMEAoXPLmoho7gHxIgARIggYgJwEqAdx9kV87bHDKIGGfmqSCzCAIQsUXBbdc3l3KlS2QeUDwTEiABEiCBuBOghSCOyDOTIMBlb9qyTa10mCRFC/uaquKIhIciARIgARLIJAQoCOJ4IzKbIIjjpfNQJEACJEACmZwABUEcbxAFQRxh81AkQAIkQAJhEaAgCAtXZJkpCCLjx9IkQAIkQAKxI0BBEDu2fjVTEPghYQQJkAAJkEAmIUBBEMcbQUEQR9g8FAmQAAmQQFgEKAjCwhVZZgqCyPixNAmQAAmQQOwIUBDEjq1fzRQEfkgYQQIkQAIkkEkIUBDE8UZQEMQRNg9FAiRAAiQQFgEKgrBwRZaZgiAyfixNAiRAAiQQOwIUBLFj61czBYEfEkaQAAmQAAlkEgIUBHG8ERQEcYTNQ5EACZAACYRFgIIgLFyRZaYgiIwfS5MACZAACcSOAAVB7Nj61UxB4IeEESRAAiRAApmEAAVBHG8EBUEcYfNQJEACJEACYRGgIAgLV2SZKQgi48fSJEACJEACsSNAQRA7tn41UxD4IWEECZAACZBAJiFAQRDHG0FBEEfYPBQJkAAJkEBYBCgIwsIVWWYKgsj4sTQJkAAJkEDsCFAQxI6tX80UBH5IGEECJEACJJBJCFAQxPFGUBDEETYPRQIkQAIkEBYBCoKwcEWWmYIgMn4sTQIkQAIkEDsCFASxY+tXMwWBHxJGkAAJkAAJZBICFARxvBEUBHGEzUORAAmQAAmERYCCICxckWWmIIiMH0uTAAmQAAnEjgAFQezY+tUca0Gwa/de2bZjpxw4eEgKFyogxYoUkuSkJL/zYERgArt275HtO3dJxfJlA2diCgmQAAlkQQIUBHG8qbESBCtWr5epM+fI2vWbfK4mf748cuUljaVCudI+8Vl5Z+2GTbJh42bnEmtVP1Ny5sjh7Afb+HPqPzLq0691lvJlS0vPrg/p7Y2btsia9RudomdWriAF8ufT+//OXSCHjxzR23nz5Jazz6zs5HNvoJ7Fy1fK1m075MjRo1K6ZHEpVaKYFh+JiYnu7DHdP3QoRebMX+Qco5Q6l7KlSjj73CABEjj9CFAQxPGex0IQzJg9X36dPD3gVSQmJki7Vi2leNHCAfNkpYRX3holcxcsdi6p75OP6obXiQiy8VS/l2Xz1m1ODggCCINvf5wg3/38qxPfoW0rOb9hPb1/T+ennfh8efPIkH5POftmY8XqtfLBZ9/ImnUbTJTPJ4RE6xtbSqP6dXziY7kDRmBlwmVNzpM2N11jdvlJAqclgcOHDwt+p5OTkyXeIt0GfuzYMTmiOhoJCQmSLVs2Oymm2xQEMcXrW3m0BYFbDJQsXlQa1KkueXLnlFnzFsniZav0CZQtVVxa33CV78lk0b1IBMEnX30vE/74S5PJli1Zhr3wrPoyJkckCP6YMl0++PybkGg3rFdL7r/jtpDyRpqJgiBSgiyfFQlMnDhRX1bdunWlQIECGXaJ69atk6VLl0rBggWlTp34dRQoCOJ4y6MpCNxiICkpUR5of7PkzpXTuaL3PxsrW5R5Okn5EXS+t61SvAlOWlbdiEQQQJFPnzVXNm7eKhc1bihFChXUmNJrIVi8bKUMfPXtsFC3uuZKad70orDKpCczBUF6qLFMVieQWQTB2rVrZdmyZRQEWfmBi5Yg2Lh5m3w45nsfVJUrlJUbr27qEzd15lz5c+pMHdfxzluU5SCXT7rXDsa2Dx9OHRNHOnrItmNiSsphOarMWSbkzJFdm7XMPhwaTUA5lHcHcNi0ZZukpKRI0cKFJLfrvNAwHz5y1CmWLTlJm/CcCLUBk9ohdS4mmPMMJAiOqutar3wLCqtGPhCHQ+p8jh07rqtMVKa6HOraENIjCHB+jz79vBw4cFDXgT9Jyk/ghhbNpG6t6lKiWBFZrYYQMJSwas06Jw82Xh/YS3JkTz22T4La2btvv2xXjqMwZ+JabAHozmvvw1kSZeGzgLLhCAL4G2zdvkObUkuq8vbzYB+D2yRwqhLA9xW/S5MmTdKXUKtWLW0hgMk+0NABflMOHTqkf/9y5szp8ztoOJh6A9WDYyKPSTf7EAQrV66UvHnzCqwVCDgP5ItloIUglnRddeNmi/7/uOBhwj80fsUKFwzrR3bszxNlkep9IqBBrq4c2eBA2LBuDR1n/nw+9hdZtXaDZM+eTR69p42JDvr51/RZMnL0GCfPRec3lPa3Xu/sP9FnkG6QTETXhzpItaqV9O6WrdulR7+XTJKcUa6MPNulo7O/cMly3QDa4/RIxBj61ZdfLJdf3Fg/9G4ze41qVeWxB+506sHG2J9+Vf8mOHHnN6grHW6/WY+Lo7Ez4Rl1/AkTp8hf//xronSjiGNd3PhcJw4bLwwZLstXrXHi4A8Av4D0CII5/y2UYW9/6NSFjYc73K7EwNk+cbj/z/Qfqh0NTcKDd7WW+nVqml39OWXaLPnmx//5sEcCHBNbXdtcalc/yye/2fn+l9/kj7/+8Sl3xaUXSrUqFX3Oz8uHYNnK1fLJV+Nk5eq1pjr9WVTNXrnj1huCOlD6FOAOCWRyAlOmTFEdoZMdDPt0L774YntXDh48KMuXL5ctW7b4xJcuXVoqVqzo03lZsGCBbN68WfsBNGrUSFtrTSG0B7NmzZI9e/ZIvnz55JxzzpFNmzbJwoULTRafz8qVK0vZsrGd/URB4IM8tjvREATowQ4Z8ZFWlYUK5Jc7b71WPYBJzomjh49GZs78JTLxrxk6vozyIWgTog/Bnr375LFnXnDqK160iLzwzON6f//+A9LpqX5OGjauUubtm5SZG2HS3zPk/U++0tv4Y6ehMfv+59+cNK+N+nVqyIN3tRH3cdCzfnNwHx+l3mfQaz5Oep3vv0Nqnn2mnyAoofwqNqkhAK9wd5tW0vjcVOdApLsFwUt9n9SzCdIjCN54d7TMnDPfOeyFjerLna1vdPbtDQig0WPGOlFNLzpfbrn+amf/t0l/+6Q7CdaGl9gAb3D3Cm4ubkGwUlkt+iuBZFuD3PVAWNxy3enhm+K+du5nLQKzZ8/WDT0aexPQ60dAQ24CRMPMmTN1XhNnf8IBsEGDBqoTlmrhgxV02rRpuvNXvnx5LRhM/o0bN8qiRakzferXr6+tAdu2bdO+A17ngfKlSpUyxWPySUEQE6zelUZDEOzYuVve+Th1atwljRv4WQU++OJ7Zd7dqR9AcxbXNLtI9eIrmt00P91WAGPCxhS710Z+5FPenp438qMvfHri3TvdJ1UrnaHXRuiuLAt2wLQ9mMB2qDn/duh0X3vd2x302juyaOkKJ6nbw/fIWapXi4BhiUee7OukYbjg9QG9dH3uIQMnU4CNpzo/IJUqlNOp0RQET78wxEeI3Nf+Vjn3nNoBziJw9NQZs+WdDz/3yQCBhOBurG1rjde98qnEtWMLgg1qemTfwa/5DR3lzZPH7371ePR+qVyxvKs27pLAqUkgmA8BTPtz5syRXbt2CcRCtWrVJH/+/PpCd+7cKf/995/+3S1WrJhUr17dAbBhwwZZvDjVannuuedKrly5dKdt6tSpnkIBBelD4ODLuhvREASbt+6QUZ+n9iYvVL3b8xucbGTQQAwf9YXst8atMfOgXasWYUG1ve1RsEvHu7V52B1vKh3+Ul895NGt90CnwbB79eipYtqeacDuuO0GaXJeA118zNif5Kdf/zRViel1TlUm/neUwDCh2SUXyK0nes1w/Htr1KcmSezet5cgQGMM6wPWEhg6/H09lm4KozeOKX8I0RQEj/R4zsd/oN9TjwnuRbgB1hpYbUyAw+ENV1+ufkiOqeGXrwWCwQR7iOZVNVwxWw1bmABLzyP3ttOOkn/8NV0+/XqcSdKftiCAALHrhd9Di2aX6HzLVqzWjpLmXmLtgt7dO/nUxR0SOFUJBBME6L3PmzdPm/3Ro0fDbgeIAlgaEEzDb9L//fdfLSSKFCkiNWvW1EMOa9as0cKiYcOGPtZPlKEgMOSy8Gc0BAGGBIaOGK0dYDC+3f7mlo5j2cy5C2XCn3/7ECxXpqS0anm5j4/CPmX6X7BkhdSvfbank8p/C5fIENVwmoDGAI3Cs2qsG71Hd3jikXulXJlSPr12LNADIWEH+EzAsc0s6gPnxW+VSdsWBHVqVNMNFxz8Oj35nCMiMG794rNddXUjPvhMpqmFmEywe6luQWA3+Mg/f/EyefmNd01RqaBWJHzm8Qf1fjQFwf2PP+ucOyqHBcM4KToHT2MDrDorx0QT4EQ4oGdX556B0ePP9leOTSk6C0QYxBkcj7r0fFHgSGjCcz06a98Js+8WDLYgsIUdhhaeV2LGDli8CYs4mfD2kH7OOZk4fpLAqUggmCBYtWqVdvQrU6aMVKlSxfPyjC8CGn00/ibs379fpk+frncrVaqkBQF2Ak1vzChBsFBNVV+zfpsWPbYTY7SdGRN27z+o3OlO7xANQQCC34//Qzfo2MZ0wyoVymuzPIYKvAJWKrzh6su0KDiivPdHff6dXp63xlmV5arLLvD7MYcPwgNdezlVVVb1o3Hv+ERvJ65QwQKONaDlFZdqszEaYxNuvaGFNFOOeybg2uHsN0uNq8O7Ho6Ftge+yWcEAfbdjdbLz/VQzpN55aHufZxGEA6JQ58/uTiQWxDAGRFOiSbA7HefaqxNwHDDm4P66N1oCgJ3z/5pJTrCXQ7ZbfZ3O3jipF9S4maBEjkm9H7iESmmFqF66InUa0J8LjUV9dX+J68ZcW7HTSMIDiqv6Ye7nxyOQd60woBe3ZwpmmnlZToJZGYCwQTB3LlzZfv27fr0MSzgFZCOjo+XA6ARFKYcnBCrVj3522Ti8ZlRgmDyjP9k8dK1qk1I1FYLIwTMp32OkWxTECh60RIEGEP/6MtxsnPXyR6gfXMgAEqVKKrG80/2oo0oQC/yy3ETZMXq1Klu8C1oeXkTP1FgN44og7F9YzWAZaJ50ybyxbc/6cOilw2vdbunD0dEmKkR4CTY7+U3fVYB1Akef2xB4G4Q4ZSHY/UeMMwpeYUaSrAd8NyCAOZs95K8bnP+MNVYYvqefc04QCROhW6nx3a3XOc3q8FcBAQYrDYI+OLBMSlXzhzaCdN2CrRN96YsnDjhzGnCPWqmRVllrbEZYSYCVmy0g9sKZATB8pVr5IWhw+2saW7b/h1pZmYGEsjEBIIJAtP7D+X0MRsAosAO+J5PnjzZiXIPKzgJaiOjBMHKtRslQf3eY+0a/DNCwHza5xjJNgWBohctQYAbgfXz0eCvWrteCwP0nPEyo+pnVnLeXTBzzgKZMGmac9+MKMDUx7dHf+WMpZ+tREELlygYN/53+XrceKcsetloRBAwZn/lZU30EAL2IRjKlC4pq9W5ILh77UOV5WCeNRUQ+Sspq0OF8mUkvxIXX37/iy6HP7YggNLu2K23Y3pHWsUzyso3P5z0nO+jGvwy1hr8bkHwqJp9UEvNPjAhXhYCt79FpTPKSY/O9ztfMHM++MT1YHqgCVgUqf0t18usufPl9ZGjTbT2u4D/hR3cFoJe3R6W4mqNg7QsBL9PniYfffGtU5URBPA/6aT8H+wA0RUsXNbkfMGQDgMJnOoEggkC+AfATwBDAWlN/8uh3p/i9jFYsWKFrF692kFUokQJ7ZjoRFgbGSUIOMvAugmx3oymIAj1XL1EARrhOQuWpA4hqEYX4fwGdeTCc1MXwMD+WuWA13vgq9j0Cw91aCv11OI67p62yXieWpP/nna3mF2xx9NhvsaYNAQMAtYmGPz6SCevLQgQ+bZycPv7hOMczPslixdzphtiTH2gMlfbwS0IsNYAeucm4IU+w0Z8YHZj5kPgxQ9DKBhKsQPWbug54BUfj34zW8A9BTQSHwK3pQTWHiPwcD5GEGDb9j/wYgyLz0Hlv5BHOVWF6xeB+hlIILMSCCYITIMerCEPdF179+6VGTNSLXkYbjBrGNSuXVsKFfIX0xQEgUhmofiMEATA5xYFiIM14aYWl8tPv00WvCHwphZNpbwyNdvhwW69fBoqk2Yc5ODpD49/d7Cn2GFlQ7fvwaDeT+gi6K2jYbLHwN2CwC0Y7GNdd1VTuebKy+wov3UIkIj1BvCeALxcaMhb7/v4LtgNYTSHDHDcoj0u+gAAEVpJREFUF18ZIUtXrMKmEzAToJ5anAhmfJjnx/8+2bGAIBOsK/CVMKujwakQzoUmwDLjzDJQ70gwYgnp9hRQiB77bYZo2DupWQbFihSWX//8y8cqg7I2hzff+0RmzJ6HaB2ubd5Urm2eyhlDG89bwz+w9rykzhfnzUACpzoBIwhq1KghRYv6zgraunWrnloIU7rXLANYNLGuAKYiFi9e3FmLAL/7WLsAogBp9erV0/mwDgEsCZhlgDrtYN5lkDt3bp1up8VymxaCWNJ11Z1RggCn4RYFZvgAS/Tu2QvP/9Qeu33K7sV1kIbZBDBLI6AxQg/eHYa98IzPcsTutwhiTB+N1wJlHXCvQ+AWBGD2sFpzwHjS28fycmZzWwjs/F7bWMmwgmqkEaItCODl/+Rzgz1Flde5IK5Xt0cU45JO8mTlH/CetdgTEtAIm2l/Tka1YTtQui0hdj6vbVsQeC1KBEtAiWJFZZ2yHNnHdluDvOpmHAmcKgTs6YFnnXWWFuamsUaDj5UF9+3bpxtyiAYsLYzxdSxYhLUGIBoQsJiRWdjINO6Ix6JFedR6Hsj/999/awdEL3+DHTt26DUPUAbLKOMlRwimo6B3YvCHgiAGUANVmZGCAOcUSBQEWpveqzHCjILr1Tx4BPe0OMR5TVP7acIfMua7n5HsF9DQ2I29WxCgwIeffysTp5z0hUCcl6Mc4t2CAAIm0GuHMayBBs2EaAsC1LtRTdMcpIZE7CmA5nj2J4ZD7m9/m9/SxsgzXi29/Jlr3QC7LLa9ljt2+4HYZSDKYBkywRYEiMOiUFgcKljATJOnlF8EPhlIICsQMKZ6cy0QAxdccHImFlYeRG8f7zBAQDpWJTxwINUpGHH2DAOsOIiGH6FcuXKCKYcm2CsVwmpgFjlCOqyncGKECDEBUx0x5TGWIVqCYP+BQ2o22WbZtn235+nSqVBhyWhBgDsTjihAI4bxZDu4p8+5e/9mYSG7DLZ//XOqfDH2R5/eMhr1+9Trfm2P+HNqV5eOd7f1Kb5i9VptprYj3dMaTZpbEGBBoHHKYc9+lwFEAhpAsziSKTtg2NuyZPlKs+vMMnA3rB3atpLzG9bT+e7p/LSTH7Mv8P4Dd4DggZn+f+rVym5hAFN7g7o11fLPzfXMAndZs4/FhODkaS9ShDTM5Lj5uubap8PktT9//N9EmTRtps+qibhHGLbA9ZrgFgSIhyjAAkZuQQU/kMbq+m9WyxYHEpOmXn6SwKlGAAsGYYqgaYxh0ofp3gQ0/ngTIRYqsgOcCDGN0PYJmD9/vvYXwMwh97sMUNZYJLyGBnAcvNdg9+7URjU9vgv2+YWyHQ1BACEwa87SoIejIFB4MoMgwF1yi4LLL2ok9WpWC3oDo5WIIYJde/bqeetoQEMJO3btlm69BvhkNS8e8okMsgPFvV711vFKY0zpy6iAKaPb1JsD0ZAWUW96hGUgnLBTsdiphBoCriVUhrDm7Fc/MPAhCHcKEfwG8IZFDBVg2CAj+YXDinlJIBIC6N3DAoDG3CtgGqGxFGB4wAwteOWNJA7CBEMMsERk9iGDrcoiMPnveUpA5VRDn8XUdPRynpdOQaCwZBZBgDtki4Lbrm8u5UqX8LxxGRmJ1fDg4/Dzb5P0q4vNuVQ/s4o83vEus8tPEiABEiCBKBCI1EIwa+5SNf18s1zQqKZ6tX3qex68TouCQFHJTIIAN2nTltQlKouq1y9ntgAzO1Yk9ApYZAfDDQwkQAIkQALRIxCpIBg/caZaiO6gXHfVyVVqvc6OgkBRyWyCwOtGZZa4f/6dJ8Pf/8TvdNq2ulYuvfDk60j9MjCCBEiABEggXQSiIQhw4GYXnxP0+BQECg8FQdBnxCcRLyGCQ9we5W8AZ52KalXD8xrU1dMVfTJyhwRIgARIICoEIhUEk6f9p3yVDlEQhHI3KAhCocQ8JEACJEACGUEgUkGwcOkaWbRkjXYqzJ0rsPM2LQTq7lIQZMQjzmOSAAmQAAmEQiBSQWCvP4DtQIGCQJGhIAj0eDCeBEiABEggowlEKghCPX8KAkWKgiDUx4X5SIAESIAE4k2AgiCOxCkI4gibhyIBEiABEgiLAAVBWLgiy0xBEBk/liYBEiABEogdAQqC2LH1q5mCwA8JI0iABEiABDIJAQqCON4ICoI4wuahSIAESIAEwiJAQRAWrsgyUxBExo+lSYAESIAEYkeAgiB2bP1qpiDwQ8IIEiABEiCBTEKAgiCON4KCII6weSgSIAESIIGwCFAQhIUrsswUBJHxY2kSIAESIIHYEaAgiB1bv5opCPyQMIIESIAESCCTEKAgiOONoCCII2weigRIgARIICwCFARh4YosMwVBZPxYmgRIgARIIHYEKAhix9avZgoCPySMIAESIAESyCQEKAjieCMoCOIIm4ciARIgARIIiwAFQVi4IstMQRAZP5YmARIgARKIHQEKgtix9auZgsAPCSNIgARIgAQyCQEKgjjeCAqCOMLmoUiABEiABMIiQEEQFq7IMlMQRMaPpUmABEiABGJHgIIgdmz9aqYg8EPCCBIgARIggUxCgIIgjjeCgiCOsHkoEiABEiCBsAhs2rpdEpOSJOnEvwRJEP1/gvqMYkjYvf/g8SjWd0pWRUGQ/ts2d/4iOXgoRSpVKCdFChVMf0URlvzgs29k0bIVctsNLaTW2WdGWBuLkwAJkEDmIUALQRzvBQVB+mF3fvp52btvv9xx2w3S5LwG6a8ogpJr1m2QPoNe0zWUKlFMnuvROYLaUovu239ACZ1DkitnTsmdK2fE9bECEiCB9BM4fPiw4Hc6OTlZEhMT019RhCWPHTsmR44ckQTVM8+WLVuEtYVenIIgdFYR56QgSD/CzCAIjh49Ks/2f0U2b90mN11zpVzV9KL0X9CJkv1eflNWrl4rV1xygdxy/dUR18cKSIAE0k9g4sSJunDdunWlQIEC6a8owpLr1q2TpUuXSsGCBaVOnToR1hZ6cQqC0FlFnJOCIP0IM4MgMGd/RAmDZDXGFo1AQRANiqyDBKJDILMIgrVr18qyZcsoCKJzWzNnLaeqIEADuHXbDklJSZGSxYtJ9uzeJiyYuQ6lHNaNZbZsyfomoOy6DZukRLEikjNHjjRvDBht37lLdu7aLcWKFJb8+fLqMl6CAHnhV5CozGo5cmTX+RC3fuNmbWorXrSwNv2ldVCU2aGOuWvPXimQP58UKpBfl/cqd0gd75jKn11dHxxvENJz3TAHHj5yVPq9/IZs2rxVLmxUX25VfgkIOdW1wFTIQAIkEB8C+A7jd2DSpEn6gLVq1dIWAnwPAw0dwGJ4SA33IU9ONeTn9Z019QaqB8dEHpNu9iEIVq5cKXnz5hVYKxBwHl7H0IlR+kMLQZRAhlINbrbo/48LHib8Q8NQrHDBqPU4QzmPUPOg8Rv95XcyZdpMnyJlS5WQu9u2kvJlS/vET50xW9758HMprJz+une6V9587xNtDjeZEH9vu5ulaqUKJsrn8/fJ0+SLsT+qL1mKE1+uTCl59L720nvgq34+BLtVA/74s/113iH9npIx3/0sU6fPkqPqC2YCGtrbb7kuIN8f/zdRvh//u88xIS6ubX6ZXHlpE1ON89ml54uya/ceaXPTNXJZk/N0fHque9iID2SOcpT0Ck88cq+cWbmCVxLjSIAEYkBgypQpAv8Br3DxxRf7RB88eFCWL18uW7Zs8YkvXbq0VKxY0acTsmDBAtm8ebP2A2jUqJHTiUBBtAezZs2SPXv2SL58+eScc86RTZs2ycKFC33qNTuVK1eWsmXLmt2YfFIQxASrd6WnkiDAuQ589R1ZsnylczFJSqHaje0j97aTOjWqOemmYUSDCmsAGk4Euxy2n3r8QTnDJSb+Ug35yNFjnLrsMnnz5FaWhxT1hT3i41RoCwKIDHOudllUWL9ODXnwrjZO3WZj7E+/ytifJphdn/NE5A0tmkmLZpc46dgIJgjCue4PPv9Gps+aKwcOHHTqz3XCqbDz/XdI5QrlnXhukAAJxJbA7NmzBQ09/pmAXj8CGnITIBpmzpzpk8+k4RMOgA0aNFBW1FSLJayq06ZN052/8uXLa8Fg8m/cuFEWLUrtFNSvX19bA7Zt26Z9B7zOA+VLlSplisfkk4IgJli9Kz2VBMGoT7+WP6f+oy/k9puvk4b1amkv+FVr18urb3+oG3s0gC/1fdIZCjCCwFz9g3e1lnq1qmtT179zF8hrIz/SSefUri4d725rssmylaul/9C39D4awttubCEVypXRZvyff5skE/74y8lrzzKwBQEyVChfVm6/+VotNjDs8L/fJ8v4iVN02euvulxaXnmpU8+UabPk3Y9TBch59etI88svFlg+1q7fKOOUxQCNNcK97W6RRirdhGCCwOQJ9bqRnz4Ehho/SSDjCQTzIYBpf86cObJr1y49RFCtWjXJnz+/PumdO3fKf//9pxv+YsWKSfXq1Z2L2bBhgyxevFjvn3vuuZIrVy5tGZ46daqnUEBG+hA4+LLuxqkiCPbs3SePPfOCvhF3t2kljc+t53NT0Nj26DtYWwsw7t3s4sY63RYEdsNtCg9+faQsXLJcj9NDSJiAoYUZs+epL0pOGfBsV8mdO5dJ0p+mHHbsem1BAHEyoGc3gTXBDkPfGiXzFixWyj1Z3hzUx0kyDTuGJHp2fchnbA5ffAxRwBcBwxwDe3XzK+c1ZIBM9vmZQub84Z9gXzfSKQgMJX6SQMYTCCYI0HufN2+eNvujR4+G3Q4QBbA0IJiG36T/+++/WkgUKVJEatasqYcc1qxZo4VFw4YN/fwUKAgMuSz8eaoIgtn/LdRWADSuQ59/2vOODBn+vvy3cIlcoMbo72p9o85jCwKM6efLm8enrN0rHz64jzPW1q33QG0NuFVNu2umpt+5w2plleg7+HUdbTe4tiC4tnlTPe7vLrtFrbzVo99LOnpwn+5SUDkMwkfhoe6p4uCZLh21NcJdbvnKNfLC0OE6+o2BvR1HSiMkAgmCcK4blVMQuMlznwQyjkAwQbBq1Srt6FemTBmpUqWK50kaXwQ0+mj8Tdi/f79Mnz5d71aqVEkLAuwEmt5IQWDIZeHPU0UQfKmc836c8Ie+E4EcADds2qyd/M5Qpv1nVaOKYASBuzeuE9Ufe2Gf1wb01EMN8At4sFsvnaXbw/fIWVUqmuzOJxwvH+iamieQIHioQ1s9POEUOrEB5g906amtGSYPrBTotSO89VJfH0efE8W0Sc8c03byCyYIwrlucxwKAkOCnySQ8QSCCYK5c+fK9u3b9UliWMArIB3O4l4OgEZQmHJwQqxatarZ9fmkIPDBkTV3ThVB8Ioys89VZvZQgm0GN4IA5vvXB6Q24HYdXoIAZvmeL76isw1QpvlAyxJDNARzKnxaOSpWVD4EXsE04je2vEKuVr4C/1N+BZ9+PU4PUbza/1mvIjoOVgRYE9q2ukYuvfA8HWfq8rIQhHPd5qAUBIYEP0kg4wkEEwSm9x/KWWI2AESBHdCxmTx5shPlHlZwEtQGBYFNI4tunyqC4DPVWBpnPEz5CxZy5szhTCNMjyBIUesWdHyitz5E14c6SLWqlfwOZ+cJZCHoeHcbOad2Db+yYH7vY8/oeGMhwFAHhjwQRrz8nN/4HeKxfgIsCwj2eVEQaCT8QwJZkkAwQQD/APgJYCgADX6wkEPNsnL7GKxYsUJWr17tFCtRooTAMdErUBB4UclicaeKIPjn33ky/P1P/Bzx0rod6REEqNP4ENxy3VVyxaUX+h1m5Zp10u+lN3R8IEHQ8opL5fqrL/cru2nLVnn6+SE6fpDyIcCiQ/vVVL9OPZ7Tcb27d9KzC9wFMZviuRN+C7B2oPePQEHgJsV9Esg6BIIJAtOgB2vIA5HYu3evzJgxQydjuMGsYVC7dm0pVKiQX7GsLgj+DwAA///Y+A1EAABAAElEQVTtnQdgFEUbhj96LwESOiJFkN5RUbH3rj/2/tsrKqhIF0TAgiKIDSvqr1iwYhelI70jvQghQCD06j/vl8wxd7eX5HK5I0fegdzuzs7M7j57t/PON9/MFkjbtedfyefh338NAv3/rxw8eFD/Dhw4IIkVykvhQoXyDJ3UbWnSpddAPZ/brrtKTmrXMujc3vrgUylatKh0aNdK6tSuqfsnT58tb77/iRQrVlSGDewVlGfNuvXSZ/ArGv/KwJ5SvFgxXR8+cpTMmLNA8w3q1VVKlSzhl3fgy2/I38tXatzN11wup5zQRtfTtu+QR3oM0PUiRQoL8pYpXUq37ccLw9+WBUuWCva/OriPjZbO3Z+R7Tt2St3ateTJh+/yxWMF96n/iyNk5eq1klC+nAzu3dW3/9Gez8q2tO1y3ZUXyxmnnKDxOb1uZH7GHGf5qjXSvnVzuePGTr7jcIUESCD2BMaNG6cHbdy4sVSqVMnvBDZt2iTz58+XQuZZ3bp1aylRwv85hWf64sWLpWzZspKUlKTPRxSA58mMGTNkx44duq9ly5aabsOGDeaZV0zatm2rZboHW7dunSxdulRKliyp+9190VxP3rxFChYspOeD6yxg/un/AmaZi6EABUH6FyMeBAHu+9A33pfZ8xfpVwCVcLuWzbTChoD59Kux8ssfk3TfLddeISe3b63rOa0YUdmj0kdABX1jp0ulRrUqggr/+5/HyU/jJuo+fIQSBNhXu1YNudWcT/WqlbXS/vH3CfLDr39il1x49mly+YVn6zo+fp8wVT74dIxun9ahnZx35qlSqUKCbNqcKt+ZY/4xaZruc4+HiNwWBKNGfyW/jZ+ibJ948C6paMRhieLFpEAu/wD1YvhBAiSQKYFZs2bJtm3bpGLFitKgQQNTORb0Vdao8GfOnCk7d+7UihyioXTp0vpb3b9/vyxZskQgGhDat28vxYsX13VbuWOjTZs2UqpUKUH6KVOmaKOwRo0aUrduXU1rP1JTU2XOnDm62bRpUylfvryu43yiGSgIokk3oOx4sRDgtA+YL/+AIa/JqjXrfFeB1jda1TagAu7+yD12U3IqCFDAuIlT5f1P0itobBcyX/yDhw5hVUqXKqk/OhzbraBdC0HlpEqSvDH9xwhrwP79BzQvPpoef5w8dNfNvm278smY7+XH38bbTbUiuPkuOKujXHHROb79WMltQbB46QoZ/MqbfseAxQLCiIEESCC2BNauXSvLli3zHRSt5A4dOvgE+r59+7S1v3fvXk2D/bCU7t6925cHlTsqeYQ9e/ZoxY/1mjVrSp06dbCqARYCWBQQYDWAZcGGQ+bZN3HiRBUMNq5evXpSvXp1uxmVJQVBVLB6FxpPggBXsMd86d/9+AuZNnOu3wWhsr7o3NO11e0q1nAEwbBBvaSY+SG5Yewvf8iYsb/4VebVqiTJw3ffIs8PH6kVfihB0PvxB2WsadnjHNzQtmVTYzW40vxoi7jRvvUvvv1JcFwrPrADguLcM06Ry84/y5fOrnTpPUhSt25TK0bHk9ppdKTXPX32PBn54Weyd+8+La/TZRfIOad1sIfkkgRIIIYE1qxZI6tWrfJVxjDpw3RvAyp/iIbNmzfbKF2iC6F+/fqSkJDgi1+wYIGkpKSYZ0oRtRpAQLjBWiS8ugZwnEWLFklaWppmqVy5sjRs2NDNnuvrFAS5jjR0gfEmCOyVoKJKMX1Lu/fslcSKCVK+3GEla9Pk1hKWCbT0dxtlXa1ykvkh+vfTucdxLQT9unWWKsZKgHNdaawaEACVEytJyRLpZjs3X+A6jrkxZbPs2LlLfRASK1U4Ij4dEBoQJhUTyvtaJIHnym0SIIHYEEDrHhU4KnOvgO5TaylA90BgZe+VJydx6KpAFwMsEW4DLCdlZZWHgiArQrm4P14FQS4iyNWivARBrh6AhZEACZBAPiJAQRDDm01BkLuwKQhylydLIwESyN8EKAhieP8pCHIXNgVB7vJkaSRAAvmbAAVBDO8/BUHuwobTY9/Bw7TQrg/8N6q+Dbl75iyNBEiABPIeAQqCGN4TCoIYwuahSIAESIAEwiJAQRAWrsgSUxBExo+5SYAESIAEokeAgiB6bINKpiAIQsIIEiABEiCBPEKAgiCGN4KCIIaweSgSIAESIIGwCFAQhIUrssQUBJHxY24SIAESIIHoEaAgiB7boJIpCIKQMIIESIAESCCPEEjeZN52aGZnxKyL+OPbDqN4YygIogiXRZMACZAACUREgBaCiPCFl5mCIDxeTE0CJEACJBA7AhQEsWMtFAQxhM1DkQAJkAAJhEWAgiAsXJElpiCIjB9zkwAJkAAJRI8ABUH02AaVTEEQhIQRJEACJEACeYQABUEMbwQFQQxh81AkQAIkQAJhEaAgCAtXZIkpCCLjx9wkQAIkQALRI0BBED22QSVTEAQhYQQJkAAJkEAeIUBBEMMbQUEQQ9g8FAmQAAmQQFgEKAjCwhVZYgqCyPgxNwmQAAmQQPQIUBBEj21QyRQEQUgYQQIkQAIkkEcIUBDE8EZQEMQQNg9FAiRAAiQQFgEKgrBwRZaYgiAyfsxNAiRAAiQQPQIUBNFjG1QyBUEQEkaQAAmQAAnkEQIUBDG8ERQEMYTNQ5EACZAACYRFgIIgLFyRJaYgiIwfc5MACZAACUSPAAVB9NgGlUxBEIQkxxHzFi6R3Xv2yrG1akiligk5LieaGbekbpVlK9dI8WJFpWmjBtE8FMsmARLIAYG0tDRZsWKFlC5dWurWrZuDEo6uLBQEMbyfFAS5B/vRns/KtrTtct2VF8sZp5yQewXnYkl/Tv5L3v34CylRorgMHdAjF0tmUSRAArlBYP78+bJp0yYtqmXLllK2bNncKDZuy6AgiOGtoyDIPdgUBLnHkiWRQH4lsHHjRlm4cKGUKlVKWrVqJQULFsyvKPS6KQhiePspCHIPNgVB7rFkSSSQnwnguVygQIH8jMB37RQEPhTRX4kXQYDz3LN3nxQ0P5Jipv8bAXH/bNioP5ykShWkcOHCWQI7cPCgbNqcasraKwnlykq5smX88tjjILJY0SIh1flecy6HzPGLFikshQoV0jKyIwiQb+OmLeacRRIrVvBdi99JeGxs37FTNm1JNX3/xUy+hGxdK64xxRwLoXrVynot7DLwgMsoEshDBPAMOnTokD7XQlkHkGb37t2apph5JoRK517WgQMHZK95JuB5hTyhBAeOjfJRpk1z0Dw3kbdEiRK+OLfsaK5TEESTbkDZuPGi//8V3HT84YuTWKG8FM6o6AKyHJHNtO075JEeA/TYL/brJqO//kEmT5spB82X14aT27eWGzpd6nnea9cny+ivxgoc/9yQVKmiXHvlRdL0+OM0Gtd+X9c+Wu45p58snS49302ensYwuq9Lb01z3pmnylUXn6vxmQmCDRs3ad/938tX+pXXoN6xcvM1lwvOIzBAvPw2fop8NfYX8+Pf49tdyPxQ27duLjd2ukyKGEESGFK3pcnIUaNl4ZJlvl3Ic5W5FjgT0ofAh4UrJJDnCGzevFnmzZsnxYsXl/bt2/ud365du+Tvv/+WrVu3+sVXr15d6tSp4ykMkHb58uWyfft2vzw1a9aU2rVrB+VZtmyZrF27VmrVqiUJCQmycuVK2bZtmy9vxYoVpUGDBubZU8QXF80VCoJo0g0oOx4FQf06tcVWrKjoXFHQunljuefW6/yucu0/G6T3oKF+cYH5utz/X0HljPDaux/LtJlzpXSpkjKk/1N++bAxY858GT7yQ43v+8RDUq1Kkq6HEgRwNOw+YIhfpa4ZMj5wnKeffFjKlC7lRsuwt0bJzLkLfHGo/PfvP+Dbxvk+dt/tfop977590mvgy2oF8SV0VnCusKrQqdCBwlUSyEMErCBAK/6EEw47J6NSnjVrlu9MsR+t+f3792scKniIAjdgxMLMmTN9UbAOoNFnQ2JiojRq1Mhu6tIKgvLly6uIQPrAfGXKlJHmzZv7rKN+BeTyBgVBLgPNrLh4FAS4ntpmaN8N/7lEjqlRTbZs3SY//z5Bfho3US/1svPPkovOPV3X8WXu2mewev9DBNx+w3+kWeMGpjugqCxeukJGvPOR7Ni5SxrWr6OVKzIt+nu5PDfsLc3/1CP36DBC3cj4ePn192TOgsXaqn+m+yO+XV6CAF0EvQalV9Do6rj56suleeOGmmfWvIXyzsefayUPC0Hvrg9IUdNNgTBx6kwZ+eFoXUf6yy86R2oYsz8sJd/+9Lv88sck3dfzsfuklmFgw/PDR/osAzcaa0mbFk3VKoBreuP9T/RakZaCwBLjkgTyFoFQgmDBggWSkpKiZvtmzZqpBQFnjhEJGJmA4I5KQJfC9OnTVQBUqFBBjjnmGEFFDgGBYyxZkm4tDRQSVhCgPHQRNGnSREqWLKndCLAcwNqAcPzxx0tSUnpjSCOi9EFBECWwXsXGoyBAxTqwZxdtwbvXNOS1d7VLAC3pVwf30V24PlT86Ds/qW1LadywvptFvvj2J61gUeawgb18eR7s1k9b9Kd1aGeEx6W+PGiBo0sBodNlF8g5p3Xw7fMSBFNnzJHX3/ufpul89y1Bx4ewgMBAuPuWa00F3kTX4TMwcdoMWfdPstxy7RV+Zr19+/bLA0/0VcvI9VddIqefnG5W3GzmGHjciB+Eyy88Wy48+zRdtx/LzfwDzwwZoZsUBJYKlySQtwiEEgTjxo3TEz3uuOOkatWqfiednJysrXW06q0vFSruNWvWqGm/bdu2QSb+VatWaXcACurQoYMvnysIYKGAJcIGPE8nTZqkoqJGjRoxmSeBgsDSj8EyHgXBJeedKZecd0YQHTjQPdnveY1/rs/jUt44DWYVfvxtvHwy5ntNBkEAYYCAOOzD9ivP9vSZ5ScZv4W3TP88AroTYO63wUsQfDj6a/l1/GTtjkC3hFcYMOQ1M1nQajm740ly9eUXeiXxi8PkR137DFLBAjEAUYCAbg50d0AQDR/U23fObmZYPmAtoCBwqXCdBPIOgVCCYMqUKbJnzx6dl6Bhw4baes/srNG9gG6G+vXrS7Vqh62INg+e/RMmTFALQosWLaRcuXK6ywoCDHts06aNTe5b2v0QH+g2iHagIIg2Yaf8eBQE991+vbRs6t/vhUvCtdz9aE9tOQemwT5UhPhbs269JG/aLJi1z+2TH2oq/hLF09UwnAC7P/OiknL9Cwa/8qZaHI4/rq48eu9tDkkRL0HQZ/ArejzX+dAvk9n435ffyU+my+OYmtWlx6P3+u2G/8GMOQtk1Zp12vefsnmLwHpgw6kntZWbjHMhQmbl2PQ2DQWBJcIlCeQtAqEEwbp162Tp0qW+k0WFjK4ALNEV4AY87/744w+NcrsR3DRYnz17tjooYkZEtPgRbIWP7gB0CwSG9evXa3cDJkxC2dEOFATRJuyUH4+CwKtf316SrZSvMH3uF5zVUaNhKn/xtXc8nfpc50JXECBjD+MIuD45RU5s00J9D3bt2i3oSkC459ZrpXXzdPO+RpgPe2x3psJ7uvRS0YGRBKecEKy2kff3CVPlg0/HqDXCdlvAWejtDz+TSX8ddiKyx3GXriCwXSYYMfHQXTe7yXzr8D346PNvaCHwEeEKCeQtAqEEAc7yn3/+UTO/dSS0Z44RCehKwKgABPgPTJ06VddPPPFE45uUbvnUCOcDfgSo4KtUqaIjB7DLCgI3zsmi6ZGPgsClcpSsx6MguPe266RVs8ZBdwDXckfn7hpvLQS7zHC9zk/1941EQOUOB8JqxkGvcmIl2WzG9qMVjxAoCH4eN1E+/uJbNcGjooYfwvufjNFtdCPY+Qc0s/nwEgQ9n31JW/boz0e/vlf41AyH/OHXP6Vm9arSq8v9msR2WWADDocntm2hjpRVzDlXNENCXxzxjjoPuoLAtv7dcgKPBzEAUUALQSAZbpNA3iCQmSDAGeI5h9ED+NuyZYvfEETMbAhrARoUf/75p16QjfO6ujlz5khqaqqOToBzIUKeEwSmK7igGR2B5y3+Cph/+h+TueRiKJC2a48ZgZ+/QzwKgovOOV0uu+CsoBuXnLJJnuqfbuYfbHwIMPHQrLkL5ZW3PtC0gR75iHT3BwqCncYi8FCGReDBO28y8wH8KitXrxXMdwBHv8DgJQggIMZNnKrOhHAq9Aq2GwLvP4B1AaFbvxfMBEabpdFx9aTzPbcE+QPY/a4gyI4PwcCX39AhmxQEXneCcSRw5AlkJQgCz3DHjh06mgDxmI+gXr16mgTDDSEaMGcAWvuBAc9+60MAXwB0PSDkOUFgukkLFqQgCLx/UdmOR0EAp7lBvboGjdt/YfjbsmDJUm3B21EGqIxRKSPA0c4O67Mw7ZwD2A4UBIizZdatXUsd/xDX3fTz1zb9/YHBSxBMNib/Nz/4VJM+/uAdgjkU3ACfBjvE8c6brpZ2rZrp7geefFq7OM43Ex9dmTHxkc2HGQuf6PucbrqCADMwPvF0ejwEE4STG5atWC0DXnpNoygIXDJcJ4G8Q8BLEKALYMOGDYKJidCvHzgzoX0hUuXKlaWhcThEsBU7RgnAOdCOPrBXiiGESIPgNcqAXQaWVD5axqMgwO3BPAS3mlY6puSF492PxikPZncE1zzvVpKYeRBzFEAUYH6AMWYGQIwksMFLELiTECFdQvlyMrh3V5vFb+klCDAiAN0GqWauBFTCd9zYSRo1SFfwCxb9LW8YsYBZCFFuPzM5kR3lMHzkKHUmhPjB/ATo3kBYvfYfGWxGCtiZC11BgP3WAoB1WDHamnkIcL1/L19lJlMaxXkIAIaBBPIwAS9BACEwbdo0PWuMGMAERDCfo2sA3QZ2HgJ3bgDkmTFjho4iqFSpks5KiJEDmI0VefACJQTXqoBtKyQoCEAjn4V4FASVkypJshkFgIAK0x0p4OVQ1/e5YVqR2luLoYKYjAghM6dC7MfERvebMf/2GO6kR9jvBi9BgP0YzdDDiAKIEK8AEQAxAFFgw3wjFuAnYAPSpM9KdkCj7HkHCgK8v6DHgHQBYvPatNi2lg5aCCwdLkkgbxHwEgQ4w8WLF6uVwJ4tJgtCpW9D6dKldRigawnAtMUYSWADRIQ7UyGmIW7cuLFflyQFgaWVD5fxKAh6P/6gjP15nEyefviLjlvXtmVTYzW4MqhbAIoYkwNh+J4bMPUvRiLYitfLQoD0b3/0uUyYMl2zZja/QZfeg9QSgBkCO57Uzj2UYPrkkWbUAFr4bsBQw9uvv8o3/bG7D90Jw0yr3loDsA+V+41XXyZ/zZqnkzAFCgKkgVVkhJmPAP4ONiDfFRefI1UrJ+lESBQElgyXJJC3CIQSBHhWr169Wicbcit1VPJozYd6lwGsAajkXfGAK3YtDS4BO6ER9mMOg8Bghx1i3gLMXxDtwGGH0SbslB+PgqBft85SxVgJ0OJeacbnwyQOk3pJY5LPLOBlQavX/GNGHBzUitGdVCizfK++/aFMnz1f6hxTU7p1vjuzpFnuw9TDqLAREs0bGgPfX+BVALob1huLSHnzZkZcd2D/oVcexKErxb4hEe8wsG8uC5We8SRAAkeegJ2KOPBdBvbM8MzGBEUYeojhhqGGFNr0dom3Fe4zM63i+YF8EBLxECgIYniX4lkQxAKTO3IBLfkTzfTHDCRAAiQQLQK2hR6rFni0riO3yqUgyC2S2SiHgsAbEqYo3mveGfD1D79qSxst+ef7PpHt1rl3qYwlARIgAW8CaMFjJAHeP4AuAcwciBkE83ugIIjhN4CCIBg2HPPuf7yv3w6vFxP5JeAGCZAACURAwPbNowh0F2BaYPfFQhEUHddZKQhiePviRRCgku47eJiS6frAf7P14qKcYkQ3wevvfaIzglU3fe/nnnGK1KgWPLFHTstnPhIgARIIJADfAVgI0FWQmJjoe71xYLr8tk1BEMM7Hi+CIIZIeCgSIAESIIE8QoCCIIY3goIghrB5KBIgARIggbAIUBCEhSuyxBQEkfFjbhIgARIggegRoCCIHtugkikIgpAwggRIgARIII8QoCCI4Y2gIIghbB6KBEiABEggLAIUBGHhiiwxBUFk/JibBEiABEggegQoCKLHNqhkCoIgJIwgARIgARLIIwQoCGJ4IygIYgibhyIBEiABEgiLAAVBWLgiS0xBEBk/5iYBEiABEogeAQqC6LENKpmCIAgJI0iABEiABPIIAQqCGN4ICoIYwuahSIAESIAEwiJAQRAWrsgSUxBExo+5SYAESIAEokeAgiB6bINKpiAIQsIIEiABEiCBPEKAgiCGN4KCIIaweSgSIAESIIGwCFAQhIUrssQUBJHxY24SIAESIIHoEaAgiB7boJIpCIKQMIIESIAESCCPEKAgiOGNoCCIIWweigRIgARIICwCFARh4YosMQVBZPyYmwRIgARIIHoEKAiixzaoZAqCICSMIAESIAESyCMEkjdtkYKFCkmhjL8CUkD0fwGzzMVQIG3Xnn9zsby4LIqCIC5vG0+aBEiABPIFAVoIYnibKQhiCJuHIgESIAESCIsABUFYuCJLTEEQGT/mJgESIAESiB4BCoLosQ0qmYIgCAkjSIAESIAE8ggBCoIY3oh4EQQHDhyQmXMXKplmjRpIsWJFY0jp8KGWrlgl7/3vS6laOUnuuvlqKViw4OGdubyG4yxetkKuufxCaXr8cblceubFzV/0t+zavScoUalSJaXOMTWkeLFiQfvyWkQk92rugsWyZ+8+qVO7plRMKB/zS9u7b5/MW7hENmzcJGnbd0hSpYpSrUqS1K9bWwob56pYhn379svs+Yv0kM0bN5SiRYvE8vA8Vj4nQEEQwy9AvAgCPBQf6TFAyfTr1lmqJFWKIaXDh3p++EhZuGSZRjx0180RVdR40G7fuVMf8OXKljl8ELO2Zt166TP4FY2rWjlRnn7yYb/90d7o0nuQpG7dFvIwCeXLyQmtm8uVF58bMs2R3hHJvXr4qf6yY+cuufmay+WUE9rE7FLwe/zi25/kh1//lIOHDgUdt0SJ4tLp0vPl5PatpUAue1kHHSwjYkvqVunaZ7BuDezV5YgIpFDnlh/i9+/fL/heFC5cOKoNkKxYHjLfRzTM8L0rUiR2opCCIKs7k4v7KQjCgzlx6kwZ+eFoKVO6lPR/6hEpaR7QOQ1jvv9Fvv7hV2359X3iIb9iDh48KD0GvCQbN23WSvf8M0/12x/tDSsIChkLSMUKCb7DpW7bJvv3H/Btn3piW7np6st823lpJZJ7dSQEAawCQ0a8K38vX+nDCP41qldVK4Er0E4/ub1cf9UlvnTRXKEgiCbdrMseN26cJmrRooWUK1cu6wxRSrFu3TpZunSplC9fXpo3bx6lowQXS0EQzCRqMRQE4aNFZY2ugkhbaF9+/7N888NvnoLAntUBc6xYm4hxbCsIzjmtg3S67AJ7OrrctCVVPhz9tcwxZnWEmzpdJqee1FbX89pHTu/VkRAE73z0uYyfMl0R1jmmpvzn0vOkbu1avlbh2n82GDH6maxe+4+muf6qi+X0k0+IOnIKgqgjzvQAeUUQrF27VpYtW0ZBkOndivOdR5sg2L5jp2w2Js4SxYtpyzY7lSkYbDHm8a3b0rSvFq1/hL2mD/mQ2Vfc+CvYyh9ms73G1I+WW2Z9qSlmMo3de/ZIJdO6LlmyhN+3xJbx5Xc/yS9/TBKY362FoGiRwjoBh3t8N86vILOxZ+9eSdmUanwqiui5B+732kb3CxhVMMctW6a079rctJkJAqTDNfQeNFT+2bBR0K/8wB03anawRN97QWNWtH4eu/fslVVr1kmFhHJB54j0aPluM+eEbpOEcmWDzsfywgHce6EHdD5wHIRipo8bgs3my+xeufc+sWIF5YEysiMIINY2bU6VfaZlXyUpMeT3ARYVpLXnhfLXrk+WHea7epzxCcC5Ll+5Rp4ZMgK7lFGvrveb9MF+Miir/wvDNX9p488xpP9TmsfrIye/BZiEU8w17Tb+I9WrVdZzyK4gyC4Pr3NlXDABfH/x/Rw/frzubNq0qVoI8CwK5bsEAbzXPBOQpnjx4kG/JRRkyw1VDo6JNHa/3YYgWLlypZQuXVpgrUDIjYaRFpTJBy0EmcDJ7V242aL//xV8mfCHh0JihfJHpGUa6vqy8iFAa/WDT78SPLzc0MH0tV5/5cUhH9a/jZ8io78eq5W/zVejamWBf8DAoW/oA//266+SE9u21N2Tp8+WN9//RNCXO3RAD5tFl+hzfvODT2Xh4qV+/b+1a9WQO2/q5KsMIQI++vwbv7x248KzT5PLLzxbNx/t+axsS9su15nzP+MU/5YgnM3e/8Q4HS5dYbOqSDm+QT357w3/EVQWbsAPfPRXY2XcpGl+14pK+BbTT97UOGq6IStBgLTWwuGycO/TM90fkdff+0RWrl6rReNe3HrtFb7DfP/zOPnmp9/9zgci4pLzzpBzTz/Fl+7v5atk4Muv63bnu2+Rxg3r+/bZFbdCtWkyu1fI9/uEqfLpV9/7Hb+mMc8/dOdNKnZC+RBAKI767GuZOHWGPbwu8b25zXxXatWo5hf/lvlOTPprllpRalar6vd9Q4WOe2XTFDGC8Nkej6k48ivE2cA9H/zKmxrT9YE7VFQ4u9VyE+5vAd+PUcbqM37yX37f3fbGT+TS88+Ubv1e0EN4+RCEy8M9V66HJjBx4kTTPbffM0HHjh394veYxsfy5cslJSXFL75atWpy7LHHqv+B3bFw4ULZuHGj+gG0b9/e1wDBftQHM2fOlO3bt0uZMmWkVatWkpycLIsWpTuV2jLssm7dulKjRg27GZUlBUFUsHoXejQIgkV/L5fnhr3lu0C0CF2HrAb1jpXH7rs9SC1PMObZt42Z1gY3Hyo5bAdWCraSQcU1bGAvm1VSjXWh57MvacsKkciLMpAfoVLFBOlvnCEx/SbKGDX6K19a7EdahAvO6ijWXyCUIECl+9QzL/rl18wZHyir28N3m5EQib7oZ14cIctXrfFtwwqCFiQCzhX+EDhHG7IjCFxh8+aQ/prVFQQVjHe+K9BcQfDV2F/lq7G/2MPpObj3DKII4sgG22Jv16qZEVdX22jf8j0jjv6YOM085ArrfUHLJdS9QqZJ02bKW6NG+/K79x4VNPrz0RoPdCrE72XQ0DeD+vndc4e1BFYTG2xl7zK3+6wguKdLLz1e6+ZN5J5br7W7Qy7nmhEI/5pKHGITVh4bcvpbgMgFLxtcHhjdAEsQQqAgyAkPewwuMycwe/ZsQUWPPxvQ6kdARW4DRMOMGTP80tl9WMIBsE2bNqZRlG5xgkVr6tSp2virVauWCgabfsOGDbJ4cXpXYOvWrdUasHnzZvUd8DoP5K9atarNHpUlBUFUsHoXGu+CAA+qPsZ0jQcyWndXm/5umGFhgp5sHvqfffOjXrhbGSHCbXWin/aaKy6U2jWra8UOD29Udja4lUKoSuY709r9PONYDxvrQiPTUkelhP5eWBrQikJF73rl2xY2Hri2y8AeE0svQYCRCX2ee0WSjYUAld8dN3aSJg2P0+ufMXueDokEi5ZNG8l9t1+vxa005vp+zw/X9YvPPUPOO/MUNQVDrDxnWpowX6NV2/Ox+zQNPrIjCGwl4uZ1BQHKOfPUE+Wc009Wz3S0QsHEOvthP0YqnGdEEFrX6CP/1lgMps2ci116bWihIoAtGKOiGj64d1Cr5v4n+irjM0yf+nWmbx0h1L1atnK1DBjymqbxu/em6+KH38aHvPfI8O7HX8ifphWNcMN/LpW2LZuqY+kqc5+HvvG+WnQgFp/v+4RvaKYVBMgDsXHXzddI/TrH+MytO3ft1i4K7Ie/Bvw2chJy+lv44bc/5dMxY/WQcFY857STJbFSBf3uwmoAXjYECoKc8LBlcZk9Apn5EOA3NWfOHNlmnH0hFho2bChly5bVgrdu3Srz58/Xij8xMVEaNWrkO+D69etlyZIlut2uXTvTICmhluHJkyd7CgUkpA+BD9/RuxLvggBOVjDdhjK1wjRvK/eXnukupTL684ePHCUz5izQlvnAnl2CRgu8OOIdwVh8hOwIAlQweHDCGtHl/v/6fWEwnhyVHVp/eNDakBNBMHXGHGOG/58WYU3jtjwsx/7yhzFJ/6BRL5vrhf8CRjJgRAMq0xHP9/WzlMBBcJwxnbdoerw6sNmyshIEYANGCGd3PEmuNnMlILiC4CTTzQITemCwQgcCDiIEfZU24AFnfRNgYRhkhrkhoK/+iaef03UIHQgeG9xWce+uD0iNalV0VyhB8OrbH8l0I55gSRlozPOBPh6wNqFMBPfew6LSufszGn/bdVfJSe3Su5E0wnzAD+XJvs+pOAMPcEFwBcHg3l3VZ0R3ZHxAkPUe+LJuPf7gnSoW3P3ZXc/pb+GBJ59Wa5PXd3eXESuPG+7wKUBwBUFOeWT3epgunUBmggCt93nz5qlARoseFbsbIApgaUCwFb/dP2vWLBUSFStWlCZNmmiXw5o1a1RYtG3bVgWrTYslBYFL4yhdj3dBgL5NDM274qJz1NweeJvgE3Fvl976kHbnDbCV0rVXXKSt2MB8a9ZtMPMADNVot1IIVclYgYFK90HTB+3Vzx14jJwIAnj3/zp+sqk0asvjD94RWKT2AcKKgACnR1S2MKXDpI5wlZk34CxTUWFMc2bBCgKYucHIBrCGdcWKJVSqfUwljMobwRUEXoIFlpL7Hu+jabs/eq9aZXTD+XD9AYYP6u3z/8C8DJifwXViRDZrqUCXB/rfbQh1r+y1wZp0tkdrHFadvs8N02Lce4/JeWAFQCs/lDOfFZKuRcoKAlhBej/+oD0939K1VkEAWZa+BNlcyclvAVYidMcg9DHnVt2cY2D43ojMzzJEpisIcsojsHxuZ04gM0GwatUqdfSrXr261KtXz7Mg64uASh+Vvw27du2SadOm6WadOnVUEGAj1PBGCgJL7ihexrMggFfz3Y/21LsDH4GG9et43in07cOcah323EopVIvMLdutFEJVMpgV79mXXvcdHxUpWrGNG9aTZo0aqgXDtzNjJSeCwFaKMMNjgprsBMw4+GjPAb75A2BNwWyPjRvUl5bNGumcCoHl2EozMN7dhmm8d5cH/KweriDwmkDKbc2/ZqwV8KkIDHBqvfuxdP8M12kOToAffDpGLR1Dn+2pQgEWBQgM9PdD7JznzNfgda+QDv31CLDkoFUcGNzju/celSIqRwQIMq+wPnmj+o0cY7qfehjBg2AFQaCQsfkhsqzTXqD/gU2T1dL9vobzW4D1ashr72rxr7/wdFCrEDvcNK4gyCmPrK6F+/0JZCYI5s6dK1u2bNEM6BbwCtiPhpGXA6AVFDYfnBDr1w922sX+IyYI+Ppje3uiv4xnQYBKHpU9gvugCqQ27K1RZtrjBb6WpZvv2Z6P6dDAwDzYto5ebqXgVcnYvHhwwkkRIwPcAKvB+Wd3lEvPO9PPPJ4TQWDPCZMBYVKg7AYMg3zNdDVYj383XysjCm659kq/bhNXELjOiSWNSRI+GseZihT94IFTGGclCH4eN1E+/uJbNdcHjtJwzwmVPISbO9YeQyzvf7yvJvuv8Z2A/4FtpSLyxX7d/MSN171y731m3xnL2b33L5mKE8582QkYvQE/AoSsBAEcGO/rmm41saI1O8dw02T3ugJ/Cz+Z+/G/LO7HhuQU6T5giB7OZZZTHu55cz1rApkJAtv6z7oU0dEAEAVugPidMGGCLyqwW8G3w6wcMUGweYsRqoW08YAGRAHzT/87XY3ueeZ0vUDarj3/5jTz0ZIvngVBdlp7uE/on0U/LVqPaEVCLd+VYVnAELPAIXfIgzHtDxhHNQS3UvCqZDSR8wGT8zzTx44pju00x9gNhz4M4bIhJ4LAWjvCsRDY42GJfu458xfrec0yIsl6x2MinG6d7/YltYLAa2IiXyKPlawEget7EKpFmllrFyZ7iIDjj6srj957m9iuGq/+b697he6Ue7v21jMP1ZJ207j3HhUnKlAEfG8yC8XNPBjWipCVIEA5lre9rszKxvf+3Y8/x2hhOa1DOz1OTn8Lbus/1P3Aex1eev09PSVXEOSUR2bXxn3BBDITBPAPgJ8AugJq1Mh8+F8x8/6RQB+DFStWyOrVq30HrVy5sjom+iKcFQoCB8bRuhrPggD3BI5mcDgL5Z0Nk/I9xvyMis81x2LYHjz1zz3jFPnPJecF3V634nIrBa9KJiizE4EKeFDGfAaBfc85EQTWq9urAnQOm61VtMDhiAYHOwTX4c1WULktCNB98aBxYkNAfzr61QMDPPafzujDx9BOdE3Y4FZOaIF3Ne9cwL3FUEQMSXRDqHtlrw1dLhBWgcEdleHe+79mzZMR73yk3T+vDk5v0Qfm9drOjiDA+wswwgIBo1SaZPIyK4xywPcAwbVw5eS34PoQuA6ZWnjGB84L54fgCoKc8sgolotsEshMENgKPbOKPNRhduzYIdOnp8+Mie4GO4dBs2bNJCEhISgbBUEQkqMvIt4FgXUoQ6WB0QKodN3gPmjtmG/sd6eJxZh9vNXOBnhWd+v/gm8OAbdS8KpkYMr+5sfftdV9Y6dLgxzlrJc/+u7disS+ywD+BjB3Bwbr+OhOTOTOneDVB27PD2UNG2QqUzP2GKMs0GXSqlnjoAmO3CF4bgVtK83cFgQ4L3jqw0MdQ/6efPguRPkCvo/9zZwJ6NrADI4QKW7AfjvEEC1wzPuPLplhZihi4KyUlgW+G+6cEdaqgPhBvbr6Rp7Y4wx8+Q3fPAPuvcdcE116DdRkXqMMsAOVP8Z7d2jXyvedyo4gQDeTFTe4nh5d7vcUS+gaePr5YeozgVEavUw6G3L6W7CjDOode4w88dCdtjhdZjbKIKc8/A7AjSwJWEHQuHFjqVSpkl/6TZs26dBCmNK9RhnAGop5BTAUMSkpSb+bKAC/I8xdAFGAfS1bttR0mIcAlgSMMgj077HvMihZsqTu9zuRKG5wHoIowg0sOt4FAczz/V94VVuJMHtfe+VFcqyZrAVjuzFEDxMAIWC8OMZ/24AHMPpFMZwKD2Dsb2Sc7NZtSJbJZlY51w/ArRS8Khn86FBJwWwLD3F4/+OVubBOwIP8lbc+0OOgr/7e2663pyCzzOucsQ8Bk9FgPgGM04dwQPASBBAfeOkRpvtFuvtvv0HN58iHGexefuM97XvH65IxqgLBfesfHvioiDH6AJULWpoQBRgt4PbpR1MQWOdAnBtM3ujKwRTPsPRgroE/zGyKCC53jcj4cIeSIirU8Eave4X0EBGo9BHAAiIOQxXR3YHZE223APYHnoPtsrD72rVsphYM9MV+amaCtENcbzEzMuKNhAjZEQRI54o93FvkhyMihM/WtDSdvwHDSmERwXe22yP3yDHOrIg5/S188+Nv8uV3P+MUdMQN7gemkMb34/1PxvjEEfa7FgJs54QH8jFkn4A7PLBBgwb6jLCVNZ49mFlwp3lrKipyiAZMLYzfNyYswlwDEA0ImMzITmxkK3fEY9KiUqVKafopU6Zolyq6HwL9DVJTU3XOA+TBNMp4yRECnj3RDBQE0aQbUHa8CwJcDqYtfjmjjxPbeFjavnFsYza3bqYlGvjFTU7ZpGPeUZEHBjjszZgzP9szFVrnLFsOKth9xiRvzwPnhBENriUCzmQPPvG0Lw3ywscAvgYIXoIA8XgPQXfT5WHPG2UXNhUIugAQ0PKF1cMOIVuxeq2KJt1pPlDZgIVNj/jA4ZfRFAQ43idjvpcfzSRANuCc7PUgDjM2YiipV1hn/EF6ZYzbx/4nH7pL6h5bKyhpKEGAhOMmTtXKzmZyvzOwMuGBCitGoCCAfwPmnMC7GWwInIEQ37fuprK2IbuCAOl//XOyfGimRc4qPGhmQ2zmzIZo0+f0t2CtJrYc935ANNnJiQIFQU542GNwmT0C1lRvU0MMdOjQweegjJkH0drHOwwQsB9Wqt27d9ssfiMMMOMgKn6EmjVrCoYc2uDOVAirgZ3kCPvRwIETI0SIDfXq1RMMeYxmoCCIJt2AsuNFELh9nQO6P+o31A2XhP5MWAPwEHcDJgO69borgrzhbRqUC8cqPEgxeRBaii2aHK/90Xa6XLdSyKySQcsWM+qhTDdgCNrdxjrhTkpk9683Htwvvf6uto4Rh/kLMH4fwVbKaMF2PKmdxtkP9LOj2wPj8t0AK8k9t12nLTw3HsMiPzCtPThXugFm+ZvNiIXAPmvbHx04u6Kb12s9q/vk5kF3jm3x2nhURPDruOz8s2yU59KOuQ/V3YJMmd0r7Mexx5jpk10hglkjHzb8YVWBj4l775EHAVYaWFbsjIrpselC9KJzT9fhra74tN1TgRYimy9wCR+Gr83UznCedANEC2ZuxGyXGMUQKuTkt4CK/W3jTzLFmb4Y5eP3gxEtD3Xrp4cLFASIDJeHFsSPsAhgwiAMEbSVMUz6MN3bgMofbyLEREVugBMhhhG6PgELFixQfwFMaRz4LgPktRYJr64BHAfvNUgzFiuEnPguaMYwPigIwoAVadJ4EQTZuU5cy+YtW3X6YUzKUzmxYkghkFV5KOuOzt012d23XCttWjTJKovu13MwLXicB1qaGLLnVg6hCkFf7XZj9qtgzHCoFLMb0LWBY+HHXb1qUpbHglk8xQzjwdAdiJ/M3tiY3XOIJB0qoo0pm1VEoXKHaAr0BYik/Kzy4vio+PFmymqVk4JmLcwsPywsYIkRKYlmUqTyxsyemwEtMtzbNNPP676JMTvHyOlvAdeyYWOKfo+qG3GU1QRW7rlEm4d7rPy6jtY9LAD4vXsFdF1ZSwG6B2zXglfaSOIgTNAlAUtEdp5vkRyLgiASemHmxYMjHt52GOZlZZkc5vpR5u2IaCHbtwu6mVxvdnfKYzcN10mABEiABKJLgIIgunz9Ss+vgsDtw4ZDIUzjVU0LEY5Z043vwG9memCYkisnVdK3FPpB4wYJkAAJkEBMCFAQxARz+kHyqyCAaW2AmWrYdQ4LxA6TPzz1MWqBgQRIgARIIPYEKAhiyDy/CgIgxrVPmjbLeLv/KXDus8O5kozvQf26tc2shuf5Tecbw9vCQ5EACZAACRgCFAQx/BrkZ0EQiBlT1h5pJ7vAc+I2CZAACeRnAhQEMbz7FAQxhM1DkQAJkAAJhEUgmW87DItXRIkpCCLCx8wkQAIkQAJRJEALQRThBhZNQRBIhNskQAIkQAJ5hQAFQQzvBAVBDGHzUCRAAiRAAmERoCAIC1dkiSkIIuPH3CRAAiRAAtEjQEEQPbZBJVMQBCFhBAmQAAmQQB4hQEEQwxtBQRBD2DwUCZAACZBAWAQoCMLCFVliCoLI+DE3CZAACZBA9AhQEESPbVDJFARBSBhBAiRAAiSQRwhQEMTwRlAQxBA2D0UCJEACJBAWAQqCsHBFlpiCIDJ+zE0CJEACJBA9AhQE0WMbVDIFQRASRpAACZAACeQRAhQEMbwRFAQxhM1DkQAJkAAJhEWAgiAsXJElpiCIjB9zkwAJkAAJRI8ABUH02AaVTEEQhIQRJEACJEACeYQABUEMbwQFQQxh81AkQAIkQAJhEeDrj8PCFVliCoLI+DE3CZAACZBA9AjQQhA9tkElUxAEIWEECZAACZBAHiFAQRDDG0FBEEPYPBQJkAAJkEBYBCgIwsIVWWIKgsj4MTcJkAAJkED0CFAQRI9tUMkUBEFIGEECJEACJJBHCFAQxPBGUBDEEDYPRQIkQAIkEBYBCoKwcEWWmIIga3779u2X2fMXacLmjRtK0aJFss4UYYo169bLho2bpEzpUtKwfp2wSpu7YLHs2btP6tSuKRUTyoeVl4lJgARIIC8RoCCI4d2gIMga9pbUrdK1z2BNOLBXl5hUsu989LmMnzJdqlVJkr5PPJT1STopHn6qv+zYuUtuvuZyOeWENs4erpIACcQbgf379wue04ULF5aCBQsesdM/dOiQHDhwQAoUKCBFikS/UWQvlILAkojBkoIga8gUBFkzYgoSIIHoEBg3bpwW3KJFCylXrlx0DpKNUtetWydLly6V8uXLS/PmzbORI3eSUBDkDsdslUJBkDUmCoKsGTEFCZBAdAjkFUGwdu1aWbZsGQVBdG5z3ig1XgXBgYMHZdPmVNNXvldN+Ohr9wq4PvSnFzRmrmLFimqS3Xv2yqo166RCQjlJqlTRLxtMYimm3N2790j1apWlWNGikl1BYM9p3759UiUpMaSvwf79BwRpixlfBGsCXLs+WXbs2CnH1a2tcdnpMsC1bdm6TbZuS5PEihWkbJnSei3sMvC7pdwggbgkABM9fuPjx4/X82/atKlaCGCyt8+NwAs7aJ4re80zEWmKFy+uy8A0ttxQ5eCYSGP3220IgpUrV0rp0qUF1goEnAfSRTPQQhBNugFl42aL/v9X8GXCHyrFxArlpXChQgGpj/zmXlO5jxr9lUycNtPvZCpVTJDrr7pEmh5/nF982vYd8kiPARr3TPdH5PX3PpGVq9fqdof2reXWa6/QdfwARo3+WsZP/ksOmnUb2rduLpeef6Z06/eCRnn5EOg5ffa1TJw6w2bTZY2qleW266+SWjWq+cW/9cGnMumvWXLqSW2lZrWqMvrrseZHvE/TDOn/lJQuVVKyEgS/T5gqn371vS8fMtesXlUeuvMm6T1oKH0I/IhzgwTij8DEiRMF/gNeoWPHjn7Re/bskeXLl0tKSopffLVq1eTYY49V/wO7Y+HChbJx40b1A2jfvr0Ucp7zqA9mzpwp27dvlzJlykirVq0kOTlZFi1Kd6q2Zdhl3bp1pUaNGnYzKksKgqhg9S40ngQBKu1BQ9+UpStW+S6mkFGobgXe9YE7tJVtE7iCoILxuEdr3wZXELz5/icyefpsu0vccuHY98+GjbovUBCAH87p7+UrPfMi8oE7bhSMTrDBCgJYNbYbq4AbsiMIJhkx9Nao0b5s7rlCTOw1FgpYIehU6EPEFRKIOwKzZ88WVPT4swGtfgRU5DZANMyYMcMvnd2HJRwA27RpYyyW6RZSWDCnTp2qjb9atWqpYLDpN2zYIIsXL9bN1q1bqzVg8+bN6jvgdR7IX7VqVZs9KksKgqhg9S40ngSBW2lfdfG5ckKbFmomX7R0hXz8+TdaaaNy7PP4g1KlcqJesCsIEHHmqSfKOaefrN0MEBgwef3w25/y6Zixmv70k9vLOaedLImVKsjqtf+o1WDZytW6Dx+BguDdj7+QP41VAeGG/1wqbVs2lZIlissqk3foG+/LtrTt2lXxfN8npHixYprOCgJsoAK/6+ZrpH6dY3zmN5jgQlkIcC4Dhrym5dStXUuuueJCqV2zuqSaroMffhsvv/wxSffhg4LAh4IrJBC3BDLzIcAzbM6cObJt2zbtImjYsKGULVtWr3Xr1q0yf/58rfgTExOlUaNGPgbr16+XJUuW6Ha7du2kRIkSahmePHmyp1BAQvoQ+PAdvSvxIgjQku7c/Rm9EajQO116vt9NQT/642ZoIKwFGGqHyhDBFQQntW2pJny/jGbjgSefVp+BBvWOlS73/9dv965du+Xxp5/T/djhCgL3nG677io5qV1Lv7zo33+y73N6TldffqGc3fEk3e8KgsG9u0pC+WDP4VCC4NW3P5Lps+eZH3BxGdjjMSlZsoTfMZ8b9pYs+nu5xlEQ+KHhBgnEJYHMBAFa7/PmzVOzP1r0qNjdAFEASwOCrfjt/lmzZqmQqFixojRp0kS7HNasWaPCom3btkF+CkdMEGzaIgVNtwa6NvBXwPzT/7nsu1Agbdce03uev0O8CIJZcxfKK299oKb8V5/rE/RlxV385off5Mvvf5aqxjrw9JMP6411BUHnu2+Rxg3r+91wjNeHEx4CLAvVTb9/YPj+lz/ks69/0GhXEGCyIlgB0MqHqd8rvDjiHZm/6G9xuyesIICPQW9zTK8QShB06T1IrQFXX3aBnH1ah6CssGr0fW6YxlMQBOFhBAnEHYHMBMGqVavU0a969epSr149z2uzvgio9FH527Br1y6ZNm2abtapU0cFATZCDW+kILDkjuJlvAiC0aZCHmsqZjjO9epyv+cdmbdwiQx57V3d9/oLT6tocAVBv26djfd/Jb+8Xnn8EpgNN40rCCASIBYQ6teprcvAj/XJG9XB7xhj1u/x6L262woC+BXAv8AreAkC+AXc06WXJoclAxaNwACH0LsfS09DQRBIh9skEH8EMhMEc+fOlS1btuhFoVvAK2A/nMW9HACtoLD54IRYv75/o8nuoyCwJI7iZbwIgpdMRT/XVPitmzeRe2691vOOpBjT0pP9ntd9/Z/qLJUTK/l1GXgJgp/GTZT/ffGtmuCHDujhWe6G5BTpPmCI7nMFgT0nz0wBkeXKlhH4ESDkVBDAsbHnsy9pGe55aITzAdFAp0IHCFdJII4JZCYIbOs/O5eH0QAQBW5AA2LChAm+qMBuBd8Os0JB4NI4StfjRRB88uV38uPvE8RtaQfekgVLlskLw0dq9Ijn++qwydywEODdAC+9/p6W61bEEBIQFAgY7pdZKF68mM+KkFNBgHcq3Nu1tx7msftu93zHgZuGFoLM7gj3kUB8EMhMEMA/AH4C6ApAhZ9ZKGacmgN9DFasWCGrVx92mq5cubLAMdErUBB4UTnK4uJFEMyYM1+Gj/zQDKEpLMMH9facDOP7n8fJZ9/8qJMNYc4BhKwEgetD0LvrA1KjWpWgO/ztT7/LF9/+pPGuIPhr1jwZ8c5Hek6vDu4TlC9URE4FAcqzPgRwqoRzZWBYaSZc6vf8cI2mIAikw20SiD8CmQkCW6FnVpGHuuIdO3bI9OnTdTe6G+wcBs2aNZOEhISgbBQEQUiOvoh4EQQYvvdoz2f1Blxy3plyyXln+N0MePx37TNITeWuA19WggCF2FEG9Y49Rp546E6/cjMbZZBqRjZ06TVQ03uNMsAOVP4Y/9uhXSt9+6CNw8RE4foQIO/wkaNkxpwFOpRxUK+uUipglMHAl9/wzYlAQQBiDCQQ3wSsIGjcuLFUquTvA7Vp0yYdWgjve69RBvAdwLwCGIqYlJTkm4sAz33MXQBRgH0tW7bUdJiHAJYEjDJwJywCQfsug5IlS+r+WFFN5iiDWKE2kxTG0UyFw94aJTPnLlA4N3YyY/5bNNW+f7SKMcsgZiDEPAQ9HrvP19LPjiD45kczOuG7n7VczFNw3pmnSkK5sjqvwfufjPFVsEjgWgiwjVEG9tXIqIDbtWymlTX65j79aqxvXoBbzIyIJ5uZEREisRBgAiRU+giYhwAcYNXAdcJCYrswsJ+CABQYSCC+CbjDAxs0aKDO0rayRoWPmQV37typFTlEA6YWxlwmmLAIcw1ANCBgMiM7sZGt3BGPSYtKlSql6adMmaIOiF7+BqmpqTrnAfJgGmW85Agh1DTKujMXPigIcgFidouIJ0GAL/8zZlIevIfABneWPsQFDi3MjiBAPtvyxjoCuibgmIeAitdOThQoCPBOAkwU5J5T4AyEtWvVkO6P3KNl4SMSQYD84yZOFQgVG1wGGAKJhwEsJhQElhCXJBC/BKyp3l4BxECHDh183aaYeRCtfbzDAAH7YZXcvXu3zeI3wgAzDqLiR6hZs6ZgyKEN7kyFsBrYSY6wH5MgwYkRz2EbMNQRQx6jGSgIokk3oOx4EgQ4dbyY6O0PR6vZ3L0UePFff9XF0qpZYzdah/zZeQYGdH9UZyD0S5CxgYr97Q8/kynO9MXYhVENN119mTzUrZ+mDBQEiMQLljBj4bSZczWN/UBFfdG5p8uFZ5/mp6LtkMJWzRrJvbddb5P7LVHho+LHexB6GotHYMAQzDFjf/GJFuzHFMsPm7kWnjeOlckbN1EQBELjNgnEKQFMGIQhw8UJ3wAAFfFJREFUgrYyhkkfpnsbUPnjTYSYqMgNcCLEMELXJ2DBggXqL4ApjQPfZYC81iLh1TWA4+C9BmlpaXqYnPguuOeXnXUKguxQyqU08SYI7GWjEk5O2Szwqk8oX1anIs6Nt25BcGzYmKIVeHVTwRYuXNgeMsslXlCUsnmLipZE87Kl8qbbIZoBIgYV/26j+KtVTgqatTCax2bZJEACsSeA1j0sAKjMvQK6Kq2lAN0DtmvBK20kcRAm6JKAJYJdBpGQzGN541UQ5DGMPB0SIAESIIEoEKCFIApQQxVJQRCKDONJgARIgASONAEKghjeAQqCGMLmoUiABEiABMIiQEEQFq7IElMQRMaPuUmABEiABKJHgIIgemyDSqYgCELCCBIgARIggTxCgIIghjeCgiCGsHkoEiABEiCBsAhQEISFK7LEFASR8WNuEiABEiCB6BGgIIge26CSKQiCkDCCBEiABEggjxCgIIjhjaAgiCFsHooESIAESCAsAhQEYeGKLDEFQWT8mJsESIAESCB6BCgIosc2qGQKgiAkjCABEiABEsgjBCgIYngjKAhiCJuHIgESIAESCIsABUFYuCJLTEEQGT/mJgESIAESiB4BCoLosQ0qmYIgCAkjSIAESIAE8ggBCoIY3ggKghjC5qFIgARIgATCIkBBEBauyBJTEETGj7lJgARIgASiR4CCIHpsg0qmIAhCwggSIAESIIE8QoCCIIY3goIghrB5KBIgARIggbAIUBCEhSuyxBQEkfFjbhIgARIggegRoCCIHtugkikIgpAwggRIgARIII8QoCCI4Y2gIIghbB6KBEiABEggLAIUBGHhiiwxBUFk/JibBEiABEggegQoCKLHNqhkCoIgJIwgARIgARLIIwQoCGJ4IygIYgibhyIBEiABEgiLAAVBWLgiS0xBEBk/5iYBEiABEogeAQqC6LENKpmCIAgJI0iABEiABPIIAQqCGN4ICoIYws7BoQ4ePCgz5izQnA3r15EypUtlu5QtqVtl2co1UrxYUWnaqEG28zEhCZAACeQVAhQEMbwTFAQxhJ2DQ+3YuUsefqq/5ux89y3SuGH9bJfy5+S/5N2Pv5ASJYrL0AE9sp2PCUmABPIOgf379wue04ULF5aCBQsesRM7dOiQHDhwQAoUKCBFihSJ2XlQEMQMtegXTf41S/MPrVH84aYnVigvhQsViuGZ8FBeBCgIvKgwjgTyD4Fx48bpxbZo0ULKlSt3xC583bp1snTpUilfvrw0b948ZudBQRAz1BQEMUSdo0NREOQIGzORwFFDIK8IgrVr18qyZcsoCI6ab5bHhcRrl8EBY8nYtDlV9u8/INWrJmXLlIZrTd26TbZt3yHlypaRhHJl1fwViAXp9uzdJwWNaayY6X9HwPH+WZ8sVSsnGXNZ4cAskpyyyVhbRConVvQsE+eJMooVLeI7V1T2KZu3SIXy5fR8ggo1EdkVBHv27pWUTVu0iOpVK+sx2GXgRZRxJBAfBGCix7No/PjxesJNmzZVCwFM9qG6DmDh3WueBUhTvHhxz2eRLTdUOTgm0tj9dhuCYOXKlVK6dGmBtQIB54F00Qy0EESTbkDZuNnx1GWw11TUoz77WiZOneF3JdWqJMntN/xHjqlRzS/ebnz/8zj55qffzY9ln43Syv6S886Qc08/xReHlTQjGB7pMUDjBvXuKm9/+JksXLLMl6Zu7Vry0J03mR9cMXnvf1/KtFlzfeUWMj+Qa6+8WE7r0M6XHitvffCpTPprlpx6Uls5uV1rGTZylGxL2+5LU6ligtxyzRUCx0E3ZCUIUrelychRo/3OD+dw1aXnqzMhfQhcmlwngfghMHHiRNPg2e95wh07dvSL37NnjyxfvlxSUlL84qtVqybHHnus+h/YHQsXLpSNGzeqH0D79u2lkNM1jPpg5syZsn37dilTpoy0atVKkpOTZdGiRTa737Ju3bpSo0YNv7jc3qAgyG2imZQXT4IA5zpo6Jvy9/KVvitC5XfQqFkb7rr5Gmnbsqnd1OVXY3+Vr8b+4osLzHP5hWfLhWef5tvvCoJaRmCsXvuPb59dqV2rhlRMKCfTZ8/XqMAyAx0ArSAIVR4KQRndH71PalavYg+TqYVg77590mvgy2op8WVwViCS/tmwkU6FDhOukkC8EJg9e7agosefDWj1I6AitwGiYcaMGX7p7D4s4QDYpk0bKVo03dq5zzw3pk6dqv5itWrVUsFg02/YsEEWL16sm61bt1ZrwObNm9V3wOs8kL9q1ao2e1SWFARRwepdaDwJgnc++lzGT5muF3LlxefKye1bS6mSJWT+4qXaUkd3ADzqX36mu8+MNXHqTBn54WjNc0Lr5nLeWR2lhjGpr/1ng3xrLAbTZs7VfXfc2Enam/0IriDA9rVXXKQtfrTWv/j2J985YB9a/DdcdQlW9TyGm5Y/ugfqHFNTunW+W+PxYQWBjbjhP5dKOyNc0CWxwFgf0MrfvmOnnv8zTz3iG16YmYXg+eEjfZaBGztdKm1aNFWrwKK/l8sb73+iYgLH4ygDS51LEog/Apn5EMC0P2fOHNm2bZt2ETRs2FDKli2rF7l161aZP3++VvyJiYnSqFEj38WvX79elixZotvt2rUzz4gS6kw+efJkT6GAhPQh8OE7elfiRRCgsuzc/Rm9EeefeapAELhh5Zp10u/54Rr14B03SrPGDXX90Z7Pqmm+ZvWq0vOx+3xCATvxY+o9aKi2oisklJdBvbpoHlcQoMK/qdNlGo8PdDk8+OTTPqvEsIG9fH4G2I+uic+++TGoEnYFwcXnniGXnn8mkvvCKmOFePq5YboNAXLmqSfqeihBsNnMMfB4n8GaJtDCgcjlZv6BZ4aM0P0UBIqBHyQQlwQyEwRovc+bN0/N/mjRo2J3A0QBLA0ItuK3+2fNmqVComLFitKkSRPtclizxsxbYqwQbdu2DfJToCCw5I7iZbwIgllzF8orb32gZvURz/f1q9jt7dm3L328Lpz+4OyCyvu+x/vo7u6P3iu1a1a3SX1Lt+IcPqi3MasV8bMQPHTXzdL0+ON86bEyYMhrZsKf1RqP/W6w54m4N4ekzx+AdVcQvPFiP8/zh3UBkxDBUgGLBUIoQQDLxmvvfqwOjjhvL8ee54a9JbAWUBAoSn6QQFwSyEwQrFq1Sh39qlevLvXq1fO8PuuLgEoflb8Nu3btkmnTpulmnTp1VBBgI9TwRgoCS+4oXsaLIBj99Q8y9pc/1Nzf+/EHs3VHUBmiUkR4zYgI13nGFoA5F+5+rJdudn3gDjmubm0/QdCvW2epklTJJtflwJffUD8GdFnccu0VfvvmLlwiL732rsZ5CQI4Dz7b4zG/PHbjmx9/ky+/+1ncNKEEwf++/E5++n2CHGNETg8jdryCTUNB4EWHcSQQHwQyEwRz586VLVu26IWgW8ArYD9GH3g5AFpBYfPBCbF+fe/JzygILKWjeBkvggCVLCrbJqa1/nBAqzzU7fl53ET5+Itvs2whw4oAa8L1V10sp598QlQFQf06teXxB+/wPOUp02dr3z+cC1974WlNE0oQDDE85hkesF4EWils4b/8MUk++vybLK/fpueSBEgg7xHITBDY1n92zhqjASAK3IAG0YQJE3xRgd0Kvh1mhYLApXGUrseLILCtXTgEZtdCMH/R3/LiiHf0zr1uKlivsbuYG+DuR3tqmsfuu12H/bk+BLltIXB9FQK/Ul//8KuM+f6XsCwE8I3o1eX+wKJ0G2IAooAWAk88jCSBuCCQmSCAfwD8BNAVkNXwv2LFiplngb+PwYoVK2T16tU+DpUrV5aGxjHRK1AQeFE5yuLiRRD8NWuejHjno0x9CAJvza7de9QBEPEQERATgcF15rMOgtEUBDh+KHEy9I33Zfb8RdKuVTO586ar9VRDWQiy40NguzYoCALvOrdJIH4IZCYIbIWeWUUe6kp37Ngh06enj9pCd4Odw6BZs2aSkJAQlI2CIAjJ0RcRL4IAQwq79B6kN+Cic0+Xy84/y+9m4M1+XTO87t05ADAyASMUMJnQkw/f5ZcH197/xRGycvVaSTCzBQ42kxAhRFsQXHSOOf8L/M/fHSVxzeUXylkdT9JzCSUIMEvjE08/p2lQFsp0w7IVq2XAS69pFAWBS4brJBBfBKwgaNy4sVSq5O/PtGnTJh1aCP8or1EG8B3AvAIYipiUlOSbiwDPPsxdAFGAfS1bttR0mIcAlgSMMgj0ubLvMihZsqTujxVFzkMQK9LmOPEiCIDEeuFjHf39J7RpKSXMbIEQA+gaWJ+cokMA8WY/2z3w+4Sp8sGnY5BF5xI4zwxZrFQhQSfz+c4MEfxjUrqX7c3XXC6nnNBG00VbEOAgOF67ls10VMPipSt0xACEC+YlwDwEmFoZIZQgwD5rAcA6nBvbmnkIMEri7+WrlBXyIlAQKAZ+kEBcEnCHBzZo0ECfbbayRoWPmQV37sSzo5hANGBqYYw6woRFmGsAogEBkxnZiY1s5Y54TFpUqlQpTT9lyhR1QPTyN0hNTdU5D5AH0yjjJUcI9lmrG1H4oCCIAtRQRcaTIEB/f/8XXpU169b7LgeV3W7TNWDDf830xSe0SZ9n28Z9MuZ7+fG39PnAEYdhiZg8yIYLzGRFV1x0jt2MqoUAlghYO2wInOHwqUfukWPNLIg2ZCYI8P6CHgNeClkerCIYHklBYGlySQLxR8Ca6u2ZQwx06NDBN9QYMw+itY93GCBgP2Yl3L17t83iN8IAMw6i4keoWbOmYMihDe5MhbAa2EmOsB/ztsCJESLEBgx1xJDHaAYKgmjSDSg7pCAwE/UULlwoIPWR30QFiRkLZ81b6HcycNaDGMCwQa+AGQYxbNGd5hjC4NwzTgnqfnAr4QHdH5XEShX8irQt844ntRPMEOiGrIYdNjcTJsFK8fIb7/kJmTKlS8mtppVvJ1SyZe7es1ceeKKvblqnR7sPS3QdjDDzEaDbwwaIjCsuPkdfxPTy6+9REFgwXJJAnBLAhEEYImgrY5j0Ybq3AZU/3kSIiYrcACdCDCN0fQIWLFig/gKY0jjwXQbIay0SXl0DOA7ea5CWlqaHyYnvgnt+2VmnIMgOpVxKE2+CwF42WsfJKZtVtWLO/mIZ83Tb/V5LWBg2mjyo8FEBo6Iv7LzYwytPbsXZiYkgCB4wMyki4D0DeMFRxQrlJbFiBZ/iz8kxUc6mLalm6uJiAh5eExXlpFzmIQESyDsE0LqHBQCVuVfAMEJrKUD3gO1a8EobSRyECbokYIlgl0EkJPNY3ngVBHkMY5an4yUIsszEBCRAAiSQzwnQQhDDLwAFQWxgUxDEhjOPQgIkcHQRoCCI4f0MJQgqmVf7FilcOIZncnQfioLg6L6/vDoSIIHoENho/KQKGL8odH/gr4D5p//NSIrcDAXSdu35NzcLjMeyQgmCCuXKmn55736qeLzOI33OeNXyhCkzpHXzxkFvajzS58bjkwAJkEBeJUALQQzvjAoCczws4Shi/8qULCGlzB8DCZAACZAACRwJAvuM4+KWbdt91gG1EGRYBnLbcZoWAnOHQwmC4sY6UD5jcpwj8UXgMUmABEiABPI3gZ27dst282e7CygIovx9CBQEh4yVAMPzChoVBj+CaA8pifLlsXgSIAESIIE4JbBla5rsM0MpMSdOwYIZPgS0EETvbrqCADNR4e/Agf3m76CUM2P1S5c6PPlF9M6CJZMACZAACZDAYQKYaya9u6CgEQRFtHGKBqrtKrDLwzkiW2OXgeHnCgKsWx+CA6bvplChgpJgnAuLhpgEIzL8zE0CJEACJEAC3gQ2m3fU7N23Xwqb+sd2GUAEWCFgl965w4+lIDDMQgkCCANYCkqa2a4qmmmBGUiABEiABEggFgS2bd8haeZNjLAMWDFg/QesELDL3DofCgKQNAMv/8U/Yx3An+02UEFgrASY+79MqRLGwbCsT5nl1g1gOSRAAiRAAiTgEoAQSNuxC1MN+KwD6Cqw3QUQAnYuAjdfpOsUBBkEXSuBnyAwzhzWUlDGvB4T3QdQaQwkQAIkQAIkkJsEUA/hnSxp5lXOBQqkT0RU2EyOhzrHFQQ4Zm5bB7RMTkyUfjtdQXDYSmDmJDCOhRhxkC4KDkhx8yKLUsZaUK5MmfSM/CQBEiABEiCBCAns3LVLXzq307zK3ooAvHiuUMboAtc6gENREEQIPNPsAd0GKgqMEDj076F0J0MjDCAKVBiYZfFiRaWE8S2Af0FRM18BbiADCZAACZAACWSHAOoYvNodIwnwBsddZh2vbff5CxghUKhQYR3+XhDTFWc4E0aruwDnzC4D584FWgmwDQGALgQrBjBHAXwKsFTRYNZtOGTSHw7u+uFYrpEACZAACeRHAoffO1DIVO6oORBjW/6o9CEIdIl184d9WLpiAOSiYR3QctllAAwZwbESIOZfVPymkj90CKIgXRwgLlAQoOpH/GEJoAVlFMoFCZAACZBAviegeiBdFOATLyvyEgT2JUYFCxYwgsCIAlgGTFqEaFoHtHwKAuXs+/CyEiDOCgHfUoWCEQHYZ/50nIIRDX6iwFcqV0iABEiABPI3AVcMqCTwtfytlQAWAhUEGUvXMmCtAnYZDZbsMgikqo379GrdVvbuEt0HEAWwHGh8hmUgXRSgMC3AEQaBB+A2CZAACZBAfiOgcuDwR0ZrP8NSYKwA1hJgxYGnGIBNQcuIDj0KAi+uHqLA1P5ayWvXgK6jKyHDOpCxT60E6VrCq1TGkQAJkAAJ5HMCpu43QWcRQB+ACgN0D+i/jO6B9CTp+6xFAPujKQb0rNhlEOLbGSAKkMq1FLjbWoJPFOgWP0iABEiABEjAk4Ct8LHTWgLcdZ8ISFcP6fJBM3kWl2uRtBBkhjKEKEAW20Vgl1oMRUFmNLmPBEiABPI9AVcMAEZQ5W9FgF3GwDJgbwoFgSURaumIAiRxBYC7brsUQhXDeBIgARIgARIAgVCiQPdlCIH0dCZlDCwDOBYCBUE6h6w/A4QBMvgJgqxLYAoSIAESIAESCCJgrQR2Ryz8Beyx3CUFgUsjO+sewiBkNpOWgQRIgARIIJ8TyGYr/0gJAXt3KAgsiZwswxEHOSmfeUiABEiABI5qAkdaBLhwKQhcGlwnARIgARIggXxKgIIgn954XjYJkAAJkAAJuAQoCFwaXCcBEiABEiCBfEqAgiCf3nheNgmQAAmQAAm4BCgIXBpcJwESIAESIIF8SoCCIJ/eeF42CZAACZAACbgEKAhcGlwnARIgARIggXxKgIIgn954XjYJkAAJkAAJuAQoCFwaXCcBEiABEiCBfEqAgiCf3nheNgmQAAmQAAm4BCgIXBpcJwESIAESIIF8SoCCIJ/eeF42CZAACZAACbgEKAhcGlwnARIgARIggXxKgIIgn954XjYJkAAJkAAJuAQoCFwaXCcBEiABEiCBfEqAgiCf3nheNgmQAAmQAAm4BCgIXBpcJwESIAESIIF8SuD/Dc/r2BaOdmkAAAAASUVORK5CYII=;" vertex="1" parent="LrmgL-af4YmyxPPww3Iy-1">
          <mxGeometry x="-420" y="-290" width="225.33" height="200" as="geometry" />
        </mxCell>
        <mxCell id="cmgOUzTX4ZPSbhzmpa98-1" value="我回什麼res給JD也要記錄嗎？" style="text;html=1;align=center;verticalAlign=middle;resizable=0;points=[];autosize=1;strokeColor=none;fillColor=none;fontSize=16;fontColor=#A31515;" vertex="1" parent="LrmgL-af4YmyxPPww3Iy-1">
          <mxGeometry x="-420" y="-51.57" width="230" height="20" as="geometry" />
        </mxCell>
      </root>
    </mxGraphModel>
  </diagram>
  <diagram id="js68xTP1l464jC2_PtZL" name="html-to-pdf flow">
    <mxGraphModel dx="1251" dy="740" grid="1" gridSize="10" guides="1" tooltips="1" connect="1" arrows="1" fold="1" page="1" pageScale="1" pageWidth="827" pageHeight="1169" math="0" shadow="0">
      <root>
        <mxCell id="Ao36392ZWJaTsNyj_seH-0" />
        <mxCell id="Ao36392ZWJaTsNyj_seH-1" parent="Ao36392ZWJaTsNyj_seH-0" />
        <mxCell id="Ao36392ZWJaTsNyj_seH-2" value="&lt;font color=&quot;#000000&quot;&gt;use EJS to generate&amp;nbsp;&lt;/font&gt;&lt;span style=&quot;color: rgb(0 , 0 , 0)&quot;&gt;html&lt;/span&gt;&lt;font color=&quot;#000000&quot;&gt;&lt;br&gt;&amp;nbsp;dynamically&lt;/font&gt;" style="rounded=1;whiteSpace=wrap;html=1;fontSize=16;fontColor=#A31515;" vertex="1" parent="Ao36392ZWJaTsNyj_seH-1">
          <mxGeometry x="110" y="120" width="120" height="60" as="geometry" />
        </mxCell>
        <mxCell id="Ao36392ZWJaTsNyj_seH-3" value="send html to Cloud functoin" style="rounded=1;whiteSpace=wrap;html=1;fontSize=16;fontColor=#000000;" vertex="1" parent="Ao36392ZWJaTsNyj_seH-1">
          <mxGeometry x="110" y="210" width="120" height="60" as="geometry" />
        </mxCell>
        <mxCell id="Ao36392ZWJaTsNyj_seH-4" value="Cloud func return base64 of pdf/png" style="rounded=1;whiteSpace=wrap;html=1;fontSize=16;fontColor=#000000;" vertex="1" parent="Ao36392ZWJaTsNyj_seH-1">
          <mxGeometry x="110" y="290" width="120" height="60" as="geometry" />
        </mxCell>
      </root>
    </mxGraphModel>
  </diagram>
</mxfile>
